<?xml version="1.0" encoding="UTF-8" standalone="no"?>
<!DOCTYPE svg PUBLIC "-//W3C//DTD SVG 1.1//EN" "http://www.w3.org/Graphics/SVG/1.1/DTD/svg11.dtd">
<svg xmlns="http://www.w3.org/2000/svg">
<metadata/>
<defs>
<font id="myriad_pro_condregular" horiz-adv-x="724">
<font-face units-per-em="2048" ascent="1536" descent="-512"/>
<missing-glyph horiz-adv-x="321"/>
<glyph unicode="ﬀ" horiz-adv-x="923" d="M758 0h-158v870h-299v-870h-158v870h-125v121h125v58q0 193 90 290q75 78 205 78q58 0 103 -18l-31 -125q-31 14 -74 14q-74 0 -104.5 -58.5t-30.5 -180.5v-58h299v60q0 199 88 299q39 44 92.5 64t104.5 20q73 0 125 -25l-27 -123q-38 17 -86 17q-139 0 -139 -250v-62 h180v-121h-180v-870z"/>
<glyph unicode="ﬃ" horiz-adv-x="1320" d="M1163 1386l-35 -122q-85 39 -163 39q-112 0 -155.5 -68.5t-43.5 -194.5v-49h444v-991h-157v870h-287v-870h-158v870h-307v-870h-158v870h-125v121h125v45q0 199 107 301q80 80 207 80q67 0 137 -31l-45 -120q-46 22 -90 22q-74 0 -113 -55q-45 -58 -45 -195v-47h307v66 q0 71 18.5 134t58.5 119.5t113 90t171 33.5q117 0 194 -48z"/>
<glyph unicode="ﬄ" horiz-adv-x="1320" d="M594 1386l-45 -120q-46 22 -90 22q-74 0 -113 -55q-45 -58 -45 -195v-47h307v53q0 86 27.5 167.5t85.5 136.5q92 86 252 86q63 0 129 -15t110 -37v-1382h-157v1284q-51 21 -109 21q-40 0 -71.5 -13.5t-51.5 -36.5t-33 -55.5t-18.5 -68t-5.5 -76.5v-64h170v-121h-170v-870 h-158v870h-307v-870h-158v870h-125v121h125v45q0 199 107 301q80 80 207 80q67 0 137 -31z"/>
<glyph horiz-adv-x="2048"/>
<glyph horiz-adv-x="2048"/>
<glyph unicode="" horiz-adv-x="2048"/>
<glyph unicode=" " horiz-adv-x="321"/>
<glyph unicode="	" horiz-adv-x="321"/>
<glyph unicode=" " horiz-adv-x="321"/>
<glyph unicode="!" horiz-adv-x="417" d="M274 385h-131l-20 995h174zM209 -16q-43 0 -71.5 30.5t-28.5 79.5q0 50 28.5 81.5t71.5 31.5q46 0 73 -31t27 -82q0 -50 -26.5 -80t-73.5 -30z"/>
<glyph unicode="&quot;" horiz-adv-x="632" d="M102 1397h146l-29 -477h-88zM387 1397h145l-26 -477h-90z"/>
<glyph unicode="#" horiz-adv-x="788" d="M297 514h158l39 313h-158zM231 0h-106l53 408h-133v106h148l38 313h-141v105h156l51 399h104l-51 -399h160l51 399h103l-52 -399h131v-105h-145l-39 -313h143v-102h-155l-53 -412h-107l53 412h-157z"/>
<glyph unicode="$" horiz-adv-x="788" d="M444 -172h-112v205q-130 3 -228 69l37 123q102 -65 209 -65q88 0 138.5 58t50.5 149q0 86 -43 148.5t-134 117.5q-55 33 -93.5 61.5t-77.5 69.5t-59.5 93t-20.5 114q0 119 66 204t165 111v199h115v-187q117 0 196 -55l-41 -121q-84 52 -176 52q-80 0 -127 -54t-47 -125 q0 -45 10 -77.5t37 -61.5t58 -50.5t88 -55.5q120 -70 176.5 -159t56.5 -206q0 -140 -68 -227.5t-176 -112.5v-217z"/>
<glyph unicode="%" horiz-adv-x="1320" d="M313 1348q114 0 182 -110.5t68 -295.5q0 -198 -73 -302.5t-177 -104.5q-111 0 -181.5 110t-70.5 293q0 189 71.5 299.5t180.5 110.5zM313 1249q-48 0 -79 -50.5t-41.5 -115.5t-10.5 -141q0 -57 6 -107.5t20 -98t41 -75.5t64 -28t63.5 28t40 75t19.5 97t6 107 q0 56 -5.5 105.5t-19 98t-40 77t-64.5 28.5zM360 -16h-100l698 1364h101zM1010 793q114 0 182 -110.5t68 -293.5q0 -197 -73 -300t-177 -103q-112 0 -182 108t-70 293q0 186 71.5 296t180.5 110zM1010 694q-37 0 -64 -28t-41 -75t-20 -96.5t-6 -105.5t7 -107.5t21.5 -97.5 t41 -74t61.5 -28q37 0 63.5 27.5t40 74.5t19.5 96.5t6 106.5q0 55 -6 105t-19.5 97.5t-40 76t-63.5 28.5z"/>
<glyph unicode="&amp;" horiz-adv-x="1005" d="M971 0h-176q-5 7 -36 48.5t-59 80.5q-55 -69 -133.5 -107t-163.5 -38q-84 0 -151 32.5t-108 87t-63 122t-22 141.5q0 234 211 393v6q-100 159 -100 309q0 132 77.5 227t205.5 95q100 0 170.5 -75t70.5 -210q0 -104 -54 -192t-181 -179v-6q111 -188 262 -391 q73 153 84 395h139q-27 -315 -149 -499q21 -33 176 -240zM428 109q124 0 205 120q-126 170 -299 435q-123 -119 -123 -281q0 -113 57.5 -193.5t159.5 -80.5zM438 1280q-59 0 -91 -54.5t-32 -140.5q0 -70 18.5 -128t59.5 -123q164 124 164 272q0 72 -29 123t-90 51z"/>
<glyph unicode="'" horiz-adv-x="348" d="M102 1397h146l-29 -477h-88z"/>
<glyph unicode="(" horiz-adv-x="518" d="M344 1417h123q-213 -335 -213 -833q0 -491 213 -830h-123q-95 140 -160 349t-65 483q3 275 67.5 485.5t157.5 345.5z"/>
<glyph unicode=")" horiz-adv-x="518" d="M174 -246h-123q96 151 154.5 362.5t58.5 471.5q0 494 -213 829h123q95 -136 160 -344t65 -485q-3 -278 -67 -486t-158 -348z"/>
<glyph unicode="*" horiz-adv-x="763" d="M500 1397l110 -62l-174 -245v-5l277 35v-123l-277 31v-4l178 -236l-114 -65l-121 270l-4 -2l-123 -274l-105 67l175 246v2l-273 -35v123l268 -33l2 5l-169 237l106 62l123 -263h4z"/>
<glyph unicode="+" horiz-adv-x="1220" d="M553 1090h115v-488h471v-110h-471v-492h-115v492h-471v110h471v488z"/>
<glyph unicode="," horiz-adv-x="397" d="M143 -244l-108 -14q33 92 68.5 233t50.5 244l178 21q-33 -123 -90 -268.5t-99 -215.5z"/>
<glyph unicode="-" horiz-adv-x="571" d="M61 596h449v-123h-449v123z"/>
<glyph unicode="." horiz-adv-x="397" d="M205 -16q-45 0 -75 32.5t-30 85.5q0 52 30.5 85.5t74.5 33.5q47 0 75.5 -32.5t28.5 -86.5q0 -55 -27.5 -86.5t-76.5 -31.5z"/>
<glyph unicode="/" horiz-adv-x="575" d="M133 -82h-117l441 1479h118z"/>
<glyph unicode="0" horiz-adv-x="788" d="M406 1348q159 0 243 -179t84 -501q0 -346 -95.5 -515t-250.5 -169q-156 0 -244 178t-88 502q0 332 93 508t258 176zM397 1212q-92 0 -138 -148t-46 -398q0 -254 46 -400.5t140 -146.5q90 0 133 147t43 400q0 120 -10 217t-31 172t-56 116t-81 41z"/>
<glyph unicode="1" horiz-adv-x="788" d="M385 0v1171h-4l-221 -127l-31 123l281 164h131v-1331h-156z"/>
<glyph unicode="2" horiz-adv-x="788" d="M707 0h-641v102l112 154q152 211 208 305q138 234 138 414q0 112 -49 174.5t-141 62.5q-20 0 -38.5 -2.5t-36 -8t-30.5 -10.5t-28.5 -14t-22.5 -13.5l-21 -13.5t-16 -11l-39 118q110 91 260 91q81 0 143 -28.5t99.5 -79t56.5 -115.5t19 -142q0 -89 -26 -182t-78.5 -189.5 t-100.5 -170t-123 -175.5l-90 -123v-4h445v-139z"/>
<glyph unicode="3" horiz-adv-x="788" d="M57 45l35 125q90 -55 193 -55q104 0 166.5 71.5t62.5 194.5q0 129 -73 201.5t-195 72.5h-37v119h31q37 1 77 15.5t77 42t61 75t24 105.5q0 98 -48 151.5t-128 53.5q-77 0 -166 -64l-35 119q40 32 104.5 54t135.5 22q137 0 216 -87.5t79 -220.5q0 -101 -52 -183.5 t-147 -127.5v-4q100 -28 167 -115t67 -233q0 -169 -102.5 -281t-278.5 -112q-65 0 -130 16.5t-104 44.5z"/>
<glyph unicode="4" horiz-adv-x="788" d="M623 0h-144v367h-442v106l432 858h154v-835h145v-129h-145v-367zM186 496h293v376q0 72 13 263h-9q-65 -154 -112 -252l-185 -383v-4z"/>
<glyph unicode="5" horiz-adv-x="788" d="M682 1331v-139h-358l-56 -354q16 4 49 4q60 0 132 -26t122 -75q111 -111 111 -303q0 -199 -112.5 -326.5t-290.5 -127.5q-61 0 -124 15.5t-102 41.5l35 127q87 -53 186 -53q107 0 179.5 80.5t72.5 226.5q0 151 -82 225t-219 74q-67 0 -104 -6l84 616h477z"/>
<glyph unicode="6" horiz-adv-x="788" d="M653 1348v-134q-40 -3 -94 -14q-79 -19 -141 -67t-101 -116.5t-63 -140.5t-37 -155h6q85 127 226 127q129 0 207.5 -110.5t78.5 -299.5q0 -197 -86.5 -325.5t-240.5 -128.5q-112 0 -192 72t-118.5 192.5t-38.5 275.5q0 367 172 600q58 81 144.5 136t177.5 75q43 8 100 13 zM408 106q74 0 122 78.5t48 241.5q0 148 -47.5 224.5t-131.5 76.5q-52 0 -98 -36t-74 -107q-12 -28 -12 -80q1 -195 55 -296.5t138 -101.5z"/>
<glyph unicode="7" horiz-adv-x="788" d="M76 1331h641v-94l-430 -1237h-154l422 1188v4h-479v139z"/>
<glyph unicode="8" horiz-adv-x="788" d="M389 -16q-80 0 -144.5 30t-104.5 79t-61.5 109t-21.5 124q0 228 219 381l-2 4q-82 56 -128 137.5t-46 167.5q0 149 91.5 240.5t220.5 91.5q91 0 157 -47t96.5 -117t30.5 -150q0 -191 -178 -313v-6q213 -142 213 -363q0 -158 -95 -263t-247 -105zM395 100q78 0 129 61.5 t51 180.5q0 106 -50 176.5t-140 130.5q-79 -49 -125.5 -129t-46.5 -168q0 -114 48.5 -183t133.5 -69zM399 1231q-66 0 -106.5 -57t-40.5 -148t44 -149t120 -107q61 44 97 108.5t36 137.5q0 98 -39.5 156.5t-110.5 58.5z"/>
<glyph unicode="9" horiz-adv-x="788" d="M137 -16v135q47 0 99 12q105 25 182 105q123 137 155 378h-6q-87 -112 -215 -112q-127 0 -209 108t-82 287q0 123 40.5 225t118 164t177.5 62q110 0 187 -73.5t112 -191.5t35 -270q0 -383 -176 -616q-57 -78 -137 -130t-170 -73q-54 -10 -111 -10zM389 1225 q-69 0 -120.5 -78.5t-51.5 -235.5q0 -143 48.5 -216.5t131.5 -73.5q50 0 95 31.5t69 86.5q12 35 12 86q0 200 -50.5 300t-133.5 100z"/>
<glyph unicode=":" horiz-adv-x="397" d="M205 735q-45 0 -74 32t-29 83q0 50 30 83.5t73 33.5q47 0 74.5 -32t27.5 -85q0 -52 -27 -83.5t-75 -31.5zM205 -16q-45 0 -74 31.5t-29 82.5q0 50 30 83.5t73 33.5q47 0 74.5 -32t27.5 -85q0 -52 -26.5 -83t-75.5 -31z"/>
<glyph unicode=";" horiz-adv-x="397" d="M141 -244l-104 -14q33 92 68.5 233t50.5 244l174 21q-33 -123 -90 -268.5t-99 -215.5zM227 735q-44 0 -73 32t-29 83t29.5 84t72.5 33q47 0 75 -32t28 -85q0 -52 -27 -83.5t-76 -31.5z"/>
<glyph unicode="&lt;" horiz-adv-x="1220" d="M135 496v98l950 496v-138l-794 -405v-4l794 -408v-135z"/>
<glyph unicode="=" horiz-adv-x="1220" d="M1139 688h-1057v113h1057v-113zM1139 301h-1057v113h1057v-113z"/>
<glyph unicode="&gt;" horiz-adv-x="1220" d="M1085 604v-119l-950 -485v135l819 408v4l-819 407v136z"/>
<glyph unicode="?" horiz-adv-x="632" d="M354 371h-139l-4 30q-33 197 86 390q5 8 27.5 46t27 46.5t20 38.5t19.5 43.5t12.5 38t10.5 45.5t2 45q0 84 -43 125t-115 41q-84 0 -135 -39l-33 122q29 20 85.5 37t117.5 17q74 0 130.5 -23.5t89.5 -64t49 -90t16 -105.5q0 -43 -7.5 -82.5t-29 -85t-32 -66.5 t-45.5 -76.5t-40 -64.5q-49 -86 -65.5 -159.5t-6.5 -173.5zM276 -16q-44 0 -73 31.5t-29 80.5q0 52 29.5 84.5t72.5 32.5q47 0 75 -32t28 -85q0 -51 -27 -81.5t-76 -30.5z"/>
<glyph unicode="@" horiz-adv-x="1208" d="M713 477l59 299q-18 10 -57 10q-75 0 -140.5 -64t-102 -162t-36.5 -200q0 -66 22.5 -97.5t59.5 -31.5q61 0 118 76t77 170zM838 -51l24 -72q-128 -78 -303 -78q-102 0 -189.5 36t-154.5 106.5t-105 183.5t-38 258q0 223 84 413t233 303t330 113q202 0 315 -134.5 t113 -352.5q0 -282 -87.5 -437t-228.5 -155q-59 0 -91.5 41.5t-26.5 122.5h-6q-48 -88 -108 -126t-116 -38q-75 0 -120.5 58t-45.5 165q0 88 29 178t81.5 167.5t138.5 126.5t190 49q80 0 143 -29l-82 -414q-42 -215 43 -215q77 0 136 132.5t59 334.5q0 216 -87 331.5 t-263 115.5q-106 0 -204.5 -55.5t-173 -152.5t-119 -239t-44.5 -305q0 -245 111 -371.5t311 -126.5q130 0 252 66z"/>
<glyph unicode="A" horiz-adv-x="890" d="M594 414h-305l-92 -414h-152l315 1380h175l307 -1380h-156zM311 541h262l-71 350q-28 140 -56 315h-8q-24 -159 -55 -315z"/>
<glyph unicode="B" horiz-adv-x="851" d="M123 6v1354q107 26 231 26q204 0 305 -96q91 -85 91 -235q0 -106 -56 -186.5t-157 -120.5v-5q120 -32 188 -125t68 -227q0 -164 -99 -274q-111 -125 -364 -125q-132 0 -207 14zM281 1253v-458h71q99 0 169.5 68.5t70.5 174.5q0 103 -54 164.5t-173 61.5q-51 0 -84 -11z M281 674v-549q36 -8 79 -8q125 0 198 71.5t73 202.5q0 135 -81 208t-200 75h-69z"/>
<glyph unicode="C" horiz-adv-x="763" d="M700 158l25 -133q-69 -37 -197 -37q-211 0 -336.5 173t-125.5 513q0 157 30 283.5t78.5 206t113.5 132.5t130.5 75t134.5 22q116 0 172 -35l-35 -133q-66 28 -139 28q-46 0 -90 -17.5t-86 -60t-73.5 -105.5t-51 -161.5t-19.5 -220.5q0 -123 18 -220t47.5 -160t72 -104.5 t88.5 -59t98 -17.5q81 0 145 31z"/>
<glyph unicode="D" horiz-adv-x="911" d="M123 6v1354q88 26 213 26q207 0 323 -104q85 -74 136 -213.5t51 -345.5q0 -405 -166 -582q-131 -149 -381 -149q-110 0 -176 14zM281 1249v-1120q23 -4 59 -4q55 0 102.5 16.5t92.5 58t77 107t51 171t19 241.5q0 264 -82 401t-246 137q-46 0 -73 -8z"/>
<glyph unicode="E" d="M627 788v-133h-346v-518h393v-137h-551v1380h526v-137h-368v-455h346z"/>
<glyph unicode="F" horiz-adv-x="706" d="M123 0v1380h526v-137h-368v-483h344v-133h-344v-627h-158z"/>
<glyph unicode="G" horiz-adv-x="892" d="M803 721v-686q-111 -47 -246 -47q-204 0 -326 135q-78 82 -122 224t-43 325q1 155 32 280.5t81.5 206t119 134.5t140 77t147.5 23q123 0 196 -39l-34 -135q-66 32 -160 32q-54 0 -103.5 -17t-97 -59t-82 -105t-55.5 -161.5t-21 -222.5q0 -154 27.5 -267t75 -175.5 t103.5 -91.5t122 -29q64 0 96 16v451h-178v131h328z"/>
<glyph unicode="H" horiz-adv-x="948" d="M123 1380h158v-592h387v592h157v-1380h-157v645h-387v-645h-158v1380z"/>
<glyph unicode="I" horiz-adv-x="407" d="M123 1380h158v-1380h-158v1380z"/>
<glyph unicode="J" horiz-adv-x="542" d="M274 387v993h158v-991q0 -221 -82 -313t-241 -92q-65 0 -103 14l14 133q27 -8 76 -8q45 0 76 10.5t55 39t35.5 81t11.5 133.5z"/>
<glyph unicode="K" horiz-adv-x="827" d="M123 0v1380h158v-655h4q23 42 86 166l258 489h174l-338 -589l346 -791h-170l-283 666l-77 -134v-532h-158z"/>
<glyph unicode="L" horiz-adv-x="704" d="M123 0v1380h158v-1247h389v-133h-547z"/>
<glyph unicode="M" horiz-adv-x="1226" d="M987 0l-29 594q-20 373 -14 541h-8q-51 -256 -111 -480l-170 -647h-100l-162 621q-78 306 -112 506h-7q0 -157 -16 -551l-27 -584h-141l82 1380h170l162 -630q78 -303 110 -476h7q32 185 102 476l156 630h176l80 -1380h-148z"/>
<glyph unicode="N" horiz-adv-x="952" d="M266 0h-143v1380h149l254 -647q132 -340 176 -481h5q-19 344 -19 635v493h141v-1380h-149l-262 664q-109 274 -164 469h-4q16 -245 16 -656v-477z"/>
<glyph unicode="O" horiz-adv-x="913" d="M471 1397q177 0 277 -184t100 -513q0 -152 -20.5 -273t-56 -203t-86.5 -136.5t-109.5 -79t-126.5 -24.5q-176 0 -279.5 183.5t-103.5 524.5q0 336 110 520.5t295 184.5zM457 1257q-62 0 -108 -48t-71 -131t-37 -179.5t-12 -208.5q0 -113 12 -210t37.5 -179.5t71.5 -130 t109 -47.5q64 0 110 50t70 136t34.5 180.5t10.5 204.5q0 106 -10.5 198.5t-35 178.5t-71 136t-110.5 50z"/>
<glyph unicode="P" horiz-adv-x="817" d="M123 0v1360q102 26 229 26q203 0 305 -102q103 -100 103 -285q0 -171 -84 -282q-55 -74 -143 -114t-183 -40q-46 0 -69 2v-565h-158zM281 1247v-549q27 -6 61 -6q120 0 190 77t70 220q0 55 -12.5 101.5t-38.5 85t-72.5 60t-109.5 21.5q-55 0 -88 -10z"/>
<glyph unicode="Q" horiz-adv-x="913" d="M879 -59l-58 -127q-189 78 -317 149q-44 21 -51 21q-177 0 -282 179.5t-105 528.5q0 339 110 522t297 183q177 0 276 -184t99 -513q0 -539 -236 -653v-8q41 -17 86.5 -34t101.5 -36.5t79 -27.5zM461 123q63 0 108.5 49.5t69.5 135t34.5 180.5t10.5 206q0 107 -10.5 200.5 t-34.5 178.5t-69.5 134.5t-108.5 49.5q-64 0 -111 -50t-72.5 -134.5t-37.5 -180t-11 -200.5q-1 -109 10 -204.5t36.5 -180.5t73 -134.5t112.5 -49.5z"/>
<glyph unicode="R" horiz-adv-x="837" d="M123 0v1360q98 26 227 26q211 0 312 -98q96 -99 96 -270q0 -254 -221 -354v-5q75 -23 118.5 -97t67.5 -212q44 -268 78 -350h-160q-29 60 -74 342q-23 142 -73.5 201t-151.5 59h-61v-602h-158zM281 1251v-528h65q114 0 183 75.5t69 200.5q0 258 -236 261q-51 0 -81 -9z "/>
<glyph unicode="S" horiz-adv-x="739" d="M57 47l35 135q36 -24 91.5 -39.5t107.5 -15.5q106 0 167.5 64t61.5 169q0 89 -45 153.5t-137 133.5q-260 181 -260 383q0 158 100.5 260.5t263.5 102.5q60 0 114 -15.5t81 -36.5l-39 -135q-66 47 -164 47q-95 0 -146.5 -59t-51.5 -137q0 -40 9.5 -74t23 -58t43 -52.5 t54 -47.5t72.5 -53q124 -87 182 -184t58 -213q0 -175 -109.5 -281t-277.5 -106q-68 0 -135.5 18t-98.5 41z"/>
<glyph unicode="T" d="M285 0v1239h-252v141h661v-141h-252v-1239h-157z"/>
<glyph unicode="U" horiz-adv-x="935" d="M121 1380h158v-925q0 -332 188 -332q190 0 190 332v925h158v-901q0 -256 -94.5 -375.5t-257.5 -119.5q-342 0 -342 477v919z"/>
<glyph unicode="V" horiz-adv-x="862" d="M510 0h-162l-315 1380h168l135 -647q69 -327 98 -530h6q20 174 92 534l132 643h167z"/>
<glyph unicode="W" horiz-adv-x="1339" d="M455 0h-148l-266 1380h164l117 -665q46 -277 67 -498h8q6 61 16.5 133t17 109.5t25.5 136.5t23 121l127 663h135l127 -649q63 -335 80 -514h6q26 225 74 506l115 657h153l-268 -1380h-154l-133 672q-49 265 -69 452h-4q-33 -257 -76 -458z"/>
<glyph unicode="X" horiz-adv-x="802" d="M774 0h-166l-125 332q-33 87 -84 241h-6q-65 -193 -84 -245l-119 -328h-161l284 705l-274 675h164l123 -319q12 -27 82 -219h4q65 203 73 225l113 313h162l-271 -671z"/>
<glyph unicode="Y" horiz-adv-x="806" d="M481 0h-157v584l-304 796h166l123 -346q61 -167 103 -311h4q39 141 100 317l117 340h166l-318 -790v-590z"/>
<glyph unicode="Z" horiz-adv-x="733" d="M41 0v94l473 1145v6h-434v135h610v-106l-465 -1133v-6h463v-135h-647z"/>
<glyph unicode="[" horiz-adv-x="518" d="M457 -229h-305v1626h305v-109h-178v-1409h178v-108z"/>
<glyph unicode="\" horiz-adv-x="538" d="M522 -82h-119l-401 1479h119z"/>
<glyph unicode="]" horiz-adv-x="518" d="M63 1405h304v-1634h-304v108h177v1417h-177v109z"/>
<glyph unicode="^" horiz-adv-x="1220" d="M1090 387h-134l-344 795h-6l-344 -795h-131l422 944h115z"/>
<glyph unicode="_" horiz-adv-x="1024" d="M0 -154h1024v-102h-1024v102z"/>
<glyph unicode="`" horiz-adv-x="614" d="M80 1397h162l157 -277h-104z"/>
<glyph unicode="a" horiz-adv-x="745" d="M645 0h-143l-10 104h-7q-68 -120 -196 -120q-101 0 -168.5 78t-67.5 204q0 72 22.5 132t61.5 101.5t93 70.5t115.5 42.5t129.5 14.5v30q0 109 -35 167.5t-123 58.5q-84 0 -163 -52l-35 111q34 26 98 46t133 20q285 0 285 -355v-428q0 -162 10 -225zM479 311v201 q-22 0 -41.5 -1.5t-48 -6.5t-52 -14t-49 -26.5t-42.5 -41t-28 -59.5t-11 -80q0 -89 36.5 -133t84.5 -44q54 0 94 39t53 111q4 18 4 55z"/>
<glyph unicode="b" horiz-adv-x="817" d="M236 0h-136q1 18 3.5 68t4 95t1.5 75v1179h157v-543h4q70 134 209 134q119 0 195 -133t76 -369q0 -253 -88 -387.5t-213 -134.5q-73 0 -119 37.5t-78 107.5h-6zM266 627v-277q0 -45 6 -61q25 -98 65.5 -136t82.5 -38q46 0 80 29.5t53.5 83.5t29 121t9.5 149 q0 78 -9.5 143t-29.5 118t-54.5 83t-80.5 30q-53 0 -95.5 -54.5t-52.5 -121.5q-4 -23 -4 -69z"/>
<glyph unicode="c" horiz-adv-x="618" d="M573 145l21 -120q-65 -37 -164 -37q-166 0 -264 130t-98 371q0 144 45 260t135.5 186.5t210.5 70.5q83 0 139 -31l-31 -129q-52 26 -112 26q-75 0 -129 -56t-77.5 -140.5t-23.5 -186.5q0 -173 62.5 -271.5t171.5 -98.5q54 0 114 26z"/>
<glyph unicode="d" horiz-adv-x="817" d="M551 1417h156v-1179q0 -10 8 -238h-135l-11 125h-6q-28 -60 -81 -100.5t-126 -40.5q-129 0 -208.5 134.5t-79.5 373.5q0 249 87 382.5t212 133.5q57 0 104.5 -29.5t75.5 -89.5h4v528zM551 350v264q0 43 -2 66q-8 78 -50 135t-98 57q-47 0 -82.5 -31t-55 -85t-29 -120 t-9.5 -144q0 -166 43 -271.5t125 -105.5q110 0 152 170q6 27 6 65z"/>
<glyph unicode="e" horiz-adv-x="743" d="M682 481h-461q2 -368 236 -368q98 0 164 39l24 -117q-83 -47 -217 -47q-175 0 -267.5 132.5t-92.5 364.5q0 240 91.5 381.5t241.5 141.5q73 0 129 -36.5t89 -99t49 -139t16 -164.5q0 -63 -2 -88zM223 598h309q3 140 -40.5 213.5t-106.5 73.5q-71 0 -114 -87t-48 -200z "/>
<glyph unicode="f" horiz-adv-x="466" d="M301 0h-158v870h-125v121h125v60q0 199 88 299q76 84 199 84q71 0 123 -25l-27 -123q-38 17 -86 17q-139 0 -139 -250v-62h180v-121h-180v-870z"/>
<glyph unicode="g" horiz-adv-x="817" d="M575 991h142q-8 -280 -8 -309v-555q0 -187 -23.5 -280t-75.5 -150q-93 -107 -264 -107q-129 0 -217 50l37 122q84 -43 184 -43q99 0 151 71t52 233v100h-4q-26 -58 -76.5 -89.5t-114.5 -31.5q-131 0 -210.5 135.5t-79.5 354.5q0 131 28 233.5t73.5 162t99 90t110.5 30.5 q121 0 184 -129h4zM553 362v287q0 45 -8 72q-40 151 -144 151q-84 0 -130 -101.5t-46 -270.5q0 -181 49.5 -275t126.5 -94q103 0 142 141q10 39 10 90z"/>
<glyph unicode="h" horiz-adv-x="829" d="M111 0v1417h157v-532h4q30 52 82 86q60 37 133 37q102 0 167 -87t65 -264v-657h-158v639q0 235 -133 235q-56 0 -95.5 -40t-58.5 -117q-6 -34 -6 -76v-641h-157z"/>
<glyph unicode="i" horiz-adv-x="376" d="M268 0h-157v991h157v-991zM186 1350q43 0 69 -28.5t26 -74.5q1 -46 -26 -74t-71 -28q-39 0 -64.5 28.5t-25.5 73.5t26.5 74t65.5 29z"/>
<glyph unicode="j" horiz-adv-x="385" d="M-37 -410l-20 125q98 26 133 78q26 40 36.5 108t10.5 208v882h158v-928q0 -153 -23.5 -237t-77.5 -141q-41 -43 -103.5 -68t-113.5 -27zM203 1350q41 0 66.5 -28.5t25.5 -74.5t-26 -74t-70 -28q-39 0 -65 28.5t-25 73.5q-1 45 25.5 74t68.5 29z"/>
<glyph unicode="k" d="M266 1417v-887h4q36 78 54 111l196 350h170l-262 -418l285 -573h-176l-215 467l-56 -92v-375h-157v1417h157z"/>
<glyph unicode="l" horiz-adv-x="391" d="M111 0v1417h157v-1417h-157z"/>
<glyph unicode="m" horiz-adv-x="1269" d="M111 0v735q0 68 -4 151.5t-5 104.5h138l8 -123h4q34 64 91 102t132 38q72 0 126 -37.5t81 -114.5h4q41 75 98 113q56 39 138 39q107 0 172 -86t65 -265v-657h-155v621q0 55 -5 95t-19 78.5t-43.5 59t-72.5 20.5q-50 0 -89 -39t-56 -108q-6 -41 -6 -90v-637h-156v649 q0 47 -5.5 83t-19 70.5t-42 53t-70.5 18.5q-50 0 -92.5 -42.5t-55.5 -116.5q-6 -41 -6 -86v-629h-155z"/>
<glyph unicode="n" horiz-adv-x="829" d="M111 0v735q0 68 -4 151.5t-5 104.5h138l8 -119h4q33 62 92 99t135 37q109 0 174.5 -85t65.5 -257v-666h-158v639q0 235 -137 235q-52 0 -94 -42t-56 -119q-6 -38 -6 -88v-625h-157z"/>
<glyph unicode="o" horiz-adv-x="784" d="M399 1008q140 0 230 -132t90 -380q0 -111 -20 -200t-52.5 -146t-76 -95.5t-88.5 -54.5t-93 -16q-141 0 -231 130t-90 380q0 131 27.5 232.5t74.5 161.5t105 90t124 30zM393 881q-50 0 -85.5 -37.5t-52 -99.5t-23.5 -122t-7 -126q0 -54 4 -103.5t15.5 -103t30 -92 t50 -63.5t72.5 -25q48 0 82 37.5t50 99.5t23 123t7 127t-7 126t-23.5 122t-51.5 99.5t-84 37.5z"/>
<glyph unicode="p" horiz-adv-x="817" d="M109 -393v1075q0 68 -1.5 126.5t-4 110.5t-3.5 72h142l8 -127h4q72 144 209 144q131 0 209 -134.5t78 -375.5q0 -133 -26 -234.5t-70 -161t-97.5 -89t-114.5 -29.5q-116 0 -172 114h-4v-491h-157zM266 616v-251q0 -59 6 -82q21 -94 62 -131t84 -37q47 0 81.5 30.5 t54 85.5t28 120t8.5 145q0 107 -17 189t-57 134.5t-100 52.5q-52 0 -95 -55t-51 -125q-4 -25 -4 -76z"/>
<glyph unicode="q" horiz-adv-x="817" d="M551 -393v495h-6q-26 -53 -76 -85.5t-115 -32.5q-125 0 -205.5 131.5t-80.5 367.5q0 250 90 387.5t221 137.5q124 0 184 -131l4 -3l8 117h142q-8 -140 -8 -309v-1075h-158zM551 365v256q0 47 -4 65q-9 78 -50.5 132t-93.5 54q-91 0 -134.5 -105t-43.5 -275 q0 -108 18 -191t58 -134.5t98 -51.5q104 0 144 166q8 25 8 84z"/>
<glyph unicode="r" horiz-adv-x="507" d="M109 0v735q0 49 -4 142.5t-5 113.5h142l8 -155h4q26 73 84 122.5t125 49.5q6 0 17 -1t16 -1v-162q-10 2 -33 2q-73 0 -126 -59t-65 -148q-6 -41 -6 -90v-549h-157z"/>
<glyph unicode="s" horiz-adv-x="591" d="M45 45l39 119q78 -51 160 -51q67 0 106 38.5t39 104.5q0 59 -27 102t-100 93q-101 66 -150 132.5t-49 149.5q0 119 78.5 197t194.5 78q93 0 178 -52l-43 -118q-64 43 -131 43q-61 0 -95 -37t-34 -88t25 -86t98 -86q97 -62 151 -134t54 -167q0 -143 -84 -219t-213 -76 q-56 0 -110.5 15.5t-86.5 41.5z"/>
<glyph unicode="t" horiz-adv-x="522" d="M145 1208l158 45v-262h191v-121h-191v-587q0 -164 105 -164q36 0 63 6l6 -121q-46 -16 -117 -16q-101 0 -155 59q-60 69 -60 250v573h-120v121h120v217z"/>
<glyph unicode="u" horiz-adv-x="815" d="M705 991v-721q0 -66 4 -167t4 -103h-138l-10 104h-4q-29 -46 -85 -83t-128 -37q-127 0 -184.5 95.5t-57.5 285.5v626h158v-604q0 -63 5.5 -109t20 -84t41 -57.5t66.5 -19.5q61 0 97.5 43t44.5 88q8 36 8 90v653h158z"/>
<glyph unicode="v" horiz-adv-x="710" d="M27 991h163l125 -557q29 -141 43 -241h7q7 55 41 241l122 557h156l-258 -991h-141z"/>
<glyph unicode="w" horiz-adv-x="1159" d="M27 991h163l97 -485q6 -34 18 -100.5t21 -118.5t14 -97h8q18 133 62 312l114 489h121l109 -475q44 -197 63 -326h8q15 126 54 320l94 481h157l-249 -991h-129l-115 481q-28 109 -55 297h-4q-20 -150 -58 -303l-119 -475h-133z"/>
<glyph unicode="x" horiz-adv-x="696" d="M29 991h170l92 -213q14 -32 35.5 -93t29.5 -81h4q14 37 38 100.5t28 73.5l90 213h162l-236 -489l234 -502h-172l-94 223q-13 29 -66 170h-4q-14 -40 -66 -170l-92 -223h-159l235 498z"/>
<glyph unicode="y" horiz-adv-x="708" d="M27 991h166l131 -569q5 -20 41 -205h4q9 52 43 203l116 571h156l-162 -637q-55 -226 -110.5 -381.5t-135.5 -257.5q-87 -109 -178 -151l-57 135q72 40 139 125q58 72 90 166q11 34 11 49q0 22 -5 37z"/>
<glyph unicode="z" horiz-adv-x="641" d="M33 0v96l313 613q12 22 40 72.5t40 74.5v4h-354v131h528v-104l-309 -604q-11 -21 -39 -72t-41 -76v-4h389v-131h-567z"/>
<glyph unicode="{" horiz-adv-x="518" d="M59 537v102q77 0 108.5 41t31.5 102q0 50 -13 174q-12 122 -12 181q0 132 71 197t187 65h25v-107h-31q-121 0 -121 -153q0 -58 12 -156q11 -146 11 -152q1 -113 -34.5 -166t-107.5 -73v-4q72 -22 107.5 -76t34.5 -168q0 -14 -11 -154q-12 -102 -12 -157q0 -156 123 -156 h29v-106h-27q-53 0 -97.5 14t-81 43.5t-57 81.5t-20.5 123q0 64 12 182q13 128 13 176q0 60 -31.5 103t-108.5 43z"/>
<glyph unicode="|" horiz-adv-x="411" d="M141 1536h129v-2048h-129v2048z"/>
<glyph unicode="}" horiz-adv-x="518" d="M459 639v-102q-77 0 -108.5 -43t-31.5 -103q0 -48 13 -176q12 -118 12 -182q0 -71 -20.5 -123t-57 -81.5t-81 -43.5t-97.5 -14h-27v106h29q67 7 95 45.5t28 110.5q0 30 -10 157q-13 110 -13 154q-1 114 34.5 168t107.5 76v4q-72 20 -107.5 73t-34.5 166q0 37 13 152 q10 123 10 156q0 70 -29 108t-92 45h-31v107h25q116 0 187 -65t71 -197q0 -59 -12 -181q-13 -124 -13 -174q0 -61 31.5 -102t108.5 -41z"/>
<glyph unicode="~" horiz-adv-x="1220" d="M260 453h-110q-4 130 58.5 202t166.5 72q98 0 264 -86q155 -82 227 -82q51 0 75 44t22 116h110q7 -135 -50 -206t-161 -71q-58 0 -116.5 18t-147.5 64q-84 45 -138.5 66.5t-97.5 21.5q-105 0 -102 -159z"/>
<glyph unicode="¡" horiz-adv-x="417" d="M297 -393h-174l20 987h131zM209 1004q46 0 73 -31t27 -82q0 -50 -26.5 -80.5t-73.5 -30.5q-43 0 -71.5 31t-28.5 80q0 50 28.5 81.5t71.5 31.5z"/>
<glyph unicode="¢" horiz-adv-x="788" d="M518 -12h-112v198q-103 20 -177 105q-102 124 -102 381q0 182 75.5 311t205.5 158v192h112v-182q86 -4 137 -37l-28 -125q-66 37 -142 37q-55 0 -96 -33.5t-63 -89.5t-32.5 -117t-10.5 -127q0 -164 56 -258t157 -94q79 0 147 35l21 -119q-56 -35 -148 -41v-194z"/>
<glyph unicode="£" horiz-adv-x="788" d="M723 0h-660v100q71 29 133 137.5t62 219.5q0 91 -12 168h-168v112h151q-28 128 -28 238q0 171 91.5 272t225.5 101q96 0 160 -41l-35 -127q-53 34 -125 34q-82 0 -123 -63t-41 -154q0 -102 27 -260h215v-112h-199q17 -150 -8 -258q-34 -136 -129 -228v-4h463v-135z"/>
<glyph unicode="¤" horiz-adv-x="788" d="M395 1083q53 0 106.5 -23t88.5 -61l125 148l82 -82l-150 -150q49 -101 49 -241q0 -145 -49 -240l148 -153l-80 -82l-129 149q-36 -39 -90.5 -62.5t-104.5 -23.5q-51 0 -104 23t-86 61l-125 -147l-82 82l145 147q-51 102 -51 242q0 138 55 245l-151 148l84 86l127 -152 q35 39 87.5 62.5t104.5 23.5zM395 963q-79 0 -123.5 -78t-44.5 -215q0 -127 46 -207t120 -80q77 0 120.5 78.5t43.5 210.5q0 128 -43 209.5t-119 81.5z"/>
<glyph unicode="¥" horiz-adv-x="788" d="M459 0h-146v383h-256v94h256v152h-256v94h217l-243 608h157l138 -391q51 -148 69 -209h4q30 110 68 211l143 389h150l-262 -608h223v-94h-262v-152h262v-94h-262v-383z"/>
<glyph unicode="¦" horiz-adv-x="411" d="M141 356h129v-716h-129v716zM141 1380h129v-716h-129v716z"/>
<glyph unicode="§" horiz-adv-x="821" d="M188 725q0 -105 164 -180q147 -72 201 -115q39 24 60.5 68.5t21.5 93.5q0 114 -141 184q-6 3 -29 13.5t-32.5 14.5t-30.5 14t-33 16.5t-29 16t-31.5 18.5t-27.5 18q-93 -63 -93 -162zM670 1343l-37 -106q-71 49 -178 49q-74 0 -129.5 -37t-55.5 -112q0 -32 12 -59 t26.5 -44t47.5 -36.5t52.5 -29t64.5 -28.5q65 -27 109 -52.5t87.5 -63.5t65 -90t21.5 -118q0 -77 -30 -135.5t-91 -111.5q26 -26 46.5 -71.5t20.5 -102.5q0 -144 -94.5 -220.5t-236.5 -76.5q-77 0 -147.5 19t-110.5 50l39 111q99 -70 223 -70q82 0 137 41t55 121 q0 69 -47.5 115.5t-167.5 103.5q-71 33 -116.5 60.5t-88.5 65.5t-63.5 85.5t-20.5 106.5q0 132 142 241q-69 62 -72 166q0 131 97 207t233 76q127 0 207 -54z"/>
<glyph unicode="¨" horiz-adv-x="614" d="M150 1159q-39 0 -66 26t-27 64q0 39 27 65.5t66 26.5q37 0 61.5 -25.5t24.5 -66.5q0 -38 -24.5 -64t-61.5 -26zM467 1159q-38 0 -64 26t-26 64q0 39 26.5 65.5t63.5 26.5t62.5 -25.5t25.5 -66.5q0 -38 -25 -64t-63 -26z"/>
<glyph unicode="©" horiz-adv-x="1386" d="M696 1327q129 0 244.5 -50t198.5 -134.5t131.5 -201.5t48.5 -245q0 -174 -82 -319.5t-225.5 -230.5t-315.5 -85q-173 0 -317.5 85t-227.5 230.5t-83 319.5q0 128 49 245t132.5 201.5t200 134.5t246.5 50zM696 1243q-147 0 -268 -73t-189.5 -200t-68.5 -280 q0 -113 40.5 -213.5t110 -173.5t167.5 -115.5t208 -42.5q144 0 264 72.5t188.5 199t68.5 279.5q0 150 -68.5 276t-188.5 198.5t-264 72.5zM971 1014l-25 -82q-93 45 -198 45q-137 0 -212 -80t-75 -207q0 -126 76 -207.5t211 -81.5q114 0 204 48l25 -76q-100 -60 -250 -60 q-170 0 -271.5 106t-101.5 265q0 171 114.5 276t281.5 105q70 0 132.5 -16.5t88.5 -34.5z"/>
<glyph unicode="ª" horiz-adv-x="559" d="M498 539h-99l-10 71h-4q-51 -82 -156 -82q-72 0 -123 52t-51 137q0 118 92 178.5t232 60.5v23q0 59 -30.5 94t-92.5 35q-72 0 -131 -43l-27 84q75 55 178 55q105 0 159 -64t54 -182v-268q0 -84 9 -151zM381 729v141q-30 0 -59 -4t-67.5 -16.5t-62.5 -43t-24 -75.5 q0 -52 29 -80t67 -28q64 0 101 61q16 24 16 45z"/>
<glyph unicode="«" d="M389 872l-213 -356l213 -356h-129l-209 356l211 356h127zM682 872l-213 -356l213 -356h-129l-211 356l213 356h127z"/>
<glyph unicode="¬" horiz-adv-x="1220" d="M82 815h1057v-569h-115v456h-942v113z"/>
<glyph unicode="­" horiz-adv-x="595" d="M61 596h449v-123h-449v123z"/>
<glyph unicode="®" horiz-adv-x="761" d="M330 1038v-127h-68v318q54 12 115 12q67 0 106 -27q33 -22 33 -67q0 -27 -19 -46.5t-48 -29.5v-4q24 -7 36.5 -25.5t20.5 -52.5q14 -64 22 -78h-71q-12 14 -25 78q-9 49 -67 49h-35zM332 1182v-90h35q73 0 73 45q0 49 -67 49q-25 0 -41 -4zM381 1397q135 0 228 -93 t93 -227q0 -135 -93 -228t-228 -93q-134 0 -228 93t-94 228q0 133 94 226.5t228 93.5zM381 1331q-103 0 -173.5 -74.5t-70.5 -179.5q0 -108 70 -182t174 -74t173 74t69 182q0 105 -69.5 179.5t-172.5 74.5z"/>
<glyph unicode="¯" horiz-adv-x="614" d="M106 1292h404v-102h-404v102z"/>
<glyph unicode="°" horiz-adv-x="573" d="M309 1397q106 0 178 -76t72 -186q0 -114 -76 -189.5t-176 -75.5q-106 0 -178 75t-72 185q0 111 75 189t177 78zM309 1313q-65 0 -110 -53.5t-45 -129.5q0 -74 44.5 -125t110.5 -51q65 0 109.5 52t44.5 127q0 74 -43.5 127t-110.5 53z"/>
<glyph unicode="±" horiz-adv-x="1220" d="M553 1161h115v-397h471v-113h-471v-411h-115v411h-471v113h471v397zM82 113h1057v-113h-1057v113z"/>
<glyph unicode="²" horiz-adv-x="501" d="M4 854v59l84 103q119 148 159 214q68 111 68 193q0 67 -33 100t-89 33q-68 0 -136 -55l-32 90q30 30 83 51t117 21q111 0 166 -62t55 -157q0 -52 -18.5 -107.5t-53.5 -111t-64.5 -94.5t-73.5 -91l-62 -75v-4h287v-107h-457z"/>
<glyph unicode="³" horiz-adv-x="481" d="M61 1522l-26 88q77 53 180 53q98 0 152.5 -53t54.5 -133q0 -60 -34.5 -108.5t-96.5 -74.5v-4q62 -13 108.5 -66.5t46.5 -133.5q0 -107 -75 -176.5t-203 -69.5q-95 0 -166 43l27 96q69 -41 143 -41q64 0 104.5 38t40.5 105q0 76 -47 116t-133 40h-16v86h14q54 0 108 35 t54 96q0 51 -29 79t-78 28q-67 0 -129 -43z"/>
<glyph unicode="´" horiz-adv-x="614" d="M385 1397h162l-215 -277h-105z"/>
<glyph unicode="µ" horiz-adv-x="817" d="M575 102h-4q-21 -39 -68.5 -73.5t-103.5 -34.5q-98 0 -139 74v-146q0 -207 19 -315h-144q-26 80 -26 299v1085h157v-653q0 -223 131 -223q44 0 77.5 24.5t48 52t20.5 56.5q8 33 8 90v653h156v-778q0 -57 14 -84.5t49 -26.5l-16 -112q-21 -6 -52 -6q-103 0 -127 118z"/>
<glyph unicode="¶" horiz-adv-x="821" d="M477 -102h-102v663h-13q-33 0 -72 14.5t-79.5 46.5t-74 76t-54.5 109t-21 139q0 87 26.5 162.5t79 137.5t143 98t208.5 36q90 0 182 -12v-1470h-102v1380h-121v-1380z"/>
<glyph unicode="·" horiz-adv-x="397" d="M199 414q-44 0 -74.5 32t-30.5 84q0 50 31.5 83.5t73.5 33.5q46 0 75 -32t29 -85q0 -54 -28 -85t-76 -31z"/>
<glyph unicode="¸" horiz-adv-x="614" d="M295 10h98l-57 -112q54 -8 93.5 -49t39.5 -97q0 -81 -55 -121.5t-131 -40.5q-70 0 -138 37l33 86q50 -30 103 -30q73 0 73 61q0 76 -141 90z"/>
<glyph unicode="¹" horiz-adv-x="434" d="M322 854h-123v682h-4l-150 -80l-22 98l194 99h105v-799z"/>
<glyph unicode="º" horiz-adv-x="618" d="M313 1204q112 0 173 -85.5t61 -250.5q0 -90 -20.5 -158t-56 -106.5t-76.5 -57t-87 -18.5q-105 0 -171 87t-66 251q0 162 70 250t173 88zM307 1112q-42 0 -70.5 -42.5t-38.5 -95.5t-10 -108q0 -97 29.5 -171t89.5 -74q36 0 61.5 22.5t37.5 61.5t17 77.5t5 83.5q0 44 -5 83 t-17.5 78t-37.5 62t-61 23z"/>
<glyph unicode="»" d="M256 516l-213 356h127l211 -356l-207 -356h-131zM549 516l-213 356h127l211 -356l-209 -356h-129z"/>
<glyph unicode="¼" horiz-adv-x="1255" d="M362 539h-122v682h-4l-152 -80l-21 98l193 98h106v-798zM319 -16h-100l696 1364h101zM1100 0h-117v217h-301v74l295 514h123v-492h94v-96h-94v-217zM983 313v205q0 10 8 150h-4q-11 -21 -32 -67t-37 -75l-113 -209v-4h178z"/>
<glyph unicode="½" horiz-adv-x="1255" d="M330 539h-123v682h-4l-150 -80l-22 98l194 98h105v-798zM270 -16h-100l696 1364h101zM727 0v59l84 103q119 148 159 214q68 111 68 193q0 67 -33 100t-90 33q-67 0 -135 -55l-32 90q30 30 83 51t117 21q111 0 166 -62t55 -157q0 -68 -36 -148t-76 -133.5t-99 -122.5 l-61 -75v-5h287v-106h-457z"/>
<glyph unicode="¾" horiz-adv-x="1255" d="M117 1206l-27 88q78 54 180 54q97 0 152 -53.5t55 -133.5q0 -60 -34.5 -108t-96.5 -74v-4q62 -13 109 -67t47 -134q0 -107 -75.5 -176.5t-201.5 -69.5q-97 0 -168 43l27 97q69 -41 143 -41q64 0 105 38t41 105q0 76 -47 116t-133 40h-17v86h14q55 2 108.5 36t53.5 95 q0 51 -28.5 78.5t-77.5 27.5q-67 0 -129 -43zM354 -16h-100l696 1364h101zM1104 0h-115v217h-301v74l295 514h121v-492h96v-96h-96v-217zM989 313v205q0 80 8 150h-4q-9 -17 -31.5 -64.5t-39.5 -77.5l-113 -209v-4h180z"/>
<glyph unicode="¿" horiz-adv-x="632" d="M358 1004q46 0 74.5 -31.5t28.5 -83.5q0 -50 -28 -82.5t-73 -32.5q-47 0 -75.5 32.5t-28.5 82.5q0 52 28 83.5t74 31.5zM279 602h141l4 -31q28 -190 -86 -381q-8 -13 -32.5 -53.5t-31 -52t-22.5 -42.5t-20.5 -48.5t-9.5 -44.5t-5 -55q0 -83 43 -122.5t115 -39.5 q74 0 135 37l35 -121q-28 -21 -85 -37.5t-120 -16.5q-74 0 -130.5 23t-89.5 62.5t-49 88.5t-16 105q0 44 8.5 84t27.5 81t33.5 67t43.5 73t41 66q50 86 66.5 155.5t5.5 167.5z"/>
<glyph unicode="À" horiz-adv-x="890" d="M594 414h-305l-92 -414h-152l315 1380h175l307 -1380h-156zM311 541h262l-71 350q-28 140 -56 315h-8q-24 -159 -55 -315zM178 1675h184l195 -221h-125z"/>
<glyph unicode="Á" horiz-adv-x="890" d="M594 414h-305l-92 -414h-152l315 1380h175l307 -1380h-156zM311 541h262l-71 350q-28 140 -56 315h-8q-24 -159 -55 -315zM539 1675h186l-254 -221h-125z"/>
<glyph unicode="Â" horiz-adv-x="890" d="M594 414h-305l-92 -414h-152l315 1380h175l307 -1380h-156zM311 541h262l-71 350q-28 140 -56 315h-8q-24 -159 -55 -315zM381 1655h135l178 -201h-137l-106 113h-5l-106 -113h-135z"/>
<glyph unicode="Ã" horiz-adv-x="890" d="M594 414h-305l-92 -414h-152l315 1380h175l307 -1380h-156zM311 541h262l-71 350q-28 140 -56 315h-8q-24 -159 -55 -315zM319 1470h-86q0 88 32.5 140.5t90.5 52.5q38 0 97 -35q8 -4 21.5 -13t20.5 -13t17 -7.5t20 -3.5q26 0 39 16.5t17 57.5h82q3 -184 -127 -184 q-42 0 -101 35q-51 34 -73 34q-24 0 -35.5 -19.5t-14.5 -60.5z"/>
<glyph unicode="Ä" horiz-adv-x="890" d="M594 414h-305l-92 -414h-152l315 1380h175l307 -1380h-156zM311 541h262l-71 350q-28 140 -56 315h-8q-24 -159 -55 -315zM287 1470q-39 0 -63.5 26.5t-24.5 68.5q0 41 25 68.5t63 27.5q39 0 63.5 -27t24.5 -69q0 -43 -24 -69t-64 -26zM618 1470q-39 0 -64.5 26.5 t-25.5 68.5q0 41 26 68.5t64 27.5t62.5 -27.5t24.5 -68.5q0 -43 -24.5 -69t-62.5 -26z"/>
<glyph unicode="Å" horiz-adv-x="890" d="M594 414h-305l-92 -414h-152l315 1380h175l307 -1380h-156zM311 541h262l-71 350q-28 140 -56 315h-8q-24 -159 -55 -315zM453 1784q88 0 139 -51.5t51 -128.5q0 -74 -53 -126.5t-137 -52.5q-88 0 -140.5 51.5t-52.5 125.5q0 75 53.5 128.5t139.5 53.5zM451 1710 q-43 0 -68 -32t-25 -76q0 -38 26 -69.5t67 -31.5q43 0 68.5 31t25.5 74t-25.5 73.5t-68.5 30.5z"/>
<glyph unicode="Æ" horiz-adv-x="1138" d="M170 0h-154l416 1380h623v-137h-381l26 -463h351v-133h-338l28 -510h367v-137h-508l-27 455h-274zM332 582h229l-18 419q-2 51 -7 147t-6 122h-10q-71 -262 -80 -293z"/>
<glyph unicode="Ç" horiz-adv-x="811" d="M700 158l25 -133q-65 -35 -168 -35l-45 -90q54 -8 93.5 -49t39.5 -99q0 -80 -55 -120t-131 -40q-77 0 -137 37l32 84q51 -28 103 -28q73 0 73 61q0 39 -39.5 61t-101.5 29l74 158q-184 26 -290.5 195t-106.5 485q0 157 30 283.5t78.5 206t113.5 132.5t130.5 75t134.5 22 q116 0 172 -35l-35 -133q-66 28 -139 28q-46 0 -90 -17.5t-86 -60t-73.5 -105.5t-51 -161.5t-19.5 -220.5q0 -123 18 -220t47.5 -160t72 -104.5t88.5 -59t98 -17.5q81 0 145 31z"/>
<glyph unicode="È" d="M627 788v-133h-346v-518h393v-137h-551v1380h526v-137h-368v-455h346zM115 1675h186l193 -221h-125z"/>
<glyph unicode="É" d="M627 788v-133h-346v-518h393v-137h-551v1380h526v-137h-368v-455h346zM504 1675h186l-254 -221h-125z"/>
<glyph unicode="Ê" d="M627 788v-133h-346v-518h393v-137h-551v1380h526v-137h-368v-455h346zM319 1655h136l178 -201h-137l-107 113h-4l-106 -113h-136z"/>
<glyph unicode="Ë" d="M627 788v-133h-346v-518h393v-137h-551v1380h526v-137h-368v-455h346zM223 1485q-39 0 -63.5 26t-24.5 68q0 41 25.5 68.5t62.5 27.5q39 0 63.5 -27t24.5 -69q0 -43 -24 -68.5t-64 -25.5zM555 1485q-39 0 -63.5 26t-24.5 68q0 41 25 68.5t63 27.5q39 0 63.5 -27t24.5 -69 q0 -43 -24 -68.5t-64 -25.5z"/>
<glyph unicode="Ì" horiz-adv-x="407" d="M123 1380h158v-1380h-158v1380zM-84 1675h186l195 -221h-125z"/>
<glyph unicode="Í" horiz-adv-x="407" d="M123 1380h158v-1380h-158v1380zM291 1675h184l-254 -221h-125z"/>
<glyph unicode="Î" horiz-adv-x="407" d="M123 1380h158v-1380h-158v1380zM135 1655h137l179 -201h-140l-106 113h-4l-105 -113h-137z"/>
<glyph unicode="Ï" horiz-adv-x="407" d="M123 1380h158v-1380h-158v1380zM39 1485q-39 0 -63.5 26t-24.5 68q0 41 25.5 68.5t62.5 27.5q39 0 63.5 -27t24.5 -69q0 -43 -24 -68.5t-64 -25.5zM371 1485q-39 0 -64.5 26t-25.5 68q0 41 26 68.5t64 27.5q39 0 63.5 -27t24.5 -69q0 -43 -24 -68.5t-64 -25.5z"/>
<glyph unicode="Ð" horiz-adv-x="927" d="M0 662v116h141v582q85 26 211 26q208 0 324 -104q186 -157 186 -563q0 -407 -166 -584q-129 -147 -379 -147q-113 0 -176 14v660h-141zM506 778v-116h-209v-539q25 -4 61 -4q55 0 102 16.5t92.5 59t77 108.5t51 172.5t19.5 243.5q0 538 -329 538q-28 0 -74 -8v-471h209z "/>
<glyph unicode="Ñ" horiz-adv-x="952" d="M266 0h-143v1380h149l254 -647q132 -340 176 -481h5q-19 344 -19 635v493h141v-1380h-149l-262 664q-109 274 -164 469h-4q16 -245 16 -656v-477zM348 1470h-84q-2 87 31 140t90 53q10 0 20 -2t16.5 -3.5t17.5 -6.5t14.5 -6.5t15.5 -8.5t14 -8q4 -3 16 -10.5t17.5 -10.5 t14.5 -7.5t16.5 -6.5t15.5 -2q25 0 38 16.5t17 57.5h82q3 -184 -127 -184q-41 0 -100 35q-3 2 -11.5 7.5t-12 7.5l-10.5 6t-11 5.5t-10 3.5t-11 3t-10 1q-22 0 -33 -19t-16 -61z"/>
<glyph unicode="Ò" horiz-adv-x="913" d="M471 1397q177 0 277 -184t100 -513q0 -152 -20.5 -273t-56 -203t-86.5 -136.5t-109.5 -79t-126.5 -24.5q-176 0 -279.5 183.5t-103.5 524.5q0 336 110 520.5t295 184.5zM457 1257q-62 0 -108 -48t-71 -131t-37 -179.5t-12 -208.5q0 -113 12 -210t37.5 -179.5t71.5 -130 t109 -47.5q64 0 110 50t70 136t34.5 180.5t10.5 204.5q0 106 -10.5 198.5t-35 178.5t-71 136t-110.5 50zM176 1675h186l193 -221h-123z"/>
<glyph unicode="Ó" horiz-adv-x="913" d="M471 1397q177 0 277 -184t100 -513q0 -152 -20.5 -273t-56 -203t-86.5 -136.5t-109.5 -79t-126.5 -24.5q-176 0 -279.5 183.5t-103.5 524.5q0 336 110 520.5t295 184.5zM457 1257q-62 0 -108 -48t-71 -131t-37 -179.5t-12 -208.5q0 -113 12 -210t37.5 -179.5t71.5 -130 t109 -47.5q64 0 110 50t70 136t34.5 180.5t10.5 204.5q0 106 -10.5 198.5t-35 178.5t-71 136t-110.5 50zM551 1675h186l-254 -221h-125z"/>
<glyph unicode="Ô" horiz-adv-x="913" d="M471 1397q177 0 277 -184t100 -513q0 -152 -20.5 -273t-56 -203t-86.5 -136.5t-109.5 -79t-126.5 -24.5q-176 0 -279.5 183.5t-103.5 524.5q0 336 110 520.5t295 184.5zM457 1257q-62 0 -108 -48t-71 -131t-37 -179.5t-12 -208.5q0 -113 12 -210t37.5 -179.5t71.5 -130 t109 -47.5q64 0 110 50t70 136t34.5 180.5t10.5 204.5q0 106 -10.5 198.5t-35 178.5t-71 136t-110.5 50zM389 1655h137l179 -201h-138l-106 113h-4l-107 -113h-135z"/>
<glyph unicode="Õ" horiz-adv-x="913" d="M471 1397q177 0 277 -184t100 -513q0 -152 -20.5 -273t-56 -203t-86.5 -136.5t-109.5 -79t-126.5 -24.5q-176 0 -279.5 183.5t-103.5 524.5q0 336 110 520.5t295 184.5zM457 1257q-62 0 -108 -48t-71 -131t-37 -179.5t-12 -208.5q0 -113 12 -210t37.5 -179.5t71.5 -130 t109 -47.5q64 0 110 50t70 136t34.5 180.5t10.5 204.5q0 106 -10.5 198.5t-35 178.5t-71 136t-110.5 50zM322 1466h-84q-2 87 31 140t91 53q38 0 97 -35q7 -4 21 -13t21 -13t17.5 -7.5t20.5 -3.5q25 0 38 17t17 59h82q3 -184 -127 -184q-50 0 -101 34q-7 4 -20 11.5 t-19.5 11t-16 7t-17.5 3.5q-24 0 -35 -19t-16 -61z"/>
<glyph unicode="Ö" horiz-adv-x="913" d="M471 1397q177 0 277 -184t100 -513q0 -152 -20.5 -273t-56 -203t-86.5 -136.5t-109.5 -79t-126.5 -24.5q-176 0 -279.5 183.5t-103.5 524.5q0 336 110 520.5t295 184.5zM457 1257q-62 0 -108 -48t-71 -131t-37 -179.5t-12 -208.5q0 -113 12 -210t37.5 -179.5t71.5 -130 t109 -47.5q64 0 110 50t70 136t34.5 180.5t10.5 204.5q0 106 -10.5 198.5t-35 178.5t-71 136t-110.5 50zM291 1485q-39 0 -63.5 26t-24.5 68q0 41 25 68.5t63 27.5q39 0 63.5 -27t24.5 -69q0 -43 -24 -68.5t-64 -25.5zM621 1485q-38 0 -63.5 26t-25.5 68q0 41 26 68.5 t63 27.5q39 0 63.5 -27t24.5 -69q0 -43 -24 -68.5t-64 -25.5z"/>
<glyph unicode="×" horiz-adv-x="1220" d="M82 995l76 82l450 -461l455 461l76 -82l-451 -458l449 -453l-78 -84l-449 459l-450 -459l-78 84l448 455z"/>
<glyph unicode="Ø" horiz-adv-x="913" d="M176 -76l-88 47l86 195q-108 182 -108 526q0 336 108 520.5t285 184.5q120 0 207 -84l61 143l94 -41l-82 -186q109 -184 109 -527q0 -188 -30.5 -329t-85.5 -224.5t-123.5 -124t-151.5 -40.5q-128 0 -211 92zM264 352l336 815q-59 90 -143 90q-63 0 -110 -48 t-73.5 -130.5t-39.5 -179.5t-13 -207q0 -212 39 -340h4zM649 1038l-344 -813q55 -102 152 -102q64 0 111 48.5t72.5 132.5t37.5 181t12 209q0 211 -37 344h-4z"/>
<glyph unicode="Ù" horiz-adv-x="935" d="M121 1380h158v-925q0 -332 188 -332q190 0 190 332v925h158v-901q0 -256 -94.5 -375.5t-257.5 -119.5q-342 0 -342 477v919zM176 1675h186l195 -221h-125z"/>
<glyph unicode="Ú" horiz-adv-x="935" d="M121 1380h158v-925q0 -332 188 -332q190 0 190 332v925h158v-901q0 -256 -94.5 -375.5t-257.5 -119.5q-342 0 -342 477v919zM567 1675h187l-254 -221h-125z"/>
<glyph unicode="Û" horiz-adv-x="935" d="M121 1380h158v-925q0 -332 188 -332q190 0 190 332v925h158v-901q0 -256 -94.5 -375.5t-257.5 -119.5q-342 0 -342 477v919zM401 1655h136l178 -201h-137l-107 113h-4l-107 -113h-135z"/>
<glyph unicode="Ü" horiz-adv-x="935" d="M121 1380h158v-925q0 -332 188 -332q190 0 190 332v925h158v-901q0 -256 -94.5 -375.5t-257.5 -119.5q-342 0 -342 477v919zM301 1485q-38 0 -63 26t-25 68q0 41 25.5 68.5t62.5 27.5q39 0 63.5 -27t24.5 -69q0 -43 -24 -68.5t-64 -25.5zM633 1485q-39 0 -63.5 26 t-24.5 68q0 41 25 68.5t63 27.5q39 0 63.5 -27t24.5 -69q0 -43 -24 -68.5t-64 -25.5z"/>
<glyph unicode="Ý" horiz-adv-x="806" d="M481 0h-157v584l-304 796h166l123 -346q61 -167 103 -311h4q39 141 100 317l117 340h166l-318 -790v-590zM516 1675h186l-253 -221h-125z"/>
<glyph unicode="Þ" horiz-adv-x="811" d="M123 0v1380h156v-272q40 6 104 6q173 0 274 -98q101 -101 101 -275q0 -102 -33 -182t-89.5 -129t-127.5 -74.5t-152 -25.5q-42 0 -77 6v-336h-156zM279 977v-508q24 -8 71 -8q116 0 183 71t67 199q0 254 -238 254q-52 0 -83 -8z"/>
<glyph unicode="ß" horiz-adv-x="880" d="M268 0h-157v922q0 298 129 421q97 91 239 91q125 0 213 -82.5t88 -237.5q0 -45 -14.5 -91.5t-34.5 -76.5q-63 -25 -99 -68.5t-36 -97.5q0 -34 13.5 -67t29.5 -54t49 -61q70 -80 103.5 -150t33.5 -157q0 -143 -93 -225t-226 -82q-100 0 -162 30l27 123q51 -26 133 -26 q77 0 123.5 46.5t46.5 116.5q0 43 -16.5 85t-36 69.5t-54.5 69.5q-41 48 -61.5 76t-40 78t-19.5 104q0 81 45 145.5t119 99.5q19 42 19 99q0 47 -11 84t-28 58.5t-40 36t-44 19.5t-43 5q-195 0 -195 -392v-911z"/>
<glyph unicode="à" horiz-adv-x="745" d="M645 0h-143l-10 104h-7q-68 -120 -196 -120q-101 0 -168.5 78t-67.5 204q0 72 22.5 132t61.5 101.5t93 70.5t115.5 42.5t129.5 14.5v30q0 109 -35 167.5t-123 58.5q-84 0 -163 -52l-35 111q34 26 98 46t133 20q285 0 285 -355v-428q0 -162 10 -225zM479 311v201 q-22 0 -41.5 -1.5t-48 -6.5t-52 -14t-49 -26.5t-42.5 -41t-28 -59.5t-11 -80q0 -89 36.5 -133t84.5 -44q54 0 94 39t53 111q4 18 4 55zM119 1397h162l155 -277h-104z"/>
<glyph unicode="á" horiz-adv-x="745" d="M645 0h-143l-10 104h-7q-68 -120 -196 -120q-101 0 -168.5 78t-67.5 204q0 72 22.5 132t61.5 101.5t93 70.5t115.5 42.5t129.5 14.5v30q0 109 -35 167.5t-123 58.5q-84 0 -163 -52l-35 111q34 26 98 46t133 20q285 0 285 -355v-428q0 -162 10 -225zM479 311v201 q-22 0 -41.5 -1.5t-48 -6.5t-52 -14t-49 -26.5t-42.5 -41t-28 -59.5t-11 -80q0 -89 36.5 -133t84.5 -44q54 0 94 39t53 111q4 18 4 55zM446 1397h162l-215 -277h-104z"/>
<glyph unicode="â" horiz-adv-x="745" d="M645 0h-143l-10 104h-7q-68 -120 -196 -120q-101 0 -168.5 78t-67.5 204q0 72 22.5 132t61.5 101.5t93 70.5t115.5 42.5t129.5 14.5v30q0 109 -35 167.5t-123 58.5q-84 0 -163 -52l-35 111q34 26 98 46t133 20q285 0 285 -355v-428q0 -162 10 -225zM479 311v201 q-22 0 -41.5 -1.5t-48 -6.5t-52 -14t-49 -26.5t-42.5 -41t-28 -59.5t-11 -80q0 -89 36.5 -133t84.5 -44q54 0 94 39t53 111q4 18 4 55zM313 1397h107l162 -277h-117l-96 176h-4l-95 -176h-118z"/>
<glyph unicode="ã" horiz-adv-x="745" d="M645 0h-143l-10 104h-7q-68 -120 -196 -120q-101 0 -168.5 78t-67.5 204q0 72 22.5 132t61.5 101.5t93 70.5t115.5 42.5t129.5 14.5v30q0 109 -35 167.5t-123 58.5q-84 0 -163 -52l-35 111q34 26 98 46t133 20q285 0 285 -355v-428q0 -162 10 -225zM479 311v201 q-22 0 -41.5 -1.5t-48 -6.5t-52 -14t-49 -26.5t-42.5 -41t-28 -59.5t-11 -80q0 -89 36.5 -133t84.5 -44q54 0 94 39t53 111q4 18 4 55zM238 1149h-88q0 85 32.5 138.5t93.5 53.5q39 0 101 -34q56 -35 82 -35q23 0 35.5 16t15.5 58h84q0 -87 -32.5 -136t-96.5 -49 q-41 0 -100 35q-7 4 -20 12t-20 12t-18 7.5t-20 3.5q-43 0 -49 -82z"/>
<glyph unicode="ä" horiz-adv-x="745" d="M645 0h-143l-10 104h-7q-68 -120 -196 -120q-101 0 -168.5 78t-67.5 204q0 72 22.5 132t61.5 101.5t93 70.5t115.5 42.5t129.5 14.5v30q0 109 -35 167.5t-123 58.5q-84 0 -163 -52l-35 111q34 26 98 46t133 20q285 0 285 -355v-428q0 -162 10 -225zM479 311v201 q-22 0 -41.5 -1.5t-48 -6.5t-52 -14t-49 -26.5t-42.5 -41t-28 -59.5t-11 -80q0 -89 36.5 -133t84.5 -44q54 0 94 39t53 111q4 18 4 55zM215 1159q-38 0 -65 26t-27 64q0 39 26.5 65.5t65.5 26.5q37 0 61.5 -25.5t24.5 -66.5q0 -38 -24.5 -64t-61.5 -26zM532 1159 q-38 0 -64 26t-26 64q0 39 26.5 65.5t63.5 26.5q38 0 63.5 -25.5t25.5 -66.5q0 -38 -25.5 -64t-63.5 -26z"/>
<glyph unicode="å" horiz-adv-x="745" d="M645 0h-143l-10 104h-7q-68 -120 -196 -120q-101 0 -168.5 78t-67.5 204q0 72 22.5 132t61.5 101.5t93 70.5t115.5 42.5t129.5 14.5v30q0 109 -35 167.5t-123 58.5q-84 0 -163 -52l-35 111q34 26 98 46t133 20q285 0 285 -355v-428q0 -162 10 -225zM479 311v201 q-22 0 -41.5 -1.5t-48 -6.5t-52 -14t-49 -26.5t-42.5 -41t-28 -59.5t-11 -80q0 -89 36.5 -133t84.5 -44q54 0 94 39t53 111q4 18 4 55zM371 1092q-86 0 -138.5 50t-52.5 124q0 78 52 130t141 52q83 0 134.5 -51.5t51.5 -128.5q0 -75 -53.5 -125.5t-134.5 -50.5zM369 1163 q45 0 71.5 31t26.5 76q0 44 -26 75t-74 31q-42 0 -67.5 -33t-25.5 -77q0 -39 26.5 -71t68.5 -32z"/>
<glyph unicode="æ" horiz-adv-x="1148" d="M1087 494h-458q0 -111 17.5 -188.5t50 -119t72 -59.5t91.5 -18q94 0 168 43l27 -113q-86 -55 -228 -55q-92 0 -168 50t-104 140h-4q-33 -89 -99 -139.5t-155 -50.5q-106 0 -175 78.5t-69 207.5q0 87 34 155t93 109.5t134.5 62.5t162.5 21v56q0 95 -41 152t-125 57 q-85 0 -159 -52l-35 109q42 28 103.5 48t123.5 20q82 0 144 -45t83 -134h4q33 84 98 131.5t144 47.5q92 0 155.5 -65t90.5 -161t27 -213q0 -12 -1.5 -36.5t-1.5 -38.5zM479 315v195q-32 0 -62 -3t-71.5 -17t-71.5 -37t-51.5 -67.5t-21.5 -104.5q0 -86 38 -129t91 -43 q51 0 91 39.5t52 109.5q6 18 6 57zM631 606h307q4 134 -38 207.5t-103 73.5q-50 0 -88.5 -42.5t-57 -105t-20.5 -133.5z"/>
<glyph unicode="ç" horiz-adv-x="616" d="M573 147l25 -120q-67 -36 -158 -39l-45 -90q54 -8 93.5 -49t39.5 -97q0 -81 -55 -121.5t-131 -40.5q-69 0 -137 37l33 86q50 -30 102 -30q74 0 74 63q0 74 -140 88l72 164q-131 30 -204.5 155t-73.5 336q0 144 45 260t135.5 186.5t210.5 70.5q83 0 139 -31l-31 -129 q-52 26 -112 26q-75 0 -129 -56t-77.5 -140.5t-23.5 -186.5q0 -173 62.5 -271.5t171.5 -98.5q66 0 114 28z"/>
<glyph unicode="è" horiz-adv-x="743" d="M682 481h-461q2 -368 236 -368q98 0 164 39l24 -117q-83 -47 -217 -47q-175 0 -267.5 132.5t-92.5 364.5q0 240 91.5 381.5t241.5 141.5q73 0 129 -36.5t89 -99t49 -139t16 -164.5q0 -63 -2 -88zM223 598h309q3 140 -40.5 213.5t-106.5 73.5q-71 0 -114 -87t-48 -200z M152 1397h161l158 -277h-104z"/>
<glyph unicode="é" horiz-adv-x="743" d="M682 481h-461q2 -368 236 -368q98 0 164 39l24 -117q-83 -47 -217 -47q-175 0 -267.5 132.5t-92.5 364.5q0 240 91.5 381.5t241.5 141.5q73 0 129 -36.5t89 -99t49 -139t16 -164.5q0 -63 -2 -88zM223 598h309q3 140 -40.5 213.5t-106.5 73.5q-71 0 -114 -87t-48 -200z M481 1397h162l-215 -277h-104z"/>
<glyph unicode="ê" horiz-adv-x="743" d="M682 481h-461q2 -368 236 -368q98 0 164 39l24 -117q-83 -47 -217 -47q-175 0 -267.5 132.5t-92.5 364.5q0 240 91.5 381.5t241.5 141.5q73 0 129 -36.5t89 -99t49 -139t16 -164.5q0 -63 -2 -88zM223 598h309q3 140 -40.5 213.5t-106.5 73.5q-71 0 -114 -87t-48 -200z M344 1397h107l161 -277h-116l-97 176h-4l-94 -176h-119z"/>
<glyph unicode="ë" horiz-adv-x="743" d="M682 481h-461q2 -368 236 -368q98 0 164 39l24 -117q-83 -47 -217 -47q-175 0 -267.5 132.5t-92.5 364.5q0 240 91.5 381.5t241.5 141.5q73 0 129 -36.5t89 -99t49 -139t16 -164.5q0 -63 -2 -88zM223 598h309q3 140 -40.5 213.5t-106.5 73.5q-71 0 -114 -87t-48 -200z M246 1159q-38 0 -65 26t-27 64q0 39 26.5 65.5t65.5 26.5q37 0 61.5 -25.5t24.5 -66.5q0 -38 -24.5 -64t-61.5 -26zM563 1159q-38 0 -64 26t-26 64q0 39 26.5 65.5t63.5 26.5t62.5 -25.5t25.5 -66.5q0 -38 -25 -64t-63 -26z"/>
<glyph unicode="ì" horiz-adv-x="376" d="M268 0h-157v991h157v-991zM-57 1397h161l158 -277h-106z"/>
<glyph unicode="í" horiz-adv-x="376" d="M268 0h-157v991h157v-991zM268 1397h162l-215 -277h-104z"/>
<glyph unicode="î" horiz-adv-x="376" d="M268 0h-157v991h157v-991zM137 1397h107l162 -277h-119l-94 176h-5l-94 -176h-119z"/>
<glyph unicode="ï" horiz-adv-x="376" d="M268 0h-157v991h157v-991zM33 1159q-38 0 -65 26t-27 64q0 39 26.5 65.5t65.5 26.5q37 0 61.5 -25.5t24.5 -66.5q0 -38 -24.5 -64t-61.5 -26zM350 1159q-38 0 -64 26t-26 64q0 39 26.5 65.5t63.5 26.5t62.5 -25.5t25.5 -66.5q0 -38 -25 -64t-63 -26z"/>
<glyph unicode="ð" horiz-adv-x="780" d="M391 109q49 0 83 36.5t50.5 97t23.5 119.5t7 123q0 211 -31 297q-29 101 -131 101q-41 0 -72 -27.5t-49 -67.5t-29 -95t-14.5 -101t-3.5 -94q0 -69 7 -131t24 -123.5t51.5 -98t83.5 -36.5zM162 1040l-41 68l172 98q-19 22 -40 44.5t-59 59.5t-47 46l93 84 q110 -99 172 -168l186 106l41 -71l-172 -97q99 -118 164 -258q82 -178 82 -444q1 -113 -18.5 -204t-52 -149.5t-76 -98t-88.5 -56t-93 -16.5q-140 0 -228.5 131t-88.5 379q0 125 27 224.5t71.5 158.5t98.5 89.5t112 30.5q54 0 94 -32l4 6q-39 83 -121 176z"/>
<glyph unicode="ñ" horiz-adv-x="829" d="M111 0v735q0 68 -4 151.5t-5 104.5h138l8 -119h4q33 62 92 99t135 37q109 0 174.5 -85t65.5 -257v-666h-158v639q0 235 -137 235q-52 0 -94 -42t-56 -119q-6 -38 -6 -88v-625h-157zM283 1149h-86q-2 85 31 138.5t94 53.5q8 0 16 -1t13.5 -2t13.5 -4t12 -4t12.5 -5.5 t10.5 -5.5t11.5 -6t10.5 -6q5 -3 17 -10.5t17.5 -10t14.5 -7t17 -6t16 -1.5q24 0 36 15.5t15 58.5h84q0 -87 -32.5 -136t-96.5 -49q-37 0 -100 35q-8 4 -20.5 12t-19.5 12t-17 7.5t-19 3.5q-45 0 -51 -82z"/>
<glyph unicode="ò" horiz-adv-x="784" d="M399 1008q140 0 230 -132t90 -380q0 -111 -20 -200t-52.5 -146t-76 -95.5t-88.5 -54.5t-93 -16q-141 0 -231 130t-90 380q0 131 27.5 232.5t74.5 161.5t105 90t124 30zM393 881q-50 0 -85.5 -37.5t-52 -99.5t-23.5 -122t-7 -126q0 -54 4 -103.5t15.5 -103t30 -92 t50 -63.5t72.5 -25q48 0 82 37.5t50 99.5t23 123t7 127t-7 126t-23.5 122t-51.5 99.5t-84 37.5zM158 1397h161l158 -277h-104z"/>
<glyph unicode="ó" horiz-adv-x="784" d="M399 1008q140 0 230 -132t90 -380q0 -111 -20 -200t-52.5 -146t-76 -95.5t-88.5 -54.5t-93 -16q-141 0 -231 130t-90 380q0 131 27.5 232.5t74.5 161.5t105 90t124 30zM393 881q-50 0 -85.5 -37.5t-52 -99.5t-23.5 -122t-7 -126q0 -54 4 -103.5t15.5 -103t30 -92 t50 -63.5t72.5 -25q48 0 82 37.5t50 99.5t23 123t7 127t-7 126t-23.5 122t-51.5 99.5t-84 37.5zM473 1397h162l-215 -277h-105z"/>
<glyph unicode="ô" horiz-adv-x="784" d="M399 1008q140 0 230 -132t90 -380q0 -111 -20 -200t-52.5 -146t-76 -95.5t-88.5 -54.5t-93 -16q-141 0 -231 130t-90 380q0 131 27.5 232.5t74.5 161.5t105 90t124 30zM393 881q-50 0 -85.5 -37.5t-52 -99.5t-23.5 -122t-7 -126q0 -54 4 -103.5t15.5 -103t30 -92 t50 -63.5t72.5 -25q48 0 82 37.5t50 99.5t23 123t7 127t-7 126t-23.5 122t-51.5 99.5t-84 37.5zM340 1397h106l162 -277h-119l-94 176h-4l-94 -176h-119z"/>
<glyph unicode="õ" horiz-adv-x="784" d="M399 1008q140 0 230 -132t90 -380q0 -111 -20 -200t-52.5 -146t-76 -95.5t-88.5 -54.5t-93 -16q-141 0 -231 130t-90 380q0 131 27.5 232.5t74.5 161.5t105 90t124 30zM393 881q-50 0 -85.5 -37.5t-52 -99.5t-23.5 -122t-7 -126q0 -54 4 -103.5t15.5 -103t30 -92 t50 -63.5t72.5 -25q48 0 82 37.5t50 99.5t23 123t7 127t-7 126t-23.5 122t-51.5 99.5t-84 37.5zM258 1149h-86q-2 85 31 138.5t94 53.5q8 0 16 -1t13.5 -2t13.5 -4t12 -4t12.5 -5.5t10.5 -5.5t11.5 -6t10.5 -6q5 -3 17 -10.5t17.5 -10t14.5 -7t17 -6t16 -1.5q24 0 36 15.5 t15 58.5h84q0 -87 -32.5 -136t-96.5 -49q-37 0 -100 35q-8 4 -20.5 12t-19.5 12t-17 7.5t-19 3.5q-45 0 -51 -82z"/>
<glyph unicode="ö" horiz-adv-x="784" d="M399 1008q140 0 230 -132t90 -380q0 -111 -20 -200t-52.5 -146t-76 -95.5t-88.5 -54.5t-93 -16q-141 0 -231 130t-90 380q0 131 27.5 232.5t74.5 161.5t105 90t124 30zM393 881q-50 0 -85.5 -37.5t-52 -99.5t-23.5 -122t-7 -126q0 -54 4 -103.5t15.5 -103t30 -92 t50 -63.5t72.5 -25q48 0 82 37.5t50 99.5t23 123t7 127t-7 126t-23.5 122t-51.5 99.5t-84 37.5zM236 1159q-39 0 -66 26t-27 64q0 39 27 65.5t66 26.5q37 0 61.5 -25.5t24.5 -66.5q0 -38 -24.5 -64t-61.5 -26zM553 1159q-38 0 -64 26t-26 64q0 39 26.5 65.5t63.5 26.5 t62.5 -25.5t25.5 -66.5q0 -38 -25 -64t-63 -26z"/>
<glyph unicode="÷" horiz-adv-x="1220" d="M610 813q-41 0 -65.5 26t-24.5 68t24.5 69.5t65.5 27.5q42 0 67 -27.5t25 -69.5t-24.5 -68t-67.5 -26zM1139 492h-1057v110h1057v-110zM610 90q-41 0 -65.5 26t-24.5 68t24.5 69.5t65.5 27.5q42 0 67 -27.5t25 -69.5t-24.5 -68t-67.5 -26z"/>
<glyph unicode="ø" horiz-adv-x="784" d="M393 1008q91 0 168 -62l51 109l86 -45l-69 -140q90 -133 90 -374q0 -110 -20 -199.5t-52.5 -146.5t-76 -95.5t-87.5 -54.5t-90 -16q-94 0 -166 57l-53 -109l-80 52l64 131q-90 134 -90 379q0 131 27.5 232.5t74 161.5t103 90t120.5 30zM250 268l248 547q-26 66 -105 66 q-43 0 -76 -27t-51 -67t-29 -95t-14.5 -101t-3.5 -95q0 -130 27 -226zM539 713l-246 -541q29 -63 100 -63q51 0 87.5 36t54 96.5t25 119.5t7.5 124q0 125 -24 226z"/>
<glyph unicode="ù" horiz-adv-x="815" d="M705 991v-721q0 -66 4 -167t4 -103h-138l-10 104h-4q-29 -46 -85 -83t-128 -37q-127 0 -184.5 95.5t-57.5 285.5v626h158v-604q0 -63 5.5 -109t20 -84t41 -57.5t66.5 -19.5q61 0 97.5 43t44.5 88q8 36 8 90v653h158zM174 1397h162l158 -277h-105z"/>
<glyph unicode="ú" horiz-adv-x="815" d="M705 991v-721q0 -66 4 -167t4 -103h-138l-10 104h-4q-29 -46 -85 -83t-128 -37q-127 0 -184.5 95.5t-57.5 285.5v626h158v-604q0 -63 5.5 -109t20 -84t41 -57.5t66.5 -19.5q61 0 97.5 43t44.5 88q8 36 8 90v653h158zM502 1397h162l-215 -277h-105z"/>
<glyph unicode="û" horiz-adv-x="815" d="M705 991v-721q0 -66 4 -167t4 -103h-138l-10 104h-4q-29 -46 -85 -83t-128 -37q-127 0 -184.5 95.5t-57.5 285.5v626h158v-604q0 -63 5.5 -109t20 -84t41 -57.5t66.5 -19.5q61 0 97.5 43t44.5 88q8 36 8 90v653h158zM354 1397h107l162 -277h-117l-96 176h-4l-95 -176 h-118z"/>
<glyph unicode="ü" horiz-adv-x="815" d="M705 991v-721q0 -66 4 -167t4 -103h-138l-10 104h-4q-29 -46 -85 -83t-128 -37q-127 0 -184.5 95.5t-57.5 285.5v626h158v-604q0 -63 5.5 -109t20 -84t41 -57.5t66.5 -19.5q61 0 97.5 43t44.5 88q8 36 8 90v653h158zM256 1159q-38 0 -65 26t-27 64q0 39 26.5 65.5 t65.5 26.5q37 0 61.5 -25.5t24.5 -66.5q0 -38 -24.5 -64t-61.5 -26zM573 1159q-38 0 -64 26t-26 64q0 39 26.5 65.5t63.5 26.5t63 -25.5t26 -66.5q0 -38 -25.5 -64t-63.5 -26z"/>
<glyph unicode="ý" horiz-adv-x="708" d="M27 991h166l131 -569q5 -20 41 -205h4q9 52 43 203l116 571h156l-162 -637q-55 -226 -110.5 -381.5t-135.5 -257.5q-87 -109 -178 -151l-57 135q72 40 139 125q58 72 90 166q11 34 11 49q0 22 -5 37zM442 1397h162l-215 -277h-104z"/>
<glyph unicode="þ" horiz-adv-x="817" d="M109 1417h155v-549h4q67 140 205 140q123 0 200 -135.5t77 -374.5q0 -106 -17.5 -193.5t-46.5 -145.5t-67.5 -98.5t-80 -58.5t-85.5 -18q-128 0 -183 116h-4v-493h-157v1810zM266 616v-254q0 -50 8 -81q21 -93 62 -129.5t82 -36.5q47 0 81.5 30.5t54 85.5t28 120t8.5 145 q0 166 -42.5 271t-129.5 105q-53 0 -95.5 -54.5t-50.5 -125.5q-6 -25 -6 -76z"/>
<glyph unicode="ÿ" horiz-adv-x="708" d="M27 991h166l131 -569q5 -20 41 -205h4q9 52 43 203l116 571h156l-162 -637q-55 -226 -110.5 -381.5t-135.5 -257.5q-87 -109 -178 -151l-57 135q72 40 139 125q58 72 90 166q11 34 11 49q0 22 -5 37zM205 1159q-38 0 -65 26t-27 64q0 39 26.5 65.5t65.5 26.5 q37 0 61.5 -25.5t24.5 -66.5q0 -38 -24.5 -64t-61.5 -26zM522 1159q-38 0 -64 26t-26 64q0 40 26 66t64 26q37 0 62.5 -25.5t25.5 -66.5q0 -38 -25.5 -64t-62.5 -26z"/>
<glyph unicode="Ā" horiz-adv-x="890" d="M594 414h-305l-92 -414h-152l315 1380h175l307 -1380h-156zM311 541h262l-71 350q-28 140 -56 315h-8q-24 -159 -55 -315zM227 1614h437v-109h-437v109z"/>
<glyph unicode="ā" horiz-adv-x="745" d="M645 0h-143l-10 104h-7q-68 -120 -196 -120q-101 0 -168.5 78t-67.5 204q0 72 22.5 132t61.5 101.5t93 70.5t115.5 42.5t129.5 14.5v30q0 109 -35 167.5t-123 58.5q-84 0 -163 -52l-35 111q34 26 98 46t133 20q285 0 285 -355v-428q0 -162 10 -225zM479 311v201 q-22 0 -41.5 -1.5t-48 -6.5t-52 -14t-49 -26.5t-42.5 -41t-28 -59.5t-11 -80q0 -89 36.5 -133t84.5 -44q54 0 94 39t53 111q4 18 4 55zM172 1292h403v-102h-403v102z"/>
<glyph unicode="Ă" horiz-adv-x="890" d="M594 414h-305l-92 -414h-152l315 1380h175l307 -1380h-156zM311 541h262l-71 350q-28 140 -56 315h-8q-24 -159 -55 -315zM227 1655h92q7 -43 40.5 -66.5t84.5 -23.5q109 0 127 90h93q0 -90 -59 -144.5t-159 -54.5q-103 0 -161 52.5t-58 146.5z"/>
<glyph unicode="ă" horiz-adv-x="745" d="M645 0h-143l-10 104h-7q-68 -120 -196 -120q-101 0 -168.5 78t-67.5 204q0 72 22.5 132t61.5 101.5t93 70.5t115.5 42.5t129.5 14.5v30q0 109 -35 167.5t-123 58.5q-84 0 -163 -52l-35 111q34 26 98 46t133 20q285 0 285 -355v-428q0 -162 10 -225zM479 311v201 q-22 0 -41.5 -1.5t-48 -6.5t-52 -14t-49 -26.5t-42.5 -41t-28 -59.5t-11 -80q0 -89 36.5 -133t84.5 -44q54 0 94 39t53 111q4 18 4 55zM156 1370h88q4 -57 39 -92t88 -35q59 0 94 35t37 92h88q3 -102 -57 -166.5t-162 -64.5t-160 65.5t-55 165.5z"/>
<glyph unicode="Ą" horiz-adv-x="890" d="M535 1380l307 -1380h-47q-35 -42 -64 -98t-29 -101q0 -44 26 -69t60 -25q46 0 86 19l23 -88q-57 -46 -147 -46q-79 0 -125.5 45.5t-46.5 124.5q0 107 104 250l-88 402h-305l-92 -414h-152l315 1380h175zM311 541h262l-71 350q-28 140 -56 315h-8q-24 -159 -55 -315z"/>
<glyph unicode="ą" horiz-adv-x="745" d="M154 831l-35 111q34 26 98 46t133 20q285 0 285 -355v-428q0 -162 16 -225h-37q-32 -41 -58 -99.5t-26 -111.5q0 -43 25.5 -68.5t58.5 -25.5q52 0 88 18l23 -88q-60 -45 -147 -45q-79 0 -125.5 45.5t-46.5 124.5q0 102 96 250l-10 104h-7q-68 -120 -196 -120 q-101 0 -168.5 78t-67.5 204q0 72 22.5 132t61.5 101.5t93 70.5t115.5 42.5t129.5 14.5v30q0 109 -35 167.5t-123 58.5q-84 0 -163 -52zM479 311v201q-22 0 -41.5 -1.5t-48 -6.5t-52 -14t-49 -26.5t-42.5 -41t-28 -59.5t-11 -80q0 -89 36.5 -133t84.5 -44q54 0 94 39t53 111 q4 18 4 55z"/>
<glyph unicode="Ć" horiz-adv-x="763" d="M700 158l25 -133q-69 -37 -197 -37q-211 0 -336.5 173t-125.5 513q0 157 30 283.5t78.5 206t113.5 132.5t130.5 75t134.5 22q116 0 172 -35l-35 -133q-66 28 -139 28q-46 0 -90 -17.5t-86 -60t-73.5 -105.5t-51 -161.5t-19.5 -220.5q0 -123 18 -220t47.5 -160t72 -104.5 t88.5 -59t98 -17.5q81 0 145 31zM592 1675h186l-256 -221h-125z"/>
<glyph unicode="ć" horiz-adv-x="618" d="M573 145l21 -120q-65 -37 -164 -37q-166 0 -264 130t-98 371q0 144 45 260t135.5 186.5t210.5 70.5q83 0 139 -31l-31 -129q-52 26 -112 26q-75 0 -129 -56t-77.5 -140.5t-23.5 -186.5q0 -173 62.5 -271.5t171.5 -98.5q54 0 114 26zM481 1397h162l-215 -277h-104z"/>
<glyph unicode="Ĉ" horiz-adv-x="763" d="M700 158l25 -133q-69 -37 -197 -37q-211 0 -336.5 173t-125.5 513q0 157 30 283.5t78.5 206t113.5 132.5t130.5 75t134.5 22q116 0 172 -35l-35 -133q-66 28 -139 28q-46 0 -90 -17.5t-86 -60t-73.5 -105.5t-51 -161.5t-19.5 -220.5q0 -123 18 -220t47.5 -160t72 -104.5 t88.5 -59t98 -17.5q81 0 145 31zM414 1655h135l178 -201h-137l-107 113h-4l-106 -113h-135z"/>
<glyph unicode="ĉ" horiz-adv-x="618" d="M573 145l21 -120q-65 -37 -164 -37q-166 0 -264 130t-98 371q0 144 45 260t135.5 186.5t210.5 70.5q83 0 139 -31l-31 -129q-52 26 -112 26q-75 0 -129 -56t-77.5 -140.5t-23.5 -186.5q0 -173 62.5 -271.5t171.5 -98.5q54 0 114 26zM342 1397h107l161 -277h-116l-97 176 h-4l-94 -176h-119z"/>
<glyph unicode="Ċ" horiz-adv-x="763" d="M700 158l25 -133q-69 -37 -197 -37q-211 0 -336.5 173t-125.5 513q0 157 30 283.5t78.5 206t113.5 132.5t130.5 75t134.5 22q116 0 172 -35l-35 -133q-66 28 -139 28q-46 0 -90 -17.5t-86 -60t-73.5 -105.5t-51 -161.5t-19.5 -220.5q0 -123 18 -220t47.5 -160t72 -104.5 t88.5 -59t98 -17.5q81 0 145 31zM498 1475q-40 0 -67.5 27t-27.5 65t28 64t67 26q37 0 62.5 -26t25.5 -64t-25.5 -65t-62.5 -27z"/>
<glyph unicode="ċ" horiz-adv-x="618" d="M573 145l21 -120q-65 -37 -164 -37q-166 0 -264 130t-98 371q0 144 45 260t135.5 186.5t210.5 70.5q83 0 139 -31l-31 -129q-52 26 -112 26q-75 0 -129 -56t-77.5 -140.5t-23.5 -186.5q0 -173 62.5 -271.5t171.5 -98.5q54 0 114 26zM391 1159q-38 0 -64 26t-26 64 q0 40 26 66t64 26q37 0 62.5 -25.5t25.5 -66.5q0 -38 -25 -64t-63 -26z"/>
<glyph unicode="Č" horiz-adv-x="763" d="M700 158l25 -133q-69 -37 -197 -37q-211 0 -336.5 173t-125.5 513q0 157 30 283.5t78.5 206t113.5 132.5t130.5 75t134.5 22q116 0 172 -35l-35 -133q-66 28 -139 28q-46 0 -90 -17.5t-86 -60t-73.5 -105.5t-51 -161.5t-19.5 -220.5q0 -123 18 -220t47.5 -160t72 -104.5 t88.5 -59t98 -17.5q81 0 145 31zM567 1454h-137l-178 201h139l105 -119h4l106 119h137z"/>
<glyph unicode="č" horiz-adv-x="618" d="M573 145l21 -120q-65 -37 -164 -37q-166 0 -264 130t-98 371q0 144 45 260t135.5 186.5t210.5 70.5q83 0 139 -31l-31 -129q-52 26 -112 26q-75 0 -129 -56t-77.5 -140.5t-23.5 -186.5q0 -173 62.5 -271.5t171.5 -98.5q54 0 114 26zM444 1120h-108l-162 277h117l96 -178 h4l96 178h119z"/>
<glyph unicode="Ď" horiz-adv-x="911" d="M123 6v1354q88 26 213 26q207 0 323 -104q85 -74 136 -213.5t51 -345.5q0 -405 -166 -582q-131 -149 -381 -149q-110 0 -176 14zM281 1249v-1120q23 -4 59 -4q55 0 102.5 16.5t92.5 58t77 107t51 171t19 241.5q0 264 -82 401t-246 137q-46 0 -73 -8zM467 1454h-135 l-178 201h137l106 -119h4l107 119h135z"/>
<glyph unicode="ď" horiz-adv-x="837" d="M551 1417h156v-1179q0 -10 8 -238h-135l-11 125h-6q-28 -60 -81 -100.5t-126 -40.5q-129 0 -208.5 134.5t-79.5 373.5q0 249 87 382.5t212 133.5q57 0 104.5 -29.5t75.5 -89.5h4v528zM551 350v264q0 43 -2 66q-8 78 -50 135t-98 57q-47 0 -82.5 -31t-55 -85t-29 -120 t-9.5 -144q0 -166 43 -271.5t125 -105.5q110 0 152 170q6 27 6 65zM864 1034l-69 45q59 90 59 185q0 84 -66 139l117 24q29 -21 48.5 -59.5t19.5 -87.5q0 -35 -9 -70t-18.5 -57.5t-29.5 -51.5t-27 -37t-25 -30z"/>
<glyph unicode="Đ" horiz-adv-x="927" d="M0 662v116h141v582q85 26 211 26q208 0 324 -104q186 -157 186 -563q0 -407 -166 -584q-129 -147 -379 -147q-113 0 -176 14v660h-141zM506 778v-116h-209v-539q25 -4 61 -4q55 0 102 16.5t92.5 59t77 108.5t51 172.5t19.5 243.5q0 538 -329 538q-28 0 -74 -8v-471h209z "/>
<glyph unicode="đ" horiz-adv-x="817" d="M825 1112h-118v-874q0 -10 8 -238h-135l-11 125h-6q-28 -60 -81 -100.5t-126 -40.5q-129 0 -208.5 134.5t-79.5 373.5q0 249 87 382.5t212 133.5q57 0 104.5 -29.5t75.5 -89.5h4v223h-268v111h268v194h156v-194h118v-111zM551 350v264q0 43 -2 66q-8 78 -50 135t-98 57 q-47 0 -82.5 -31t-55 -85t-29 -120t-9.5 -144q0 -166 43 -271.5t125 -105.5q110 0 152 170q6 27 6 65z"/>
<glyph unicode="Ē" d="M627 788v-133h-346v-518h393v-137h-551v1380h526v-137h-368v-455h346zM176 1614h436v-109h-436v109z"/>
<glyph unicode="ē" horiz-adv-x="743" d="M682 481h-461q2 -368 236 -368q98 0 164 39l24 -117q-83 -47 -217 -47q-175 0 -267.5 132.5t-92.5 364.5q0 240 91.5 381.5t241.5 141.5q73 0 129 -36.5t89 -99t49 -139t16 -164.5q0 -63 -2 -88zM223 598h309q3 140 -40.5 213.5t-106.5 73.5q-71 0 -114 -87t-48 -200z M182 1292h404v-102h-404v102z"/>
<glyph unicode="Ĕ" d="M627 788v-133h-346v-518h393v-137h-551v1380h526v-137h-368v-455h346zM172 1657h92q7 -41 40.5 -64.5t84.5 -23.5q110 0 127 88h92q0 -89 -58.5 -143t-158.5 -54q-102 0 -160.5 52.5t-58.5 144.5z"/>
<glyph unicode="ĕ" horiz-adv-x="743" d="M682 481h-461q2 -368 236 -368q98 0 164 39l24 -117q-83 -47 -217 -47q-175 0 -267.5 132.5t-92.5 364.5q0 240 91.5 381.5t241.5 141.5q73 0 129 -36.5t89 -99t49 -139t16 -164.5q0 -63 -2 -88zM223 598h309q3 140 -40.5 213.5t-106.5 73.5q-71 0 -114 -87t-48 -200z M170 1370h88q4 -57 39 -92t88 -35q59 0 94 35t37 92h88q3 -102 -57 -166.5t-162 -64.5t-160 65.5t-55 165.5z"/>
<glyph unicode="Ė" d="M627 788v-133h-346v-518h393v-137h-551v1380h526v-137h-368v-455h346zM399 1489q-40 0 -67 27t-27 65t27.5 64t66.5 26q37 0 63.5 -26t26.5 -64t-26.5 -65t-63.5 -27z"/>
<glyph unicode="ė" horiz-adv-x="743" d="M682 481h-461q2 -368 236 -368q98 0 164 39l24 -117q-83 -47 -217 -47q-175 0 -267.5 132.5t-92.5 364.5q0 240 91.5 381.5t241.5 141.5q73 0 129 -36.5t89 -99t49 -139t16 -164.5q0 -63 -2 -88zM223 598h309q3 140 -40.5 213.5t-106.5 73.5q-71 0 -114 -87t-48 -200z M389 1159q-38 0 -64 26t-26 64q0 39 26.5 65.5t63.5 26.5t62.5 -25.5t25.5 -66.5q0 -38 -25 -64t-63 -26z"/>
<glyph unicode="Ę" d="M664 -279l22 -88q-61 -45 -156 -45q-75 0 -119 42.5t-44 115.5t49.5 141t118.5 113h-412v1380h526v-137h-368v-455h346v-133h-346v-518h393v-137h-17q-165 -116 -165 -215q0 -40 24 -61t57 -21q54 0 91 18z"/>
<glyph unicode="ę" horiz-adv-x="743" d="M567 -270l27 -86q-63 -52 -152 -52q-78 0 -124 42.5t-46 111.5q0 68 47.5 135t108.5 105v2h-8q-171 3 -261.5 135t-90.5 362q0 240 91.5 381.5t241.5 141.5q73 0 129 -36.5t89 -99t49 -139t16 -164.5q0 -68 -2 -88h-461q2 -368 236 -368q98 0 164 39l24 -117 q-48 -21 -53 -23q-78 -39 -136.5 -104t-58.5 -125q0 -40 22.5 -60t53.5 -20q45 0 94 27zM223 598h309q3 140 -40.5 213.5t-106.5 73.5q-71 0 -114 -87t-48 -200z"/>
<glyph unicode="Ě" d="M627 788v-133h-346v-518h393v-137h-551v1380h526v-137h-368v-455h346zM457 1454h-135l-179 201h138l106 -119h4l107 119h135z"/>
<glyph unicode="ě" horiz-adv-x="743" d="M682 481h-461q2 -368 236 -368q98 0 164 39l24 -117q-83 -47 -217 -47q-175 0 -267.5 132.5t-92.5 364.5q0 240 91.5 381.5t241.5 141.5q73 0 129 -36.5t89 -99t49 -139t16 -164.5q0 -63 -2 -88zM223 598h309q3 140 -40.5 213.5t-106.5 73.5q-71 0 -114 -87t-48 -200z M438 1120h-108l-162 277h117l96 -178h4l96 178h119z"/>
<glyph unicode="Ĝ" horiz-adv-x="892" d="M803 721v-686q-111 -47 -246 -47q-204 0 -326 135q-78 82 -122 224t-43 325q1 155 32 280.5t81.5 206t119 134.5t140 77t147.5 23q123 0 196 -39l-34 -135q-66 32 -160 32q-54 0 -103.5 -17t-97 -59t-82 -105t-55.5 -161.5t-21 -222.5q0 -154 27.5 -267t75 -175.5 t103.5 -91.5t122 -29q64 0 96 16v451h-178v131h328zM453 1655h137l178 -201h-139l-107 113h-4l-104 -113h-138z"/>
<glyph unicode="ĝ" horiz-adv-x="817" d="M575 991h142q-8 -280 -8 -309v-555q0 -187 -23.5 -280t-75.5 -150q-93 -107 -264 -107q-129 0 -217 50l37 122q84 -43 184 -43q99 0 151 71t52 233v100h-4q-26 -58 -76.5 -89.5t-114.5 -31.5q-131 0 -210.5 135.5t-79.5 354.5q0 131 28 233.5t73.5 162t99 90t110.5 30.5 q121 0 184 -129h4zM553 362v287q0 45 -8 72q-40 151 -144 151q-84 0 -130 -101.5t-46 -270.5q0 -181 49.5 -275t126.5 -94q103 0 142 141q10 39 10 90zM352 1397h107l159 -277h-116l-94 176h-5l-96 -176h-119z"/>
<glyph unicode="Ğ" horiz-adv-x="892" d="M803 721v-686q-111 -47 -246 -47q-204 0 -326 135q-78 82 -122 224t-43 325q1 155 32 280.5t81.5 206t119 134.5t140 77t147.5 23q123 0 196 -39l-34 -135q-66 32 -160 32q-54 0 -103.5 -17t-97 -59t-82 -105t-55.5 -161.5t-21 -222.5q0 -154 27.5 -267t75 -175.5 t103.5 -91.5t122 -29q64 0 96 16v451h-178v131h328zM299 1655h94q7 -42 40 -66t83 -24q111 0 129 90h92q0 -90 -59 -144.5t-160 -54.5q-102 0 -160.5 53t-58.5 146z"/>
<glyph unicode="ğ" horiz-adv-x="817" d="M575 991h142q-8 -280 -8 -309v-555q0 -187 -23.5 -280t-75.5 -150q-93 -107 -264 -107q-129 0 -217 50l37 122q84 -43 184 -43q99 0 151 71t52 233v100h-4q-26 -58 -76.5 -89.5t-114.5 -31.5q-131 0 -210.5 135.5t-79.5 354.5q0 131 28 233.5t73.5 162t99 90t110.5 30.5 q121 0 184 -129h4zM553 362v287q0 45 -8 72q-40 151 -144 151q-84 0 -130 -101.5t-46 -270.5q0 -181 49.5 -275t126.5 -94q103 0 142 141q10 39 10 90zM190 1370h89q5 -57 40 -92t87 -35q59 0 94 35t37 92h88q3 -102 -57 -166.5t-162 -64.5t-160.5 66t-55.5 165z"/>
<glyph unicode="Ġ" horiz-adv-x="892" d="M803 721v-686q-111 -47 -246 -47q-204 0 -326 135q-78 82 -122 224t-43 325q1 155 32 280.5t81.5 206t119 134.5t140 77t147.5 23q123 0 196 -39l-34 -135q-66 32 -160 32q-54 0 -103.5 -17t-97 -59t-82 -105t-55.5 -161.5t-21 -222.5q0 -154 27.5 -267t75 -175.5 t103.5 -91.5t122 -29q64 0 96 16v451h-178v131h328zM524 1475q-38 0 -65 27t-27 65t27 64t65 26t64 -26t26 -64t-26 -65t-64 -27z"/>
<glyph unicode="ġ" horiz-adv-x="817" d="M575 991h142q-8 -280 -8 -309v-555q0 -187 -23.5 -280t-75.5 -150q-93 -107 -264 -107q-129 0 -217 50l37 122q84 -43 184 -43q99 0 151 71t52 233v100h-4q-26 -58 -76.5 -89.5t-114.5 -31.5q-131 0 -210.5 135.5t-79.5 354.5q0 131 28 233.5t73.5 162t99 90t110.5 30.5 q121 0 184 -129h4zM553 362v287q0 45 -8 72q-40 151 -144 151q-84 0 -130 -101.5t-46 -270.5q0 -181 49.5 -275t126.5 -94q103 0 142 141q10 39 10 90zM412 1159q-38 0 -64 26t-26 64q0 39 26.5 65.5t63.5 26.5t62.5 -25.5t25.5 -66.5q0 -38 -25 -64t-63 -26z"/>
<glyph unicode="Ģ" horiz-adv-x="892" d="M803 721v-686q-111 -47 -246 -47q-204 0 -326 135q-78 82 -122 224t-43 325q1 155 32 280.5t81.5 206t119 134.5t140 77t147.5 23q123 0 196 -39l-34 -135q-66 32 -160 32q-54 0 -103.5 -17t-97 -59t-82 -105t-55.5 -161.5t-21 -222.5q0 -154 27.5 -267t75 -175.5 t103.5 -91.5t122 -29q64 0 96 16v451h-178v131h328zM422 -438l-35 76q55 16 93 48t38 81q0 70 -69 124l129 23q29 -19 49 -57t20 -86q0 -90 -64 -142t-161 -67z"/>
<glyph unicode="ģ" horiz-adv-x="817" d="M530 1436l33 -70q-137 -35 -137 -133q0 -69 72 -125l-123 -25q-29 22 -49.5 61t-20.5 83q0 91 64 142.5t161 66.5zM575 991h142q-8 -280 -8 -309v-555q0 -187 -23.5 -280t-75.5 -150q-93 -107 -264 -107q-129 0 -217 50l37 122q84 -43 184 -43q99 0 151 71t52 233v100h-4 q-26 -58 -76.5 -89.5t-114.5 -31.5q-131 0 -210.5 135.5t-79.5 354.5q0 131 28 233.5t73.5 162t99 90t110.5 30.5q121 0 184 -129h4zM553 362v287q0 45 -8 72q-40 151 -144 151q-84 0 -130 -101.5t-46 -270.5q0 -181 49.5 -275t126.5 -94q103 0 142 141q10 39 10 90z"/>
<glyph unicode="Ĥ" horiz-adv-x="948" d="M123 1380h158v-592h387v592h157v-1380h-157v645h-387v-645h-158v1380zM410 1655h137l178 -201h-139l-107 113h-4l-104 -113h-138z"/>
<glyph unicode="ĥ" horiz-adv-x="829" d="M111 0v1417h157v-532h4q30 52 82 86q60 37 133 37q102 0 167 -87t65 -264v-657h-158v639q0 235 -133 235q-56 0 -95.5 -40t-58.5 -117q-6 -34 -6 -76v-641h-157zM125 1675h135l178 -200h-137l-106 112h-5l-106 -112h-135z"/>
<glyph unicode="Ħ" horiz-adv-x="948" d="M922 989h-97v-989h-157v625h-387v-625h-158v989h-96v113h96v278h158v-278h387v278h157v-278h97v-113zM668 768v221h-387v-221h387z"/>
<glyph unicode="ħ" horiz-adv-x="829" d="M719 0h-158v639q0 235 -133 235q-56 0 -95.5 -40t-58.5 -117q-6 -34 -6 -76v-641h-157v1112h-123v111h123v194h157v-194h273v-111h-273v-227h4q30 52 82 86q60 37 133 37q102 0 167 -87t65 -264v-657z"/>
<glyph unicode="Ĩ" horiz-adv-x="407" d="M123 1380h158v-1380h-158v1380zM72 1470h-84q-2 87 30.5 140t90.5 53q7 0 13 -0.5t12.5 -2t11.5 -3t11.5 -4t10 -4t10 -5.5t9 -5t10 -5.5t8.5 -5.5q7 -4 21.5 -13t21 -13t18 -7.5t21.5 -3.5q25 0 37 16.5t16 57.5h82q3 -184 -127 -184q-41 0 -100 35q-51 34 -74 34 q-43 0 -49 -80z"/>
<glyph unicode="ĩ" horiz-adv-x="376" d="M268 0h-157v991h157v-991zM55 1149h-86q-2 85 31 138.5t94 53.5q20 0 40.5 -6.5t29 -10.5t31.5 -17q6 -3 17 -10t17 -10.5t14.5 -7.5t16.5 -5.5t16 -1.5q25 0 37 16t15 58h84q0 -87 -32.5 -136t-96.5 -49q-38 0 -101 35q-8 4 -20.5 12t-19.5 12t-17 7.5t-19 3.5 q-45 0 -51 -82z"/>
<glyph unicode="Ī" horiz-adv-x="407" d="M123 1380h158v-1380h-158v1380zM-12 1614h436v-109h-436v109z"/>
<glyph unicode="ī" horiz-adv-x="376" d="M268 0h-157v991h157v-991zM-10 1292h403v-102h-403v102z"/>
<glyph unicode="Ĭ" horiz-adv-x="407" d="M123 1380h158v-1380h-158v1380zM-16 1659h92q8 -41 41 -65.5t84 -24.5q109 0 127 90h92q0 -90 -59 -144.5t-158 -54.5q-103 0 -161 52.5t-58 146.5z"/>
<glyph unicode="ĭ" horiz-adv-x="376" d="M268 0h-157v991h157v-991zM-27 1370h88q4 -57 39.5 -92t87.5 -35q59 0 94 35t37 92h89q3 -102 -57.5 -166.5t-162.5 -64.5t-160 65.5t-55 165.5z"/>
<glyph unicode="Į" horiz-adv-x="407" d="M281 1380v-1380h-45q-84 -115 -84 -209q0 -46 25 -71t59 -25q52 0 88 18l22 -88q-60 -45 -147 -45q-78 0 -125 45t-47 123q0 104 96 252v1380h158z"/>
<glyph unicode="į" horiz-adv-x="376" d="M186 1145q-40 0 -66 28.5t-26 73.5t26.5 74t65.5 29q43 0 69 -28.5t26 -74.5q1 -45 -25.5 -73.5t-69.5 -28.5zM268 991v-991h-47q-84 -115 -84 -211q0 -43 26.5 -68.5t59.5 -25.5q54 0 86 18l23 -88q-58 -45 -148 -45q-79 0 -125.5 45.5t-46.5 124.5q0 47 21 102.5 t35.5 79.5t42.5 68v991h157z"/>
<glyph unicode="İ" horiz-adv-x="407" d="M123 1380h158v-1380h-158v1380zM205 1489q-38 0 -65 27t-27 65t27 64t65 26q37 0 63.5 -26t26.5 -64t-26.5 -65t-63.5 -27z"/>
<glyph unicode="ı" horiz-adv-x="376" d="M268 0h-157v991h157v-991z"/>
<glyph unicode="Ĳ" horiz-adv-x="950" d="M123 1380h158v-1380h-158v1380zM682 387v993h158v-991q0 -221 -82.5 -313t-241.5 -92q-65 0 -100 14l12 133q27 -8 76 -8q45 0 76 10.5t55 39t35.5 81t11.5 133.5z"/>
<glyph unicode="ĳ" horiz-adv-x="763" d="M268 0h-157v991h157v-991zM186 1350q43 0 69 -28.5t26 -74.5q1 -46 -26 -74t-71 -28q-39 0 -64.5 28.5t-25.5 73.5t26.5 74t65.5 29zM340 -410l-21 125q99 26 134 78q28 40 38.5 107.5t10.5 208.5v882h155v-928q0 -155 -22.5 -238.5t-77.5 -139.5q-41 -43 -103.5 -68 t-113.5 -27zM580 1350q42 0 67 -28.5t25 -74.5q2 -46 -24 -74t-70 -28q-40 0 -66.5 28.5t-26.5 73.5t27.5 74t67.5 29z"/>
<glyph unicode="Ĵ" horiz-adv-x="542" d="M274 387v993h158v-991q0 -221 -82 -313t-241 -92q-65 0 -103 14l14 133q27 -8 76 -8q45 0 76 10.5t55 39t35.5 81t11.5 133.5zM276 1655h136l180 -201h-139l-107 113h-4l-106 -113h-136z"/>
<glyph unicode="ĵ" horiz-adv-x="385" d="M-37 -410l-20 125q98 26 133 78q26 40 36.5 108t10.5 208v882h158v-928q0 -153 -23.5 -237t-77.5 -141q-41 -43 -103.5 -68t-113.5 -27zM143 1382h107l162 -276h-119l-94 176h-4l-95 -176h-120z"/>
<glyph unicode="Ķ" horiz-adv-x="827" d="M123 0v1380h158v-655h4q23 42 86 166l258 489h174l-338 -589l346 -791h-170l-283 666l-77 -134v-532h-158zM326 -424l-33 76q55 16 93 48t38 81q0 67 -70 125l127 22q29 -19 50.5 -57.5t21.5 -85.5q0 -90 -65 -142t-162 -67z"/>
<glyph unicode="ķ" d="M266 1417v-887h4q36 78 54 111l196 350h170l-262 -418l285 -573h-176l-215 467l-56 -92v-375h-157v1417h157zM266 -438l-35 76q56 16 95 48t39 81q0 66 -70 124l127 23q29 -19 49.5 -57t20.5 -86q0 -90 -64.5 -142t-161.5 -67z"/>
<glyph unicode="ĸ" d="M266 991v-461h4q36 78 54 111l196 350h170l-262 -418l285 -573h-176l-215 467l-56 -92v-375h-157v991h157z"/>
<glyph unicode="Ĺ" horiz-adv-x="704" d="M123 0v1380h158v-1247h389v-133h-547zM328 1675h186l-254 -221h-125z"/>
<glyph unicode="ĺ" horiz-adv-x="391" d="M111 0v1417h157v-1417h-157zM295 1696h186l-256 -221h-123z"/>
<glyph unicode="Ļ" horiz-adv-x="704" d="M123 0v1380h158v-1247h389v-133h-547zM256 -438l-33 76q55 16 93 48t38 81q0 67 -69 124l127 23q29 -19 50 -57t21 -86q0 -90 -64.5 -142t-162.5 -67z"/>
<glyph unicode="ļ" horiz-adv-x="391" d="M111 0v1417h157v-1417h-157zM88 -438l-33 76q55 16 93 48t38 81q0 70 -69 124l127 23q29 -19 50 -57t21 -86q0 -90 -64.5 -142t-162.5 -67z"/>
<glyph unicode="Ľ" horiz-adv-x="704" d="M123 0v1380h158v-1247h389v-133h-547zM410 1030l-33 76q53 14 92 46.5t39 80.5q0 67 -70 125l127 24q30 -21 51 -58.5t21 -84.5q0 -90 -64.5 -142t-162.5 -67z"/>
<glyph unicode="ľ" horiz-adv-x="397" d="M426 1034l-70 45q60 91 60 185q0 84 -66 139l117 24q29 -21 48.5 -59.5t19.5 -87.5q0 -35 -9 -70t-18.5 -57.5t-29.5 -51.5t-27 -37t-25 -30zM111 0v1417h157v-1417h-157z"/>
<glyph unicode="Ŀ" horiz-adv-x="704" d="M123 0v1380h158v-1247h389v-133h-547zM494 647q-38 0 -65.5 27.5t-27.5 64.5q0 38 27.5 65t65.5 27t64 -27t26 -65q0 -37 -26 -64.5t-64 -27.5z"/>
<glyph unicode="ŀ" horiz-adv-x="481" d="M434 715q-37 0 -61.5 27t-24.5 65t25 64t61 26q34 0 58 -26t24 -64q0 -39 -23.5 -65.5t-58.5 -26.5zM111 0v1417h157v-1417h-157z"/>
<glyph unicode="Ł" horiz-adv-x="718" d="M684 0h-547v524l-139 -133v144l139 133v712h158v-585l217 209v-146l-217 -207v-518h389v-133z"/>
<glyph unicode="ł" horiz-adv-x="405" d="M283 0h-158v606l-127 -129v139l127 132v669h158v-547l129 136v-144l-129 -135v-727z"/>
<glyph unicode="Ń" horiz-adv-x="952" d="M266 0h-143v1380h149l254 -647q132 -340 176 -481h5q-19 344 -19 635v493h141v-1380h-149l-262 664q-109 274 -164 469h-4q16 -245 16 -656v-477zM594 1675h186l-254 -221h-125z"/>
<glyph unicode="ń" horiz-adv-x="829" d="M111 0v735q0 68 -4 151.5t-5 104.5h138l8 -119h4q33 62 92 99t135 37q109 0 174.5 -85t65.5 -257v-666h-158v639q0 235 -137 235q-52 0 -94 -42t-56 -119q-6 -38 -6 -88v-625h-157zM506 1397h162l-215 -277h-105z"/>
<glyph unicode="Ņ" horiz-adv-x="952" d="M266 0h-143v1380h149l254 -647q132 -340 176 -481h5q-19 344 -19 635v493h141v-1380h-149l-262 664q-109 274 -164 469h-4q16 -245 16 -656v-477zM360 -432l-32 76q55 16 93 48t38 81q0 67 -70 125l127 22q29 -19 50.5 -57t21.5 -84q0 -91 -65 -143.5t-163 -67.5z"/>
<glyph unicode="ņ" horiz-adv-x="829" d="M111 0v735q0 68 -4 151.5t-5 104.5h138l8 -119h4q33 62 92 99t135 37q109 0 174.5 -85t65.5 -257v-666h-158v639q0 235 -137 235q-52 0 -94 -42t-56 -119q-6 -38 -6 -88v-625h-157zM324 -426l-35 76q53 14 92 46.5t39 80.5q0 69 -68 125l127 24q29 -21 49.5 -58.5 t20.5 -84.5q0 -90 -64 -142t-161 -67z"/>
<glyph unicode="Ň" horiz-adv-x="952" d="M266 0h-143v1380h149l254 -647q132 -340 176 -481h5q-19 344 -19 635v493h141v-1380h-149l-262 664q-109 274 -164 469h-4q16 -245 16 -656v-477zM543 1454h-135l-179 201h138l106 -119h4l107 119h135z"/>
<glyph unicode="ň" horiz-adv-x="829" d="M111 0v735q0 68 -4 151.5t-5 104.5h138l8 -119h4q33 62 92 99t135 37q109 0 174.5 -85t65.5 -257v-666h-158v639q0 235 -137 235q-52 0 -94 -42t-56 -119q-6 -38 -6 -88v-625h-157zM469 1120h-109l-161 277h118l95 -178h4l96 178h119z"/>
<glyph unicode="ŉ" horiz-adv-x="829" d="M109 1079l-76 41q59 81 59 166q0 79 -65 125l123 23q29 -19 48 -54t19 -80q0 -38 -11 -73.5t-32 -66.5t-33 -45t-32 -36zM111 0v735q0 68 -4 151.5t-5 104.5h138l8 -119h4q33 62 92 99t135 37q109 0 174.5 -85t65.5 -257v-666h-158v639q0 235 -137 235q-52 0 -94 -42 t-56 -119q-6 -38 -6 -88v-625h-157z"/>
<glyph unicode="Ŋ" horiz-adv-x="952" d="M266 0h-143v1380h149l254 -647q132 -340 176 -481h5q-19 344 -19 635v493h141v-1337q0 -177 -67 -283.5t-221 -140.5l-37 121q91 27 136.5 86.5t45.5 161.5l-268 676q-109 274 -164 469h-4q16 -245 16 -656v-477z"/>
<glyph unicode="ŋ" horiz-adv-x="829" d="M111 0v735q0 68 -4 151.5t-5 104.5h138l8 -119h4q33 62 92 99t135 37q109 0 174.5 -85t65.5 -257v-603q0 -363 -287 -417l-33 127q80 20 121 84t41 198v584q0 235 -137 235q-52 0 -94 -42t-56 -119q-6 -38 -6 -88v-625h-157z"/>
<glyph unicode="Ō" horiz-adv-x="913" d="M471 1397q177 0 277 -184t100 -513q0 -152 -20.5 -273t-56 -203t-86.5 -136.5t-109.5 -79t-126.5 -24.5q-176 0 -279.5 183.5t-103.5 524.5q0 336 110 520.5t295 184.5zM457 1257q-62 0 -108 -48t-71 -131t-37 -179.5t-12 -208.5q0 -113 12 -210t37.5 -179.5t71.5 -130 t109 -47.5q64 0 110 50t70 136t34.5 180.5t10.5 204.5q0 106 -10.5 198.5t-35 178.5t-71 136t-110.5 50zM242 1614h436v-109h-436v109z"/>
<glyph unicode="ō" horiz-adv-x="784" d="M399 1008q140 0 230 -132t90 -380q0 -111 -20 -200t-52.5 -146t-76 -95.5t-88.5 -54.5t-93 -16q-141 0 -231 130t-90 380q0 131 27.5 232.5t74.5 161.5t105 90t124 30zM393 881q-50 0 -85.5 -37.5t-52 -99.5t-23.5 -122t-7 -126q0 -54 4 -103.5t15.5 -103t30 -92 t50 -63.5t72.5 -25q48 0 82 37.5t50 99.5t23 123t7 127t-7 126t-23.5 122t-51.5 99.5t-84 37.5zM193 1292h403v-102h-403v102z"/>
<glyph unicode="Ŏ" horiz-adv-x="913" d="M471 1397q177 0 277 -184t100 -513q0 -152 -20.5 -273t-56 -203t-86.5 -136.5t-109.5 -79t-126.5 -24.5q-176 0 -279.5 183.5t-103.5 524.5q0 336 110 520.5t295 184.5zM457 1257q-62 0 -108 -48t-71 -131t-37 -179.5t-12 -208.5q0 -113 12 -210t37.5 -179.5t71.5 -130 t109 -47.5q64 0 110 50t70 136t34.5 180.5t10.5 204.5q0 106 -10.5 198.5t-35 178.5t-71 136t-110.5 50zM233 1659h95q7 -41 40 -64.5t83 -23.5q112 0 129 88h92q0 -90 -59 -143.5t-160 -53.5q-102 0 -161 52.5t-59 144.5z"/>
<glyph unicode="ŏ" horiz-adv-x="784" d="M399 1008q140 0 230 -132t90 -380q0 -111 -20 -200t-52.5 -146t-76 -95.5t-88.5 -54.5t-93 -16q-141 0 -231 130t-90 380q0 131 27.5 232.5t74.5 161.5t105 90t124 30zM393 881q-50 0 -85.5 -37.5t-52 -99.5t-23.5 -122t-7 -126q0 -54 4 -103.5t15.5 -103t30 -92 t50 -63.5t72.5 -25q48 0 82 37.5t50 99.5t23 123t7 127t-7 126t-23.5 122t-51.5 99.5t-84 37.5zM172 1370h88q4 -57 39 -92t88 -35q59 0 94 35t37 92h88q3 -102 -57 -166.5t-162 -64.5t-160 65.5t-55 165.5z"/>
<glyph unicode="Ő" horiz-adv-x="913" d="M471 1397q177 0 277 -184t100 -513q0 -152 -20.5 -273t-56 -203t-86.5 -136.5t-109.5 -79t-126.5 -24.5q-176 0 -279.5 183.5t-103.5 524.5q0 336 110 520.5t295 184.5zM457 1257q-62 0 -108 -48t-71 -131t-37 -179.5t-12 -208.5q0 -113 12 -210t37.5 -179.5t71.5 -130 t109 -47.5q64 0 110 50t70 136t34.5 180.5t10.5 204.5q0 106 -10.5 198.5t-35 178.5t-71 136t-110.5 50zM416 1675h166l-205 -202h-109zM676 1675h166l-205 -202h-109z"/>
<glyph unicode="ő" horiz-adv-x="784" d="M399 1008q140 0 230 -132t90 -380q0 -111 -20 -200t-52.5 -146t-76 -95.5t-88.5 -54.5t-93 -16q-141 0 -231 130t-90 380q0 131 27.5 232.5t74.5 161.5t105 90t124 30zM393 881q-50 0 -85.5 -37.5t-52 -99.5t-23.5 -122t-7 -126q0 -54 4 -103.5t15.5 -103t30 -92 t50 -63.5t72.5 -25q48 0 82 37.5t50 99.5t23 123t7 127t-7 126t-23.5 122t-51.5 99.5t-84 37.5zM369 1397h141l-213 -277h-90zM621 1397h143l-213 -277h-90z"/>
<glyph unicode="Œ" horiz-adv-x="1249" d="M1198 137v-137h-504q-29 -2 -78 -10q-40 -6 -75 -6q-105 0 -187.5 38t-135.5 102t-88 155t-49.5 190t-14.5 213q0 177 38 315.5t105 224.5t155.5 130.5t192.5 44.5q43 0 78 -6q9 -1 24.5 -4t27.5 -4.5t22 -2.5h465v-137h-369v-455h346v-133h-346v-518h393zM647 139v1096 q-39 22 -110 22q-43 0 -85 -17.5t-83 -60t-72 -105t-50 -161.5t-18 -221q-1 -127 17 -226.5t47.5 -162.5t71.5 -104.5t86.5 -58.5t95.5 -17q69 0 100 16z"/>
<glyph unicode="œ" horiz-adv-x="1247" d="M1188 485h-461q1 -109 19 -185t50.5 -116.5t71 -57.5t88.5 -17q67 0 172 41l29 -113q-86 -53 -231 -53q-91 0 -167 54t-108 155h-4q-30 -104 -101 -156.5t-155 -52.5q-142 0 -232.5 131t-90.5 379q0 128 27.5 229t74.5 161.5t106 92t125 31.5q85 0 154.5 -52t97.5 -151h4 q37 95 104.5 149t153.5 54q92 0 156 -65.5t91.5 -162t27.5 -211.5q0 -19 -1 -47.5t-1 -36.5zM403 881q-54 0 -92 -38t-55.5 -102t-24 -122t-6.5 -123q0 -69 7.5 -130t25.5 -122.5t56 -98t92 -36.5q52 0 88.5 35.5t54 97.5t24.5 123t7 133q0 69 -7 129t-24.5 121t-55 97 t-90.5 36zM729 598h309q3 137 -39.5 211t-101.5 74q-50 0 -88 -42.5t-57.5 -106t-22.5 -136.5z"/>
<glyph unicode="Ŕ" horiz-adv-x="837" d="M123 0v1360q98 26 227 26q211 0 312 -98q96 -99 96 -270q0 -254 -221 -354v-5q75 -23 118.5 -97t67.5 -212q44 -268 78 -350h-160q-29 60 -74 342q-23 142 -73.5 201t-151.5 59h-61v-602h-158zM281 1251v-528h65q114 0 183 75.5t69 200.5q0 258 -236 261q-51 0 -81 -9z M500 1675h186l-254 -221h-125z"/>
<glyph unicode="ŕ" horiz-adv-x="507" d="M109 0v735q0 49 -4 142.5t-5 113.5h142l8 -155h4q26 73 84 122.5t125 49.5q6 0 17 -1t16 -1v-162q-10 2 -33 2q-73 0 -126 -59t-65 -148q-6 -41 -6 -90v-549h-157zM369 1397h161l-215 -277h-104z"/>
<glyph unicode="Ŗ" horiz-adv-x="837" d="M123 0v1360q98 26 227 26q211 0 312 -98q96 -99 96 -270q0 -254 -221 -354v-5q75 -23 118.5 -97t67.5 -212q44 -268 78 -350h-160q-29 60 -74 342q-23 142 -73.5 201t-151.5 59h-61v-602h-158zM281 1251v-528h65q114 0 183 75.5t69 200.5q0 258 -236 261q-51 0 -81 -9z M322 -424l-35 76q55 16 93 48t38 81q0 69 -68 125l127 22q29 -19 49.5 -57t20.5 -86q0 -90 -64 -142t-161 -67z"/>
<glyph unicode="ŗ" horiz-adv-x="507" d="M109 0v735q0 49 -4 142.5t-5 113.5h142l8 -155h4q26 73 84 122.5t125 49.5q6 0 17 -1t16 -1v-162q-10 2 -33 2q-73 0 -126 -59t-65 -148q-6 -41 -6 -90v-549h-157zM113 -438l-33 76q55 16 93 48t38 81q0 66 -70 124l127 23q29 -19 50.5 -57.5t21.5 -85.5 q0 -90 -64.5 -142t-162.5 -67z"/>
<glyph unicode="Ř" horiz-adv-x="837" d="M123 0v1360q98 26 227 26q211 0 312 -98q96 -99 96 -270q0 -254 -221 -354v-5q75 -23 118.5 -97t67.5 -212q44 -268 78 -350h-160q-29 60 -74 342q-23 142 -73.5 201t-151.5 59h-61v-602h-158zM281 1251v-528h65q114 0 183 75.5t69 200.5q0 258 -236 261q-51 0 -81 -9z M469 1454h-135l-178 201h137l106 -119h4l107 119h135z"/>
<glyph unicode="ř" horiz-adv-x="507" d="M109 0v735q0 49 -4 142.5t-5 113.5h142l8 -155h4q26 73 84 122.5t125 49.5q6 0 17 -1t16 -1v-162q-10 2 -33 2q-73 0 -126 -59t-65 -148q-6 -41 -6 -90v-549h-157zM332 1120h-109l-162 277h117l96 -178h5l96 178h119z"/>
<glyph unicode="Ś" horiz-adv-x="739" d="M57 47l35 135q36 -24 91.5 -39.5t107.5 -15.5q106 0 167.5 64t61.5 169q0 89 -45 153.5t-137 133.5q-260 181 -260 383q0 158 100.5 260.5t263.5 102.5q60 0 114 -15.5t81 -36.5l-39 -135q-66 47 -164 47q-95 0 -146.5 -59t-51.5 -137q0 -40 9.5 -74t23 -58t43 -52.5 t54 -47.5t72.5 -53q124 -87 182 -184t58 -213q0 -175 -109.5 -281t-277.5 -106q-68 0 -135.5 18t-98.5 41zM471 1675h186l-256 -221h-125z"/>
<glyph unicode="ś" horiz-adv-x="591" d="M45 45l39 119q78 -51 160 -51q67 0 106 38.5t39 104.5q0 59 -27 102t-100 93q-101 66 -150 132.5t-49 149.5q0 119 78.5 197t194.5 78q93 0 178 -52l-43 -118q-64 43 -131 43q-61 0 -95 -37t-34 -88t25 -86t98 -86q97 -62 151 -134t54 -167q0 -143 -84 -219t-213 -76 q-56 0 -110.5 15.5t-86.5 41.5zM389 1397h162l-215 -277h-105z"/>
<glyph unicode="Ŝ" horiz-adv-x="739" d="M57 47l35 135q36 -24 91.5 -39.5t107.5 -15.5q106 0 167.5 64t61.5 169q0 89 -45 153.5t-137 133.5q-260 181 -260 383q0 158 100.5 260.5t263.5 102.5q60 0 114 -15.5t81 -36.5l-39 -135q-66 47 -164 47q-95 0 -146.5 -59t-51.5 -137q0 -40 9.5 -74t23 -58t43 -52.5 t54 -47.5t72.5 -53q124 -87 182 -184t58 -213q0 -175 -109.5 -281t-277.5 -106q-68 0 -135.5 18t-98.5 41zM317 1655h136l180 -201h-139l-107 113h-4l-107 -113h-135z"/>
<glyph unicode="ŝ" horiz-adv-x="591" d="M45 45l39 119q78 -51 160 -51q67 0 106 38.5t39 104.5q0 59 -27 102t-100 93q-101 66 -150 132.5t-49 149.5q0 119 78.5 197t194.5 78q93 0 178 -52l-43 -118q-64 43 -131 43q-61 0 -95 -37t-34 -88t25 -86t98 -86q97 -62 151 -134t54 -167q0 -143 -84 -219t-213 -76 q-56 0 -110.5 15.5t-86.5 41.5zM244 1397h106l162 -277h-119l-94 176h-4l-94 -176h-119z"/>
<glyph unicode="Ş" horiz-adv-x="739" d="M57 47l35 135q36 -24 91.5 -39.5t107.5 -15.5q106 0 167.5 64t61.5 169q0 89 -45 153.5t-137 133.5q-260 181 -260 383q0 158 100.5 260.5t263.5 102.5q60 0 114 -15.5t81 -36.5l-39 -135q-66 47 -164 47q-95 0 -146.5 -59t-51.5 -137q0 -40 9.5 -74t23 -58t43 -52.5 t54 -47.5t72.5 -53q124 -87 182 -184t58 -213q0 -142 -72.5 -239t-193.5 -132l-56 -106q55 -8 94 -48.5t39 -97.5q0 -81 -55 -121.5t-131 -40.5q-70 0 -135 37l31 86q50 -30 102 -30q76 0 76 63q0 73 -141 88l69 154h-14q-68 0 -135.5 18t-98.5 41z"/>
<glyph unicode="ş" horiz-adv-x="591" d="M45 45l39 119q78 -51 160 -51q67 0 106 38.5t39 104.5q0 59 -27 102t-100 93q-101 66 -150 132.5t-49 149.5q0 119 78.5 197t194.5 78q93 0 178 -52l-43 -118q-64 43 -131 43q-61 0 -95 -37t-34 -88t25 -86t98 -86q97 -62 151 -134t54 -167q0 -112 -53 -183.5t-142 -97.5 l-53 -104q55 -8 94 -48.5t39 -97.5q0 -81 -55 -121.5t-131 -40.5q-71 0 -136 37l31 86q50 -30 103 -30q73 0 73 61q0 76 -139 90l70 154h-9q-46 0 -98 14.5t-88 42.5z"/>
<glyph unicode="Š" horiz-adv-x="739" d="M57 47l35 135q36 -24 91.5 -39.5t107.5 -15.5q106 0 167.5 64t61.5 169q0 89 -45 153.5t-137 133.5q-260 181 -260 383q0 158 100.5 260.5t263.5 102.5q60 0 114 -15.5t81 -36.5l-39 -135q-66 47 -164 47q-95 0 -146.5 -59t-51.5 -137q0 -40 9.5 -74t23 -58t43 -52.5 t54 -47.5t72.5 -53q124 -87 182 -184t58 -213q0 -175 -109.5 -281t-277.5 -106q-68 0 -135.5 18t-98.5 41zM471 1454h-137l-178 201h139l104 -119h4l107 119h137z"/>
<glyph unicode="š" horiz-adv-x="591" d="M45 45l39 119q78 -51 160 -51q67 0 106 38.5t39 104.5q0 59 -27 102t-100 93q-101 66 -150 132.5t-49 149.5q0 119 78.5 197t194.5 78q93 0 178 -52l-43 -118q-64 43 -131 43q-61 0 -95 -37t-34 -88t25 -86t98 -86q97 -62 151 -134t54 -167q0 -143 -84 -219t-213 -76 q-56 0 -110.5 15.5t-86.5 41.5zM356 1120h-108l-162 277h119l94 -178h4l96 178h119z"/>
<glyph unicode="Ţ" d="M442 0h-26l-54 -102q55 -8 94.5 -48.5t39.5 -97.5q0 -81 -55.5 -121.5t-131.5 -40.5q-67 0 -135 37l33 86q46 -30 102 -30q31 0 52.5 14.5t21.5 48.5q0 73 -141 88l77 166h-34v1239h-252v141h661v-141h-252v-1239z"/>
<glyph unicode="ţ" horiz-adv-x="522" d="M494 870h-191v-587q0 -164 105 -164q36 0 63 6l6 -121q-46 -16 -117 -16h-2l-45 -90q54 -8 93.5 -49t39.5 -97q0 -81 -55 -121.5t-131 -40.5q-69 0 -137 37l33 86q50 -30 102 -30q74 0 74 61q0 76 -142 90l78 170q-35 12 -63 43q-60 69 -60 250v573h-120v121h120v217 l158 45v-262h191v-121z"/>
<glyph unicode="Ť" d="M285 0v1239h-252v141h661v-141h-252v-1239h-157zM428 1454h-135l-178 201h137l106 -119h4l107 119h135z"/>
<glyph unicode="ť" horiz-adv-x="542" d="M539 1098l-76 41q59 75 59 168q0 81 -61 127l121 22q69 -45 69 -135q0 -111 -112 -223zM145 1208l158 45v-262h191v-121h-191v-587q0 -164 105 -164q36 0 63 6l6 -121q-46 -16 -117 -16q-101 0 -155 59q-60 69 -60 250v573h-120v121h120v217z"/>
<glyph unicode="Ŧ" d="M694 1239h-252v-461h170v-116h-170v-662h-157v662h-172v116h172v461h-252v141h661v-141z"/>
<glyph unicode="ŧ" horiz-adv-x="522" d="M494 870h-191v-237h150v-109h-150v-241q0 -164 105 -164q36 0 63 6l6 -121q-46 -16 -117 -16q-101 0 -155 59q-60 69 -60 250v227h-110v109h110v237h-120v121h120v217l158 45v-262h191v-121z"/>
<glyph unicode="Ũ" horiz-adv-x="935" d="M121 1380h158v-925q0 -332 188 -332q190 0 190 332v925h158v-901q0 -256 -94.5 -375.5t-257.5 -119.5q-342 0 -342 477v919zM334 1470h-84q-2 87 30.5 140t90.5 53q7 0 13 -0.5t12.5 -2t11.5 -3t11.5 -4t10 -4t10 -5.5t9 -5t10 -5.5t8.5 -5.5q7 -4 21.5 -13t21 -13 t18 -7.5t21.5 -3.5q25 0 37.5 16.5t15.5 57.5h82q3 -184 -127 -184q-41 0 -100 35q-51 34 -74 34q-22 0 -33 -19t-16 -61z"/>
<glyph unicode="ũ" horiz-adv-x="815" d="M705 991v-721q0 -66 4 -167t4 -103h-138l-10 104h-4q-29 -46 -85 -83t-128 -37q-127 0 -184.5 95.5t-57.5 285.5v626h158v-604q0 -63 5.5 -109t20 -84t41 -57.5t66.5 -19.5q61 0 97.5 43t44.5 88q8 36 8 90v653h158zM272 1149h-86q-2 85 31 138.5t94 53.5q20 0 40.5 -6.5 t29 -10.5t31.5 -17q5 -3 17 -10.5t17.5 -10t14.5 -7t17 -6t16 -1.5q24 0 36 15.5t15 58.5h84q0 -87 -32.5 -136t-96.5 -49q-38 0 -101 35q-7 4 -24.5 15t-28.5 15.5t-22 4.5q-46 0 -52 -82z"/>
<glyph unicode="Ū" horiz-adv-x="935" d="M121 1380h158v-925q0 -332 188 -332q190 0 190 332v925h158v-901q0 -256 -94.5 -375.5t-257.5 -119.5q-342 0 -342 477v919zM248 1614h436v-109h-436v109z"/>
<glyph unicode="ū" horiz-adv-x="815" d="M705 991v-721q0 -66 4 -167t4 -103h-138l-10 104h-4q-29 -46 -85 -83t-128 -37q-127 0 -184.5 95.5t-57.5 285.5v626h158v-604q0 -63 5.5 -109t20 -84t41 -57.5t66.5 -19.5q61 0 97.5 43t44.5 88q8 36 8 90v653h158zM203 1292h403v-102h-403v102z"/>
<glyph unicode="Ŭ" horiz-adv-x="935" d="M121 1380h158v-925q0 -332 188 -332q190 0 190 332v925h158v-901q0 -256 -94.5 -375.5t-257.5 -119.5q-342 0 -342 477v919zM248 1653h94q6 -41 39 -64.5t84 -23.5q113 0 127 88h94q0 -90 -59 -143.5t-160 -53.5q-102 0 -160.5 52.5t-58.5 144.5z"/>
<glyph unicode="ŭ" horiz-adv-x="815" d="M705 991v-721q0 -66 4 -167t4 -103h-138l-10 104h-4q-29 -46 -85 -83t-128 -37q-127 0 -184.5 95.5t-57.5 285.5v626h158v-604q0 -63 5.5 -109t20 -84t41 -57.5t66.5 -19.5q61 0 97.5 43t44.5 88q8 36 8 90v653h158zM190 1370h89q5 -57 40 -92t87 -35q59 0 94 35t37 92 h88q3 -102 -57 -166.5t-162 -64.5t-160.5 66t-55.5 165z"/>
<glyph unicode="Ů" horiz-adv-x="935" d="M121 1380h158v-925q0 -332 188 -332q190 0 190 332v925h158v-901q0 -256 -94.5 -375.5t-257.5 -119.5q-342 0 -342 477v919zM469 1765q87 0 138.5 -52t51.5 -128q0 -74 -53.5 -126t-136.5 -52q-88 0 -141.5 51.5t-53.5 124.5q0 75 53.5 128.5t141.5 53.5zM467 1692 q-43 0 -68.5 -32.5t-25.5 -76.5q0 -38 26 -69t68 -31q43 0 68.5 30.5t25.5 73.5t-25.5 74t-68.5 31z"/>
<glyph unicode="ů" horiz-adv-x="815" d="M705 991v-721q0 -66 4 -167t4 -103h-138l-10 104h-4q-29 -46 -85 -83t-128 -37q-127 0 -184.5 95.5t-57.5 285.5v626h158v-604q0 -63 5.5 -109t20 -84t41 -57.5t66.5 -19.5q61 0 97.5 43t44.5 88q8 36 8 90v653h158zM410 1092q-86 0 -138.5 50t-52.5 124q0 78 52 130 t141 52q83 0 134.5 -51.5t51.5 -128.5q0 -75 -53.5 -125.5t-134.5 -50.5zM408 1163q45 0 71.5 31t26.5 76q0 44 -26 75t-74 31q-42 0 -67.5 -33t-25.5 -77q0 -39 26.5 -71t68.5 -32z"/>
<glyph unicode="Ű" horiz-adv-x="935" d="M121 1380h158v-925q0 -332 188 -332q190 0 190 332v925h158v-901q0 -256 -94.5 -375.5t-257.5 -119.5q-342 0 -342 477v919zM406 1675h165l-202 -202h-111zM668 1675h163l-202 -202h-111z"/>
<glyph unicode="ű" horiz-adv-x="815" d="M705 991v-721q0 -66 4 -167t4 -103h-138l-10 104h-4q-29 -46 -85 -83t-128 -37q-127 0 -184.5 95.5t-57.5 285.5v626h158v-604q0 -63 5.5 -109t20 -84t41 -57.5t66.5 -19.5q61 0 97.5 43t44.5 88q8 36 8 90v653h158zM385 1397h143l-213 -277h-90zM639 1397h141l-213 -277 h-90z"/>
<glyph unicode="Ų" horiz-adv-x="935" d="M662 -258l22 -88q-60 -45 -147 -45q-78 0 -125 42.5t-47 112.5q0 55 30 115t72 107h-25q-151 6 -236 120.5t-85 354.5v919h158v-925q0 -332 188 -332q190 0 190 332v925h158v-901q0 -364 -190 -454q-58 -44 -97 -106t-39 -116q0 -41 24 -62.5t58 -21.5q47 0 91 23z"/>
<glyph unicode="ų" horiz-adv-x="815" d="M705 991v-721q0 -154 14 -270h-33q-84 -115 -84 -211q0 -43 25.5 -68.5t60.5 -25.5q54 0 86 18l23 -88q-60 -45 -148 -45q-79 0 -125.5 45.5t-46.5 124.5q0 47 20.5 102t35.5 80.5t42 67.5l-10 104h-4q-29 -46 -85 -83t-128 -37q-127 0 -184.5 95.5t-57.5 285.5v626h158 v-604q0 -63 5.5 -109t20 -84t41 -57.5t66.5 -19.5q61 0 97.5 43t44.5 88q8 36 8 90v653h158z"/>
<glyph unicode="Ŵ" horiz-adv-x="1339" d="M455 0h-148l-266 1380h164l117 -665q46 -277 67 -498h8q6 61 16.5 133t17 109.5t25.5 136.5t23 121l127 663h135l127 -649q63 -335 80 -514h6q26 225 74 506l115 657h153l-268 -1380h-154l-133 672q-49 265 -69 452h-4q-33 -257 -76 -458zM606 1655h135l181 -201h-140 l-106 113h-4l-107 -113h-135z"/>
<glyph unicode="ŵ" horiz-adv-x="1159" d="M27 991h163l97 -485q6 -34 18 -100.5t21 -118.5t14 -97h8q18 133 62 312l114 489h121l109 -475q44 -197 63 -326h8q15 126 54 320l94 481h157l-249 -991h-129l-115 481q-28 109 -55 297h-4q-20 -150 -58 -303l-119 -475h-133zM526 1397h107l162 -277h-119l-94 176h-4 l-95 -176h-118z"/>
<glyph unicode="Ŷ" horiz-adv-x="806" d="M481 0h-157v584l-304 796h166l123 -346q61 -167 103 -311h4q39 141 100 317l117 340h166l-318 -790v-590zM342 1655h135l178 -201h-137l-106 113h-4l-107 -113h-135z"/>
<glyph unicode="ŷ" horiz-adv-x="708" d="M27 991h166l131 -569q5 -20 41 -205h4q9 52 43 203l116 571h156l-162 -637q-55 -226 -110.5 -381.5t-135.5 -257.5q-87 -109 -178 -151l-57 135q72 40 139 125q58 72 90 166q11 34 11 49q0 22 -5 37zM303 1397h107l161 -277h-116l-97 176h-4l-94 -176h-119z"/>
<glyph unicode="Ÿ" horiz-adv-x="806" d="M481 0h-157v584l-304 796h166l123 -346q61 -167 103 -311h4q39 141 100 317l117 340h166l-318 -790v-590zM250 1470q-37 0 -62.5 26.5t-25.5 68.5q0 41 25.5 68.5t62.5 27.5q39 0 63.5 -27t24.5 -69q0 -43 -24 -69t-64 -26zM582 1470q-39 0 -63.5 26.5t-24.5 68.5 q0 41 25.5 68.5t62.5 27.5q39 0 63.5 -27t24.5 -69q0 -43 -24 -69t-64 -26z"/>
<glyph unicode="Ź" horiz-adv-x="733" d="M41 0v94l473 1145v6h-434v135h610v-106l-465 -1133v-6h463v-135h-647zM481 1675h187l-256 -221h-125z"/>
<glyph unicode="ź" horiz-adv-x="641" d="M33 0v96l313 613q12 22 40 72.5t40 74.5v4h-354v131h528v-104l-309 -604q-11 -21 -39 -72t-41 -76v-4h389v-131h-567zM424 1397h162l-215 -277h-105z"/>
<glyph unicode="Ż" horiz-adv-x="733" d="M41 0v94l473 1145v6h-434v135h610v-106l-465 -1133v-6h463v-135h-647zM395 1477q-38 0 -65 27.5t-27 64.5q0 38 27 65t65 27t64 -27t26 -65q0 -37 -26 -64.5t-64 -27.5z"/>
<glyph unicode="ż" horiz-adv-x="641" d="M33 0v96l313 613q12 22 40 72.5t40 74.5v4h-354v131h528v-104l-309 -604q-11 -21 -39 -72t-41 -76v-4h389v-131h-567zM330 1159q-38 0 -64 26t-26 64q0 39 26.5 65.5t63.5 26.5t62.5 -25.5t25.5 -66.5q0 -38 -25 -64t-63 -26z"/>
<glyph unicode="Ž" horiz-adv-x="733" d="M41 0v94l473 1145v6h-434v135h610v-106l-465 -1133v-6h463v-135h-647zM455 1454h-136l-178 201h138l106 -119h4l107 119h135z"/>
<glyph unicode="ž" horiz-adv-x="641" d="M33 0v96l313 613q12 22 40 72.5t40 74.5v4h-354v131h528v-104l-309 -604q-11 -21 -39 -72t-41 -76v-4h389v-131h-567zM393 1120h-108l-162 277h119l94 -178h4l96 178h119z"/>
<glyph unicode="ƒ" horiz-adv-x="788" d="M160 709v122h166l14 111q50 406 322 406q64 0 112 -25l-24 -117q-43 15 -88 15q-138 0 -168 -260l-19 -130h187v-122h-197l-57 -471q-12 -97 -31.5 -165.5t-54 -124.5t-88.5 -84t-130 -28q-83 3 -129 35l31 115q48 -23 92 -23q67 0 106 70t60 239l51 437h-155z"/>
<glyph unicode="Ơ" horiz-adv-x="913" d="M459 123q64 0 110 50t70 136t34.5 180.5t10.5 204.5q0 106 -10.5 198.5t-35 178.5t-71 136t-110.5 50t-110.5 -50t-71.5 -135t-36 -180t-10 -200q-1 -108 10 -203.5t36 -180.5t72.5 -135t111.5 -50zM739 1489l121 22q33 -64 33 -137q0 -70 -38.5 -116.5t-109.5 -45.5 q103 -181 103 -512q0 -152 -20.5 -273t-56 -203t-86.5 -136.5t-109.5 -79t-126.5 -24.5q-176 0 -279.5 183.5t-103.5 524.5q0 336 110 520.5t295 184.5q76 0 145 -37q13 -8 32.5 -19.5t28 -16.5t19.5 -9t21 -4q29 0 41 16t12 49q0 44 -31 113z"/>
<glyph unicode="ơ" horiz-adv-x="784" d="M393 881q-50 0 -85.5 -37.5t-52 -99.5t-23.5 -122t-7 -126q0 -54 4 -103.5t15.5 -103t30 -92t50 -63.5t72.5 -25q48 0 82 37.5t50 99.5t23 123t7 127t-7 126t-23.5 122t-51.5 99.5t-84 37.5zM645 1120l119 21q35 -64 35 -135q0 -72 -41.5 -114.5t-114.5 -43.5 q76 -128 76 -352q0 -111 -20 -200t-52.5 -146t-76 -95.5t-88.5 -54.5t-93 -16q-141 0 -231 130t-90 380q0 131 27.5 232.5t74.5 161.5t105 90t124 30q49 0 113 -27q4 -2 27.5 -13.5t41 -16.5t35.5 -5q26 0 43 17t17 49q0 52 -31 108z"/>
<glyph unicode="Ư" horiz-adv-x="970" d="M831 1550l121 19q31 -64 31 -133q0 -148 -147 -154l-21 -2v-801q0 -256 -94.5 -375.5t-257.5 -119.5q-342 0 -342 477v919h158v-925q0 -332 188 -332q190 0 190 332v925h127q41 0 57.5 13t16.5 47q0 54 -27 110z"/>
<glyph unicode="ư" horiz-adv-x="815" d="M709 1165l120 19q33 -60 33 -131q0 -66 -36 -107.5t-109 -44.5l-12 -2v-629q0 -66 4 -167t4 -103h-138l-10 104h-4q-29 -46 -85 -83t-128 -37q-127 0 -184.5 95.5t-57.5 285.5v626h158v-604q0 -63 5.5 -109t20 -84t41 -57.5t66.5 -19.5q61 0 97.5 43t44.5 88q8 36 8 90 v653h119q40 0 55.5 15.5t15.5 50.5q0 54 -28 108z"/>
<glyph unicode="Ǻ" horiz-adv-x="890" d="M455 1409q-84 0 -129 42.5t-45 104.5q0 63 47.5 108.5t128.5 45.5t125.5 -43t44.5 -108q0 -62 -46 -106t-126 -44zM453 1479q39 0 61.5 23t22.5 59q0 33 -22 57t-62 24t-61 -24.5t-21 -58.5q0 -33 22 -56.5t60 -23.5zM582 1915h200l-278 -168h-133zM594 414h-305 l-92 -414h-152l315 1380h175l307 -1380h-156zM311 541h262l-71 350q-28 140 -56 315h-8q-24 -159 -55 -315z"/>
<glyph unicode="ǻ" horiz-adv-x="745" d="M479 1651h166l-239 -195h-107zM377 1057q-85 0 -138 50t-53 124q0 78 52 130t141 52q84 0 135 -51.5t51 -128.5q0 -76 -52.5 -126t-135.5 -50zM377 1128q45 0 70.5 31t25.5 76q0 44 -25.5 75t-72.5 31q-43 0 -67.5 -32.5t-24.5 -77.5q0 -40 25.5 -71.5t68.5 -31.5zM645 0 h-143l-10 104h-7q-68 -120 -196 -120q-101 0 -168.5 78t-67.5 204q0 72 22.5 132t61.5 101.5t93 70.5t115.5 42.5t129.5 14.5v30q0 109 -35 167.5t-123 58.5q-84 0 -163 -52l-35 111q34 26 98 46t133 20q285 0 285 -355v-428q0 -162 10 -225zM479 311v201q-22 0 -41.5 -1.5 t-48 -6.5t-52 -14t-49 -26.5t-42.5 -41t-28 -59.5t-11 -80q0 -89 36.5 -133t84.5 -44q54 0 94 39t53 111q4 18 4 55z"/>
<glyph unicode="Ǽ" horiz-adv-x="1138" d="M170 0h-154l416 1380h623v-137h-381l26 -463h351v-133h-338l28 -510h367v-137h-508l-27 455h-274zM332 582h229l-18 419q-2 51 -7 147t-6 122h-10q-71 -262 -80 -293zM786 1675h187l-254 -221h-125z"/>
<glyph unicode="ǽ" horiz-adv-x="1148" d="M1087 494h-458q0 -111 17.5 -188.5t50 -119t72 -59.5t91.5 -18q94 0 168 43l27 -113q-86 -55 -228 -55q-92 0 -168 50t-104 140h-4q-33 -89 -99 -139.5t-155 -50.5q-106 0 -175 78.5t-69 207.5q0 87 34 155t93 109.5t134.5 62.5t162.5 21v56q0 95 -41 152t-125 57 q-85 0 -159 -52l-35 109q42 28 103.5 48t123.5 20q82 0 144 -45t83 -134h4q33 84 98 131.5t144 47.5q92 0 155.5 -65t90.5 -161t27 -213q0 -12 -1.5 -36.5t-1.5 -38.5zM479 315v195q-32 0 -62 -3t-71.5 -17t-71.5 -37t-51.5 -67.5t-21.5 -104.5q0 -86 38 -129t91 -43 q51 0 91 39.5t52 109.5q6 18 6 57zM631 606h307q4 134 -38 207.5t-103 73.5q-50 0 -88.5 -42.5t-57 -105t-20.5 -133.5zM678 1397h160l-213 -277h-105z"/>
<glyph unicode="Ǿ" horiz-adv-x="913" d="M176 -76l-88 47l86 195q-108 182 -108 526q0 336 108 520.5t285 184.5q120 0 207 -84l61 143l94 -41l-82 -186q109 -184 109 -527q0 -188 -30.5 -329t-85.5 -224.5t-123.5 -124t-151.5 -40.5q-128 0 -211 92zM264 352l336 815q-59 90 -143 90q-63 0 -110 -48 t-73.5 -130.5t-39.5 -179.5t-13 -207q0 -212 39 -340h4zM649 1038l-344 -813q55 -102 152 -102q64 0 111 48.5t72.5 132.5t37.5 181t12 209q0 211 -37 344h-4zM563 1675h187l-256 -221h-123z"/>
<glyph unicode="ǿ" horiz-adv-x="784" d="M393 1008q91 0 168 -62l51 109l86 -45l-69 -140q90 -133 90 -374q0 -110 -20 -199.5t-52.5 -146.5t-76 -95.5t-87.5 -54.5t-90 -16q-94 0 -166 57l-53 -109l-80 52l64 131q-90 134 -90 379q0 131 27.5 232.5t74 161.5t103 90t120.5 30zM250 268l248 547q-26 66 -105 66 q-43 0 -76 -27t-51 -67t-29 -95t-14.5 -101t-3.5 -95q0 -130 27 -226zM539 713l-246 -541q29 -63 100 -63q51 0 87.5 36t54 96.5t25 119.5t7.5 124q0 125 -24 226zM471 1397h162l-215 -277h-105z"/>
<glyph unicode="Ș" horiz-adv-x="739" d="M57 47l35 135q36 -24 91.5 -39.5t107.5 -15.5q106 0 167.5 64t61.5 169q0 89 -45 153.5t-137 133.5q-260 181 -260 383q0 158 100.5 260.5t263.5 102.5q60 0 114 -15.5t81 -36.5l-39 -135q-66 47 -164 47q-95 0 -146.5 -59t-51.5 -137q0 -40 9.5 -74t23 -58t43 -52.5 t54 -47.5t72.5 -53q124 -87 182 -184t58 -213q0 -175 -109.5 -281t-277.5 -106q-68 0 -135.5 18t-98.5 41zM244 -438l-35 76q55 16 93 48t38 81q0 69 -70 124l129 23q29 -19 49.5 -57t20.5 -86q0 -90 -64 -142t-161 -67z"/>
<glyph unicode="ș" horiz-adv-x="591" d="M45 45l39 119q78 -51 160 -51q67 0 106 38.5t39 104.5q0 59 -27 102t-100 93q-101 66 -150 132.5t-49 149.5q0 119 78.5 197t194.5 78q93 0 178 -52l-43 -118q-64 43 -131 43q-61 0 -95 -37t-34 -88t25 -86t98 -86q97 -62 151 -134t54 -167q0 -143 -84 -219t-213 -76 q-56 0 -110.5 15.5t-86.5 41.5zM184 -438l-32 76q55 16 93 48t38 81q0 66 -70 124l127 23q29 -19 50.5 -57.5t21.5 -85.5q0 -90 -65 -142t-163 -67z"/>
<glyph unicode="Ț" d="M285 0v1239h-252v141h661v-141h-252v-1239h-157zM252 -438l-35 76q55 16 93 48t38 81q0 68 -67 124l127 23q29 -19 49 -57t20 -86q0 -90 -64 -142t-161 -67z"/>
<glyph unicode="ț" horiz-adv-x="522" d="M145 1208l158 45v-262h191v-121h-191v-587q0 -164 105 -164q36 0 63 6l6 -121q-46 -16 -117 -16q-101 0 -155 59q-60 69 -60 250v573h-120v121h120v217zM176 -438l-35 76q55 16 93 48t38 81q0 68 -67 124l127 23q29 -19 49 -57t20 -86q0 -90 -64 -142t-161 -67z"/>
<glyph unicode="Ȝ" horiz-adv-x="696" d="M66 -217l-19 127q83 14 158.5 51t136.5 93.5t97 137.5t36 175q0 115 -59 189.5t-158 74.5q-50 0 -127 -25l-25 119q114 25 205.5 125.5t91.5 232.5q0 80 -45.5 131.5t-121.5 51.5q-66 0 -156 -41l-31 112q38 25 99.5 42.5t123.5 17.5q128 0 205.5 -85.5t77.5 -205.5 q0 -119 -53.5 -215t-134.5 -146v-6q116 -23 192 -119t76 -247q0 -100 -34.5 -191.5t-91.5 -159.5t-131 -120.5t-154 -82t-158 -36.5z"/>
<glyph unicode="ȝ" horiz-adv-x="636" d="M39 -410l-12 129q74 7 145 34t131.5 71.5t97.5 114t37 153.5q0 90 -54.5 152.5t-158.5 62.5q-50 0 -116 -16l-21 119q123 30 203 98.5t80 179.5q0 86 -44 136t-116 50q-62 0 -150 -43l-32 115q39 26 97 44t118 18q126 0 201 -82t75 -201q0 -107 -49 -185t-131 -122v-4 q112 -21 184 -102.5t72 -209.5q0 -111 -49.5 -206t-130.5 -158.5t-178.5 -101.5t-198.5 -46z"/>
<glyph unicode="ˆ" horiz-adv-x="614" d="M254 1397h106l162 -277h-116l-97 176h-4l-94 -176h-119z"/>
<glyph unicode="ˇ" horiz-adv-x="614" d="M362 1120h-108l-162 277h119l94 -178h4l97 178h118z"/>
<glyph unicode="˘" horiz-adv-x="614" d="M90 1370h88q4 -57 39 -92t88 -35q59 0 94 35t37 92h88q3 -102 -57 -166.5t-162 -64.5t-160 65.5t-55 165.5z"/>
<glyph unicode="˙" horiz-adv-x="614" d="M309 1159q-38 0 -64 26t-26 64q0 39 26.5 65.5t63.5 26.5t62.5 -25.5t25.5 -66.5q0 -38 -25 -64t-63 -26z"/>
<glyph unicode="˚" horiz-adv-x="614" d="M240 1092q-86 0 -138.5 50t-52.5 124q0 78 52 130t141 52q83 0 134.5 -51.5t51.5 -128.5q0 -75 -53.5 -125.5t-134.5 -50.5zM238 1163q45 0 71.5 31t26.5 76q0 44 -26 75t-74 31q-42 0 -67.5 -33t-25.5 -77q0 -39 26.5 -71t68.5 -32z"/>
<glyph unicode="˛" horiz-adv-x="614" d="M252 10h110q-90 -134 -90 -209q0 -44 25 -69t59 -25q48 0 88 19l23 -88q-60 -46 -148 -46q-78 0 -125 45t-47 121q0 119 105 252z"/>
<glyph unicode="˜" horiz-adv-x="614" d="M172 1149h-86q-2 85 31 138.5t94 53.5q8 0 16 -1t13.5 -2t13.5 -4t12 -4t12.5 -5.5t10.5 -5.5t11.5 -6t10.5 -6q5 -3 17 -10.5t17.5 -10t14.5 -7t17 -6t16 -1.5q24 0 36 15.5t15 58.5h84q0 -87 -32.5 -136t-96.5 -49q-37 0 -100 35q-8 4 -20.5 12t-19.5 12t-17 7.5 t-19 3.5q-45 0 -51 -82z"/>
<glyph unicode="˝" horiz-adv-x="614" d="M229 1397h144l-213 -277h-90zM483 1397h144l-213 -277h-90z"/>
<glyph unicode=";" horiz-adv-x="409" d="M168 -244l-107 -14q31 104 59.5 242t33.5 235l176 10q-27 -116 -76.5 -259.5t-85.5 -213.5zM227 674q-46 0 -76 33.5t-30 87.5t30.5 89.5t77.5 35.5q48 0 77.5 -34t29.5 -91q0 -55 -28.5 -88t-80.5 -33z"/>
<glyph unicode="΄" horiz-adv-x="624" d="M221 1399h139l-114 -277h-92z"/>
<glyph unicode="΅" horiz-adv-x="716" d="M313 1417h133l-73 -301h-84zM150 1163q-37 0 -63 24t-26 60t26.5 59t62.5 23q32 0 54.5 -23t22.5 -59t-22 -60t-55 -24zM561 1163q-34 0 -59 24t-25 60t25 59t59 23q35 0 59.5 -23t24.5 -59t-24 -60t-60 -24z"/>
<glyph unicode="Ά" horiz-adv-x="909" d="M90 1380h135l-59 -303h-84zM612 414h-305l-92 -414h-152l316 1380h174l307 -1380h-155zM330 541h262l-72 350q-24 118 -55 315h-8q-21 -135 -56 -315z"/>
<glyph unicode="·" horiz-adv-x="409" d="M205 526q-48 0 -80.5 36t-32.5 93q0 55 33.5 92t79.5 37q51 0 81.5 -35t30.5 -94t-30 -94t-82 -35z"/>
<glyph unicode="Έ" horiz-adv-x="831" d="M8 1380h135l-59 -303h-84zM733 788v-133h-346v-518h393v-137h-551v1380h527v-137h-369v-455h346z"/>
<glyph unicode="Ή" horiz-adv-x="1054" d="M8 1380h135l-59 -303h-84zM229 1380h158v-592h387v592h158v-1380h-158v645h-387v-645h-158v1380z"/>
<glyph unicode="Ί" horiz-adv-x="509" d="M8 1380h135l-59 -303h-84zM229 1380h158v-1380h-158v1380z"/>
<glyph unicode="Ό" horiz-adv-x="987" d="M8 1380h135l-59 -303h-84zM545 1397q177 0 277 -184t100 -513q0 -189 -30.5 -329.5t-86 -223.5t-126.5 -123t-157 -40q-176 0 -279.5 183.5t-103.5 524.5q0 336 111 520.5t295 184.5zM532 1257q-63 0 -109 -48t-71 -131t-37 -179.5t-12 -208.5q0 -113 12 -210 t37.5 -179.5t72.5 -130t110 -47.5q64 0 109.5 49.5t69 136t34 181t10.5 204.5q0 105 -11 198t-35 178.5t-70 136t-110 50.5z"/>
<glyph unicode="Ύ" horiz-adv-x="1052" d="M8 1380h135l-59 -303h-84zM197 1260l30 133q24 -2 73 -25.5t89 -60.5q88 -79 150 -231.5t79 -350.5h7q20 181 82.5 321.5t140.5 225.5q45 48 95 81t73 40l35 -138q-111 -58 -206 -227.5t-134 -419.5q-21 -160 -21 -241v-367h-155v367q0 102 -15 237q-36 276 -120 440.5 t-203 215.5z"/>
<glyph unicode="Ώ" horiz-adv-x="1032" d="M8 1380h135l-59 -303h-84zM494 0h-363v135h203v6q-82 114 -134.5 277.5t-52.5 345.5q0 294 115 463.5t299 169.5q179 0 283 -169.5t104 -453.5q0 -191 -52.5 -358.5t-133.5 -274.5v-6h203v-135h-363v106q86 95 135 268.5t47 360.5q-1 95 -13 181t-37.5 166t-73 127.5 t-111.5 47.5t-112 -47t-74.5 -125t-39 -165t-12.5 -179q0 -174 53 -361t130 -274v-106z"/>
<glyph unicode="ΐ" horiz-adv-x="385" d="M172 1399h129l-72 -297h-84zM10 1151q-36 0 -61 23.5t-25 58.5q0 36 25 59t61 23q32 0 55 -22.5t23 -59.5q0 -35 -22.5 -58.5t-55.5 -23.5zM414 1151q-33 0 -57.5 23.5t-24.5 58.5q0 36 24.5 59t57.5 23q35 0 59.5 -22.5t24.5 -59.5q0 -35 -24.5 -58.5t-59.5 -23.5z M268 991v-784q0 -58 16 -79.5t58 -21.5l-12 -116q-30 -6 -60 -6q-33 0 -58.5 8t-49.5 29.5t-37.5 66t-13.5 109.5v794h157z"/>
<glyph unicode="Α" horiz-adv-x="890" d="M594 414h-305l-92 -414h-152l315 1380h175l307 -1380h-156zM311 541h262l-71 350q-28 140 -56 315h-8q-24 -159 -55 -315z"/>
<glyph unicode="Β" horiz-adv-x="851" d="M123 6v1354q107 26 231 26q204 0 305 -96q91 -85 91 -235q0 -106 -56 -186.5t-157 -120.5v-5q120 -32 188 -125t68 -227q0 -164 -99 -274q-111 -125 -364 -125q-132 0 -207 14zM281 1253v-458h71q99 0 169.5 68.5t70.5 174.5q0 103 -54 164.5t-173 61.5q-51 0 -84 -11z M281 674v-549q36 -8 79 -8q125 0 198 71.5t73 202.5q0 135 -81 208t-200 75h-69z"/>
<glyph unicode="Γ" horiz-adv-x="677" d="M123 1380h528v-133h-370v-1247h-158v1380z"/>
<glyph unicode="Δ" horiz-adv-x="892" d="M49 0v90l313 1290h175l309 -1288v-92h-797zM207 139h479l-170 715q-39 172 -67 352h-7q-25 -159 -67 -348z"/>
<glyph unicode="Ε" d="M627 788v-133h-346v-518h393v-137h-551v1380h526v-137h-368v-455h346z"/>
<glyph unicode="Ζ" horiz-adv-x="733" d="M41 0v94l473 1145v6h-434v135h610v-106l-465 -1133v-6h463v-135h-647z"/>
<glyph unicode="Η" horiz-adv-x="948" d="M123 1380h158v-592h387v592h157v-1380h-157v645h-387v-645h-158v1380z"/>
<glyph unicode="Θ" horiz-adv-x="919" d="M453 -16q-178 0 -282.5 183.5t-104.5 524.5q0 336 110.5 520.5t296.5 184.5q179 0 280 -184t101 -513q0 -152 -20.5 -273t-56.5 -203t-87 -136.5t-109.5 -79t-127.5 -24.5zM461 121q65 0 112.5 50t72 136t35.5 181.5t11 205.5q0 83 -6.5 159t-23 152t-41.5 131t-66 89.5 t-94 34.5q-64 0 -112 -50.5t-73 -136t-37 -180.5t-12 -201q0 -109 11.5 -204.5t37.5 -181t73 -135.5t112 -50zM307 782h305v-143h-305v143z"/>
<glyph unicode="Ι" horiz-adv-x="407" d="M123 1380h158v-1380h-158v1380z"/>
<glyph unicode="Κ" horiz-adv-x="827" d="M123 0v1380h158v-655h4q23 42 86 166l258 489h174l-338 -589l346 -791h-170l-283 666l-77 -134v-532h-158z"/>
<glyph unicode="Λ" horiz-adv-x="888" d="M844 0h-162l-178 829q-40 209 -62 359h-8q-25 -198 -57 -361l-174 -827h-160l317 1380h166z"/>
<glyph unicode="Μ" horiz-adv-x="1226" d="M987 0l-29 594q-20 373 -14 541h-8q-51 -256 -111 -480l-170 -647h-100l-162 621q-78 306 -112 506h-7q0 -157 -16 -551l-27 -584h-141l82 1380h170l162 -630q78 -303 110 -476h7q32 185 102 476l156 630h176l80 -1380h-148z"/>
<glyph unicode="Ν" horiz-adv-x="952" d="M266 0h-143v1380h149l254 -647q132 -340 176 -481h5q-19 344 -19 635v493h141v-1380h-149l-262 664q-109 274 -164 469h-4q16 -245 16 -656v-477z"/>
<glyph unicode="Ξ" horiz-adv-x="741" d="M72 1380h596v-137h-596v137zM109 784h520v-135h-520v135zM59 137h623v-137h-623v137z"/>
<glyph unicode="Ο" horiz-adv-x="913" d="M471 1397q177 0 277 -184t100 -513q0 -152 -20.5 -273t-56 -203t-86.5 -136.5t-109.5 -79t-126.5 -24.5q-176 0 -279.5 183.5t-103.5 524.5q0 336 110 520.5t295 184.5zM457 1257q-62 0 -108 -48t-71 -131t-37 -179.5t-12 -208.5q0 -113 12 -210t37.5 -179.5t71.5 -130 t109 -47.5q64 0 110 50t70 136t34.5 180.5t10.5 204.5q0 106 -10.5 198.5t-35 178.5t-71 136t-110.5 50z"/>
<glyph unicode="Π" horiz-adv-x="923" d="M801 1380v-1380h-158v1237h-362v-1237h-158v1380h678z"/>
<glyph unicode="Ρ" horiz-adv-x="817" d="M123 0v1360q102 26 229 26q203 0 305 -102q103 -100 103 -285q0 -171 -84 -282q-55 -74 -143 -114t-183 -40q-46 0 -69 2v-565h-158zM281 1247v-549q27 -6 61 -6q120 0 190 77t70 220q0 55 -12.5 101.5t-38.5 85t-72.5 60t-109.5 21.5q-55 0 -88 -10z"/>
<glyph unicode="Σ" horiz-adv-x="833" d="M217 145v-8h557v-137h-741v104l354 584l-334 588v104h676v-135h-483v-8l305 -541z"/>
<glyph unicode="Τ" d="M285 0v1239h-252v141h661v-141h-252v-1239h-157z"/>
<glyph unicode="Υ" horiz-adv-x="870" d="M12 1260l33 133q23 -2 73 -25.5t89 -60.5q88 -81 150.5 -233.5t76.5 -348.5h8q19 180 82 320.5t142 226.5q45 48 95 81t73 40l32 -138q-111 -58 -205 -227.5t-133 -419.5q-20 -127 -20 -241v-367h-158v367q0 129 -12 237q-36 275 -121 440t-205 216z"/>
<glyph unicode="Φ" horiz-adv-x="1032" d="M588 76v-103h-146v103q-56 9 -108 34t-102.5 73.5t-87.5 116t-60 168.5t-23 224q0 117 22.5 216.5t59.5 169t87 120.5t103.5 78t110.5 35v96h146v-96q165 -20 273 -182.5t108 -428.5q0 -151 -32.5 -270t-88 -192t-122 -113t-140.5 -49zM444 195v997q-93 -16 -158 -148.5 t-65 -357.5q0 -204 63.5 -333t159.5 -158zM588 1192v-997q102 21 162.5 152t60.5 353q0 218 -68.5 348t-154.5 144z"/>
<glyph unicode="Χ" horiz-adv-x="802" d="M774 0h-166l-125 332q-33 87 -84 241h-6q-65 -193 -84 -245l-119 -328h-161l284 705l-274 675h164l123 -319q12 -27 82 -219h4q65 203 73 225l113 313h162l-271 -671z"/>
<glyph unicode="Ψ" horiz-adv-x="1054" d="M967 1380v-383q0 -505 -367 -559v-438h-145v438q-183 27 -275 154.5t-92 370.5v417h148v-409q0 -195 53.5 -294t167.5 -114v817h141v-817q114 13 167.5 121t53.5 320v376h148z"/>
<glyph unicode="Ω" horiz-adv-x="966" d="M428 0h-362v135h202v6q-81 114 -133.5 278t-52.5 345q0 293 116 463t300 170q178 0 281.5 -169.5t103.5 -453.5q0 -190 -53 -357.5t-134 -275.5v-6h203v-135h-362v106q87 94 135.5 267t46.5 362q0 94 -12 181t-38 166.5t-74 127t-112 47.5q-51 0 -92.5 -32t-68 -83 t-44 -120t-25 -138.5t-7.5 -142.5q0 -175 52.5 -362t129.5 -273v-106z"/>
<glyph unicode="Ϊ" horiz-adv-x="407" d="M47 1454q-38 0 -64 26t-26 64q0 39 25.5 64.5t64.5 25.5q36 0 61 -25.5t25 -64.5q0 -38 -24.5 -64t-61.5 -26zM362 1454q-37 0 -63.5 26t-26.5 64q0 39 26.5 64.5t63.5 25.5t62 -25.5t25 -64.5q0 -38 -25 -64t-62 -26zM123 1380h158v-1380h-158v1380z"/>
<glyph unicode="Ϋ" horiz-adv-x="870" d="M289 1427q-38 0 -64 26.5t-26 64.5q0 39 26.5 64.5t63.5 25.5t61.5 -25.5t24.5 -64.5q0 -38 -24.5 -64.5t-61.5 -26.5zM606 1427q-38 0 -64 26.5t-26 64.5q0 39 25.5 64.5t64.5 25.5q36 0 61 -25.5t25 -64.5q0 -38 -24.5 -64.5t-61.5 -26.5zM12 1260l33 133 q23 -2 73 -25.5t89 -60.5q88 -81 150.5 -233.5t76.5 -348.5h8q19 180 82 320.5t142 226.5q45 48 95 81t73 40l32 -138q-111 -58 -205 -227.5t-133 -419.5q-20 -127 -20 -241v-367h-158v367q0 129 -12 237q-36 275 -121 440t-205 216z"/>
<glyph unicode="ά" horiz-adv-x="813" d="M426 1382h137l-112 -276h-93zM596 991h121q-9 -48 -16.5 -283.5t-6.5 -494.5q0 -109 66 -109l-17 -116q-14 -4 -38 -4q-122 0 -132 161h-8q-24 -65 -77.5 -113t-133.5 -48q-129 0 -207.5 130.5t-78.5 356.5q0 127 28.5 231.5t74 169.5t101 100.5t111.5 35.5 q130 0 184 -148h8q7 64 21 131zM225 477q0 -148 44 -255t116 -107q52 0 94.5 61t57.5 158q8 76 8 166q0 100 -4 149q-5 94 -45 159.5t-95 65.5q-80 0 -128 -116t-48 -281z"/>
<glyph unicode="έ" horiz-adv-x="663" d="M383 1382h139l-114 -276h-93zM606 152l21 -119q-82 -49 -234 -49q-89 0 -160.5 28.5t-119 96.5t-47.5 167t62 169.5t144 86.5v9q-72 21 -115.5 76t-43.5 133q0 106 84 182t225 76q123 0 180 -47l-31 -113q-64 33 -143 33q-76 0 -119 -42t-43 -100q0 -77 64.5 -113 t158.5 -36h31v-117h-39q-111 -2 -182.5 -47t-71.5 -137q0 -83 56 -130.5t139 -47.5q55 0 107 13.5t77 27.5z"/>
<glyph unicode="ή" horiz-adv-x="829" d="M424 1382h139l-114 -276h-93zM268 0h-157v735q0 167 -27 256h137q21 -50 27 -119h4q33 62 92 99t135 37q109 0 174.5 -85t65.5 -257v-744q0 -224 16 -315h-145q-29 79 -29 287v745q0 235 -137 235q-52 0 -94 -42t-56 -119q-6 -38 -6 -88v-625z"/>
<glyph unicode="ί" horiz-adv-x="385" d="M199 1384h145l-115 -276h-98zM268 991v-784q0 -58 16 -79.5t58 -21.5l-12 -116q-30 -6 -60 -6q-33 0 -58.5 8t-49.5 29.5t-37.5 66t-13.5 109.5v794h157z"/>
<glyph unicode="ΰ" horiz-adv-x="772" d="M338 1397h129l-72 -297h-84zM174 1147q-36 0 -62 24t-26 60t26 59t62 23q32 0 55 -23t23 -59t-23 -60t-55 -24zM582 1147q-33 0 -57.5 24t-24.5 60t24.5 59t57.5 23q35 0 59.5 -23t24.5 -59t-24 -60t-60 -24zM485 991h150q27 -65 45 -171t18 -224q0 -612 -329 -612 q-124 0 -196.5 79.5t-72.5 223.5v375q0 259 -16 329h152q20 -36 20 -200v-486q0 -92 35.5 -140t89.5 -48q45 0 77 31.5t50.5 91.5t26.5 138.5t8 182.5q0 136 -16.5 253t-41.5 177z"/>
<glyph unicode="α" horiz-adv-x="813" d="M596 991h121q-9 -48 -16.5 -283.5t-6.5 -494.5q0 -109 66 -109l-17 -116q-14 -4 -38 -4q-122 0 -132 161h-8q-24 -65 -77.5 -113t-133.5 -48q-129 0 -207.5 130.5t-78.5 356.5q0 127 28.5 231.5t74 169.5t101 100.5t111.5 35.5q130 0 184 -148h8q7 64 21 131zM225 477 q0 -148 44 -255t116 -107q52 0 94.5 61t57.5 158q8 76 8 166q0 100 -4 149q-5 94 -45 159.5t-95 65.5q-80 0 -128 -116t-48 -281z"/>
<glyph unicode="β" horiz-adv-x="827" d="M266 57h-4v-135q0 -207 19 -315h-144q-28 76 -28 284v1061q0 149 24 240.5t80 153.5q80 88 203 88q68 0 122 -29.5t86 -79t49 -109.5t17 -126q0 -121 -47.5 -199.5t-116.5 -116.5v-8q34 -11 64.5 -28.5t62.5 -49t55 -72t37.5 -100t14.5 -129.5q0 -186 -89 -294.5 t-222 -108.5q-117 0 -183 73zM262 985v-770q60 -100 162 -100q83 0 131.5 79.5t48.5 194.5q0 131 -59 210.5t-156 90.5q-12 2 -31 2v123q9 0 29 4q68 19 110 84t42 178q0 48 -12 96t-42.5 87t-74.5 39q-75 0 -111.5 -85t-36.5 -233z"/>
<glyph unicode="γ" horiz-adv-x="694" d="M408 -393h-152q6 235 -3 379.5t-46 298.5q-98 429 -217 706h166q51 -134 107 -344t87 -418h6q59 168 101.5 353.5t42.5 326.5v82h143q4 -28 4 -69q0 -164 -63 -387t-170 -457q-11 -25 -11 -47q7 -245 5 -424z"/>
<glyph unicode="δ" horiz-adv-x="798" d="M692 1348l-47 -105q-98 66 -188 66q-49 0 -76 -24t-27 -58q0 -31 21 -67t71 -103l121 -154q162 -210 162 -430q0 -227 -95 -358t-239 -131q-141 0 -234 126.5t-93 344.5q0 90 23.5 171.5t63.5 143t84 107t95 79.5v9l-27 32q-108 143 -108 230q0 80 65.5 143.5t188.5 63.5 q145 0 239 -86zM461 801l-49 65q-187 -139 -187 -413q0 -162 53.5 -253t122.5 -91q81 0 125.5 94.5t44.5 247.5q0 208 -110 350z"/>
<glyph unicode="ε" horiz-adv-x="663" d="M606 152l21 -119q-82 -49 -234 -49q-89 0 -160.5 28.5t-119 96.5t-47.5 167t62 169.5t144 86.5v9q-72 21 -115.5 76t-43.5 133q0 106 84 182t225 76q123 0 180 -47l-31 -113q-64 33 -143 33q-76 0 -119 -42t-43 -100q0 -77 64.5 -113t158.5 -36h31v-117h-39 q-111 -2 -182.5 -47t-71.5 -137q0 -83 56 -130.5t139 -47.5q55 0 107 13.5t77 27.5z"/>
<glyph unicode="ζ" horiz-adv-x="643" d="M512 -266l-111 33q65 111 74 208q-90 20 -176 62q-102 46 -166.5 148t-64.5 266q0 218 109 448.5t276 386.5v6h-95q-126 0 -184 19l19 112q77 -6 204 -6h226l28 -110q-104 -70 -201 -202.5t-160 -299.5t-63 -316q0 -78 13.5 -138t40 -100.5t59 -66.5t76.5 -45 q66 -30 198 -57q17 -3 17 -25q0 -82 -36.5 -175t-82.5 -148z"/>
<glyph unicode="η" horiz-adv-x="829" d="M268 0h-157v735q0 167 -27 256h137q21 -50 27 -119h4q33 62 92 99t135 37q109 0 174.5 -85t65.5 -257v-744q0 -224 16 -315h-145q-29 79 -29 287v745q0 235 -137 235q-52 0 -94 -42t-56 -119q-6 -38 -6 -88v-625z"/>
<glyph unicode="θ" horiz-adv-x="782" d="M389 -16q-321 0 -321 739q0 155 19 279t51 203t75 132t88.5 75t95.5 22q67 0 122.5 -37.5t100.5 -118t70 -222t25 -333.5q0 -178 -19 -312.5t-49 -214.5t-74 -129t-87.5 -66t-96.5 -17zM219 793h344q0 237 -46 377.5t-128 140.5q-73 0 -121.5 -144t-48.5 -374zM563 666 h-344q1 -272 46.5 -416t127.5 -144q170 0 170 560z"/>
<glyph unicode="ι" horiz-adv-x="385" d="M268 991v-784q0 -58 16 -79.5t58 -21.5l-12 -116q-30 -6 -60 -6q-33 0 -58.5 8t-49.5 29.5t-37.5 66t-13.5 109.5v794h157z"/>
<glyph unicode="κ" horiz-adv-x="757" d="M268 0h-155v754q0 165 -21 237h150q26 -41 26 -170v-276h6q61 90 163.5 253.5t121.5 192.5h170v-6q-142 -202 -317 -448v-7q30 -12 59 -40.5t57 -76t45 -80.5t44 -91q5 -11 8 -17l110 -225h-174l-104 227q-100 226 -172 226h-17v-453z"/>
<glyph unicode="λ" horiz-adv-x="690" d="M512 0l-119 530q-26 122 -47 234h-6q-24 -132 -45 -229l-125 -535h-156l248 926q4 16 4 45q0 17 -10 67q-38 142 -85 203.5t-105 61.5q-5 0 -23 -3l16 130q20 4 47 4q52 0 94 -21.5t72.5 -56.5t58 -93t46.5 -117.5t41 -144.5l252 -1001h-158z"/>
<glyph unicode="μ" horiz-adv-x="817" d="M575 102h-4q-21 -39 -68.5 -73.5t-103.5 -34.5q-98 0 -139 74v-146q0 -207 19 -315h-144q-26 80 -26 299v1085h157v-653q0 -223 131 -223q44 0 77.5 24.5t48 52t20.5 56.5q8 33 8 90v653h156v-778q0 -57 14 -84.5t49 -26.5l-16 -112q-21 -6 -52 -6q-103 0 -127 118z"/>
<glyph unicode="ν" horiz-adv-x="681" d="M12 991h160l115 -557q13 -71 43 -250h6q55 175 104 389t49 351q0 6 0.5 20t0.5 26t-1 21h144q4 -32 4 -63q0 -290 -254 -928h-141z"/>
<glyph unicode="ξ" horiz-adv-x="671" d="M569 848v-123h-34q-135 -6 -221.5 -85.5t-86.5 -209.5q0 -215 219 -295q97 -34 193 -53q20 -2 20 -25q0 -78 -36 -171.5t-80 -149.5l-113 31q58 99 74 208q-75 18 -134.5 40t-118 57.5t-97 81t-62.5 111t-24 145.5q0 138 71.5 238.5t190.5 146.5v10q-87 39 -136 116.5 t-49 172.5q0 149 93 244.5t245 95.5q98 0 164 -39l-29 -117q-72 29 -129 29q-65 0 -109.5 -35.5t-61.5 -81.5t-17 -96q0 -107 67.5 -170.5t168.5 -73.5q5 0 16 -1t16 -1z"/>
<glyph unicode="ο" horiz-adv-x="784" d="M399 1008q140 0 230 -132t90 -380q0 -111 -20 -200t-52.5 -146t-76 -95.5t-88.5 -54.5t-93 -16q-141 0 -231 130t-90 380q0 131 27.5 232.5t74.5 161.5t105 90t124 30zM393 881q-50 0 -85.5 -37.5t-52 -99.5t-23.5 -122t-7 -126q0 -54 4 -103.5t15.5 -103t30 -92 t50 -63.5t72.5 -25q48 0 82 37.5t50 99.5t23 123t7 127t-7 126t-23.5 122t-51.5 99.5t-84 37.5z"/>
<glyph unicode="π" horiz-adv-x="819" d="M778 860h-96v-620q0 -165 20 -240h-147q-29 56 -29 238v622h-202q-2 -214 -30 -467t-73 -393h-145q45 150 70.5 396.5t25.5 463.5q-68 0 -125 -10l-22 96q45 45 237 45h531z"/>
<glyph unicode="ρ" horiz-adv-x="808" d="M272 -393h-145q-25 77 -25 282v611q0 283 109 405q40 50 96 76.5t111 26.5q154 0 239.5 -133t85.5 -377q0 -131 -26 -232.5t-71 -161.5t-99.5 -90t-116.5 -30q-57 0 -100.5 27.5t-65.5 68.5h-4v-158q0 -213 12 -315zM260 541v-197q0 -55 8 -78q19 -83 57.5 -117t77.5 -34 q49 0 85 32.5t56.5 88.5t30 122.5t9.5 143.5q0 104 -15.5 183.5t-54.5 132t-98 52.5q-67 0 -111.5 -80t-44.5 -249z"/>
<glyph unicode="ς" horiz-adv-x="626" d="M602 981l-31 -125q-43 16 -90 16q-83 0 -142.5 -58.5t-85.5 -142t-26 -179.5q0 -129 41.5 -216t143.5 -137q49 -22 172 -59q14 -6 14 -19q0 -84 -36.5 -178t-82.5 -149l-110 33q65 102 75 206q-74 23 -145 56q-104 54 -167.5 168.5t-63.5 279.5q0 145 50 265.5t146 193 t219 72.5q70 0 119 -27z"/>
<glyph unicode="σ" horiz-adv-x="784" d="M760 1008l-8 -123q-65 -4 -166 8l-2 -6q64 -63 94.5 -170t30.5 -221q0 -110 -20 -199t-52 -146t-75 -96t-86.5 -55t-88.5 -16q-140 0 -229.5 130t-89.5 380q0 255 96.5 384.5t238.5 129.5h357zM391 109q47 0 80.5 37.5t49.5 99.5t23 123t7 127q0 64 -7.5 125.5t-24.5 123 t-50.5 99t-79.5 37.5q-49 0 -83 -37.5t-50.5 -99.5t-23.5 -122.5t-7 -125.5q0 -69 7.5 -131t24.5 -123t51.5 -97t82.5 -36z"/>
<glyph unicode="τ" horiz-adv-x="622" d="M498 111l-6 -117q-30 -10 -76 -10q-56 0 -94.5 22t-58.5 62.5t-28 87.5t-8 108v596h-86q-70 0 -116 -20l-25 102q14 18 62 33.5t118 15.5h434l-18 -131h-211v-602q0 -81 23 -115t55 -34q25 0 35 2z"/>
<glyph unicode="υ" horiz-adv-x="772" d="M485 991h150q27 -65 45 -171t18 -224q0 -612 -329 -612q-124 0 -196.5 79.5t-72.5 223.5v375q0 259 -16 329h152q20 -36 20 -200v-486q0 -92 35.5 -140t89.5 -48q45 0 77 31.5t50.5 91.5t26.5 138.5t8 182.5q0 136 -16.5 253t-41.5 177z"/>
<glyph unicode="φ" horiz-adv-x="1005" d="M293 1006l84 -78q-69 -73 -111.5 -181t-42.5 -239q0 -151 54.5 -259t152.5 -134v628q0 133 56 197t139 64q58 0 114 -33t100.5 -93t71.5 -153.5t27 -204.5q0 -122 -31.5 -221t-84 -161t-114.5 -97.5t-130 -44.5v-389h-148v389q-47 6 -93.5 24t-96 57t-87 94t-61.5 140.5 t-24 190.5q0 96 22.5 182t58.5 148t71.5 104t72.5 70zM575 766v-653q69 11 117.5 71.5t69 144.5t20.5 183q0 107 -25.5 194.5t-58.5 130t-63 42.5q-60 0 -60 -113z"/>
<glyph unicode="χ" horiz-adv-x="694" d="M23 991h159l170 -528h8q27 110 58 205l106 323h152l-250 -669l246 -701l-146 -37l-194 592h-4q-24 -109 -68 -248l-110 -344l-140 33l250 709z"/>
<glyph unicode="ψ" horiz-adv-x="997" d="M430 -393v377q-52 7 -94 20t-89.5 45t-79 80t-52.5 130t-21 190v303q0 182 -10 239h139q17 -49 17 -200v-310q0 -134 25.5 -218t65.5 -118.5t101 -44.5v1098h146v-1098q52 6 91 48t62 111.5t34 155t11 187.5q0 131 -14.5 237.5t-30.5 151.5h135q24 -54 41 -155t17 -213 q0 -605 -344 -639v-377h-150z"/>
<glyph unicode="ω" horiz-adv-x="1067" d="M606 682l-2 -391q0 -60 28 -117t77 -57q59 0 96 97t37 280q0 153 -39 282t-98 209v6h143q60 -59 105.5 -196.5t45.5 -300.5q0 -240 -78.5 -375t-205.5 -135q-121 0 -178 143h-7q-23 -64 -73 -103.5t-121 -39.5q-53 0 -100 29t-85 86t-60.5 154t-22.5 222q0 174 47 314.5 t104 201.5h141v-6q-60 -78 -98.5 -205.5t-38.5 -294.5q0 -183 37 -275.5t96 -92.5q35 0 60 30t35 68.5t10 77.5l-2 389h147z"/>
<glyph unicode="ϊ" horiz-adv-x="385" d="M33 1143q-40 0 -66 26t-26 66q0 39 26.5 65.5t65.5 26.5q37 0 62.5 -25.5t25.5 -66.5q0 -39 -25.5 -65.5t-62.5 -26.5zM348 1143q-38 0 -64 26t-26 66t26 66t64 26q39 0 63.5 -25.5t24.5 -66.5q0 -40 -25 -66t-63 -26zM268 991v-784q0 -58 16 -79.5t58 -21.5l-12 -116 q-30 -6 -60 -6q-33 0 -58.5 8t-49.5 29.5t-37.5 66t-13.5 109.5v794h157z"/>
<glyph unicode="ϋ" horiz-adv-x="772" d="M213 1143q-40 0 -66 26t-26 66q0 39 26.5 65.5t65.5 26.5q37 0 61.5 -25.5t24.5 -66.5q0 -40 -24.5 -66t-61.5 -26zM528 1143q-39 0 -65.5 26.5t-26.5 65.5t26.5 65.5t65.5 26.5t63.5 -25.5t24.5 -66.5q0 -40 -25 -66t-63 -26zM485 991h150q27 -65 45 -171t18 -224 q0 -612 -329 -612q-124 0 -196.5 79.5t-72.5 223.5v375q0 259 -16 329h152q20 -36 20 -200v-486q0 -92 35.5 -140t89.5 -48q45 0 77 31.5t50.5 91.5t26.5 138.5t8 182.5q0 136 -16.5 253t-41.5 177z"/>
<glyph unicode="ό" horiz-adv-x="784" d="M397 1382h140l-113 -276h-92zM399 1008q140 0 230 -132t90 -380q0 -111 -20 -200t-52.5 -146t-76 -95.5t-88.5 -54.5t-93 -16q-141 0 -231 130t-90 380q0 131 27.5 232.5t74.5 161.5t105 90t124 30zM393 881q-50 0 -85.5 -37.5t-52 -99.5t-23.5 -122t-7 -126 q0 -54 4 -103.5t15.5 -103t30 -92t50 -63.5t72.5 -25q48 0 82 37.5t50 99.5t23 123t7 127t-7 126t-23.5 122t-51.5 99.5t-84 37.5z"/>
<glyph unicode="ύ" horiz-adv-x="772" d="M385 1384h143l-112 -276h-99zM485 991h150q27 -65 45 -171t18 -224q0 -612 -329 -612q-124 0 -196.5 79.5t-72.5 223.5v375q0 259 -16 329h152q20 -36 20 -200v-486q0 -92 35.5 -140t89.5 -48q45 0 77 31.5t50.5 91.5t26.5 138.5t8 182.5q0 136 -16.5 253t-41.5 177z"/>
<glyph unicode="ώ" horiz-adv-x="1067" d="M551 1382h139l-112 -276h-93zM606 682l-2 -391q0 -60 28 -117t77 -57q59 0 96 97t37 280q0 153 -39 282t-98 209v6h143q60 -59 105.5 -196.5t45.5 -300.5q0 -240 -78.5 -375t-205.5 -135q-121 0 -178 143h-7q-23 -64 -73 -103.5t-121 -39.5q-53 0 -100 29t-85 86 t-60.5 154t-22.5 222q0 174 47 314.5t104 201.5h141v-6q-60 -78 -98.5 -205.5t-38.5 -294.5q0 -183 37 -275.5t96 -92.5q35 0 60 30t35 68.5t10 77.5l-2 389h147z"/>
<glyph unicode="Ё" d="M627 788v-133h-346v-518h393v-137h-551v1380h526v-137h-368v-455h346zM223 1485q-39 0 -63.5 26t-24.5 68q0 41 25.5 68.5t62.5 27.5q39 0 63.5 -27t24.5 -69q0 -43 -24 -68.5t-64 -25.5zM555 1485q-39 0 -63.5 26t-24.5 68q0 41 25 68.5t63 27.5q39 0 63.5 -27t24.5 -69 q0 -43 -24 -68.5t-64 -25.5z"/>
<glyph unicode="Ђ" horiz-adv-x="995" d="M33 1380h729v-143h-324v-393h4q77 47 166 47q83 0 152.5 -48t111.5 -138q68 -144 68 -365q0 -271 -119 -432q-96 -132 -227 -172l-39 131q95 41 154 141q67 109 67 340q0 188 -51 293q-25 53 -69.5 83t-96.5 30q-63 0 -121 -39v-715h-157v1237h-248v143z"/>
<glyph unicode="Ѓ" horiz-adv-x="694" d="M123 1380h541v-137h-383v-1243h-158v1380zM461 1675h186l-256 -221h-125z"/>
<glyph unicode="Є" horiz-adv-x="786" d="M727 1354l-35 -133q-55 32 -129 32q-73 0 -132.5 -32.5t-96.5 -83t-62 -116.5t-35.5 -127.5t-11.5 -121.5h418v-137h-416q2 -65 12 -129.5t34.5 -134t60.5 -122t94 -86.5t131 -34q88 0 164 31l27 -129q-102 -45 -201 -45q-123 0 -217.5 56t-151.5 154.5t-85.5 224 t-28.5 273.5q0 99 15 193t51 187.5t90.5 163.5t140.5 113.5t194 43.5q86 0 170 -41z"/>
<glyph unicode="Ѕ" horiz-adv-x="739" d="M57 47l35 135q36 -24 91.5 -39.5t107.5 -15.5q106 0 167.5 64t61.5 169q0 89 -45 153.5t-137 133.5q-260 181 -260 383q0 158 100.5 260.5t263.5 102.5q60 0 114 -15.5t81 -36.5l-39 -135q-66 47 -164 47q-95 0 -146.5 -59t-51.5 -137q0 -40 9.5 -74t23 -58t43 -52.5 t54 -47.5t72.5 -53q124 -87 182 -184t58 -213q0 -175 -109.5 -281t-277.5 -106q-68 0 -135.5 18t-98.5 41z"/>
<glyph unicode="І" horiz-adv-x="407" d="M123 1380h158v-1380h-158v1380z"/>
<glyph unicode="Ї" horiz-adv-x="407" d="M123 1380h158v-1380h-158v1380zM39 1485q-39 0 -63.5 26t-24.5 68q0 41 25.5 68.5t62.5 27.5q39 0 63.5 -27t24.5 -69q0 -43 -24 -68.5t-64 -25.5zM371 1485q-39 0 -64.5 26t-25.5 68q0 41 26 68.5t64 27.5q39 0 63.5 -27t24.5 -69q0 -43 -24 -68.5t-64 -25.5z"/>
<glyph unicode="Ј" horiz-adv-x="542" d="M274 387v993h158v-991q0 -221 -82 -313t-241 -92q-65 0 -103 14l14 133q27 -8 76 -8q45 0 76 10.5t55 39t35.5 81t11.5 133.5z"/>
<glyph unicode="Љ" horiz-adv-x="1300" d="M164 1380h561v-549q54 7 104 7q187 0 299.5 -112t112.5 -298q0 -180 -98 -295q-125 -141 -369 -141q-133 0 -205 14v1237h-258v-473q0 -121 -3 -205t-13 -177t-28 -156t-49.5 -118t-76.5 -87q-57 -41 -123 -41l-32 131q46 15 75 41q57 53 80 190.5t23 403.5v628zM725 700 v-573q27 -6 80 -6q130 0 202 84t72 217q0 127 -75.5 206t-200.5 79q-27 0 -78 -7z"/>
<glyph unicode="Њ" horiz-adv-x="1370" d="M123 1380h158v-573h356v573h156v-557q49 6 104 6q187 0 299.5 -108t112.5 -293q0 -179 -99 -295q-125 -141 -368 -141q-133 0 -205 14v662h-356v-668h-158v1380zM793 692v-565q27 -6 79 -6q130 0 202.5 83.5t72.5 215.5q0 128 -75 203t-202 75q-34 0 -77 -6z"/>
<glyph unicode="Ћ" horiz-adv-x="1026" d="M33 1380h708v-143h-307v-422h4q103 76 213 76q126 0 193 -86q74 -96 74 -264v-541h-156v524q0 125 -43 181q-38 53 -119 53q-83 0 -166 -62v-696h-158v1237h-243v143z"/>
<glyph unicode="Ќ" horiz-adv-x="800" d="M123 1380h156v-626h28l295 626h170l-338 -647q61 -13 106.5 -45t74.5 -82t46.5 -101t32.5 -122q7 -33 25 -120.5t33 -148t34 -114.5h-159q-15 41 -27.5 93t-30 140.5t-22.5 110.5q-11 55 -22.5 94.5t-30.5 79.5t-43.5 64.5t-62 39.5t-85.5 15h-24v-637h-156v1380z M508 1665h184l-254 -221h-125z"/>
<glyph unicode="Ў" horiz-adv-x="755" d="M10 1380h170l164 -561q33 -106 64 -239h6q1 5 51 243l123 557h160l-164 -614q-2 -7 -33.5 -122t-47 -165.5t-48.5 -141.5t-66 -155q-47 -91 -115.5 -144.5t-144.5 -53.5q-47 0 -74 8l8 129q20 -4 41 -4q40 0 77 25.5t64 66.5t46 82t31 82q11 35 -3 80zM152 1620h116 q16 -115 115 -115q98 0 117 115h114q-14 -101 -70.5 -150t-160.5 -49q-210 0 -231 199z"/>
<glyph unicode="Џ" horiz-adv-x="937" d="M123 1380h158v-1243h378v1243h156v-1380h-270l-10 -293h-132l-10 293h-270v1380z"/>
<glyph unicode="А" horiz-adv-x="890" d="M594 414h-305l-92 -414h-152l315 1380h175l307 -1380h-156zM311 541h262l-71 350q-28 140 -56 315h-8q-24 -159 -55 -315z"/>
<glyph unicode="Б" horiz-adv-x="856" d="M123 1380h586v-137h-428v-414q53 9 104 9q183 0 295 -109q117 -111 117 -301q0 -184 -99 -297q-121 -139 -368 -139q-132 0 -207 14v1374zM281 700v-573q27 -6 79 -6q139 0 211 94q64 83 64 205q0 123 -74 203q-77 84 -203 84q-30 0 -77 -7z"/>
<glyph unicode="В" horiz-adv-x="851" d="M123 6v1354q107 26 231 26q204 0 305 -96q91 -85 91 -235q0 -106 -56 -186.5t-157 -120.5v-5q120 -32 188 -125t68 -227q0 -164 -99 -274q-111 -125 -364 -125q-132 0 -207 14zM281 1253v-458h71q99 0 169.5 68.5t70.5 174.5q0 103 -54 164.5t-173 61.5q-51 0 -84 -11z M281 674v-549q36 -8 79 -8q125 0 198 71.5t73 202.5q0 135 -81 208t-200 75h-69z"/>
<glyph unicode="Г" horiz-adv-x="694" d="M123 1380h541v-137h-383v-1243h-158v1380z"/>
<glyph unicode="Д" horiz-adv-x="970" d="M266 1380h555v-1245l92 -2l-8 -420h-123l-10 287h-610l-8 -287h-125l-9 420l93 2q75 185 110 373q43 232 43 561v311zM410 1243v-207q0 -332 -37 -549q-31 -166 -99 -350h392v1106h-256z"/>
<glyph unicode="Е" d="M627 788v-133h-346v-518h393v-137h-551v1380h526v-137h-368v-455h346z"/>
<glyph unicode="Ж" horiz-adv-x="1206" d="M27 1380h174l299 -628h28v628h148v-628h31l297 628h174l-355 -643q52 -9 94 -34.5t70 -59t50.5 -80.5t35.5 -91.5t25 -100.5q4 -18 19 -89.5t22 -102.5t21.5 -84t29.5 -95h-156q-16 36 -30.5 94.5t-29.5 137.5t-20 100q-15 69 -30.5 115.5t-44 94t-74 71.5t-107.5 24h-22 v-637h-148v637h-20q-43 0 -78 -11t-61 -34t-44.5 -48.5t-33.5 -64t-24 -70.5t-19 -77q-5 -21 -20 -100t-29.5 -137.5t-30.5 -94.5h-152q15 42 29 93.5t21.5 87.5t20.5 99t19 91q15 70 34 125t50.5 108t80.5 87.5t112 45.5z"/>
<glyph unicode="З" horiz-adv-x="780" d="M98 1188l-41 121q114 88 283 88q159 0 248.5 -92.5t89.5 -239.5q0 -112 -68 -204t-174 -124v-4q132 -23 208.5 -118.5t76.5 -235.5q0 -182 -115 -288.5t-301 -106.5q-162 0 -268 67l39 131q99 -63 219 -63q125 0 194.5 71.5t69.5 188.5q0 133 -87.5 205.5t-225.5 72.5 h-43v127h30q111 0 198 75.5t87 182.5q0 99 -58.5 158.5t-158.5 59.5q-94 0 -203 -72z"/>
<glyph unicode="И" horiz-adv-x="950" d="M123 1380h143v-493q0 -308 -18 -633h4q21 68 48.5 143.5t74 194t55.5 143.5l248 645h147v-1380h-141v477q0 406 16 651h-4q-17 -60 -40.5 -128.5t-39.5 -111.5t-45.5 -118.5t-40.5 -103.5l-258 -666h-149v1380z"/>
<glyph unicode="Й" horiz-adv-x="950" d="M123 1380h143v-493q0 -308 -18 -633h4q21 68 48.5 143.5t74 194t55.5 143.5l248 645h147v-1380h-141v477q0 406 16 651h-4q-17 -60 -40.5 -128.5t-39.5 -111.5t-45.5 -118.5t-40.5 -103.5l-258 -666h-149v1380zM244 1628h114q9 -51 35 -81.5t82 -30.5q53 0 80.5 31 t34.5 81h117q-26 -198 -234 -198q-101 0 -160.5 49.5t-68.5 148.5z"/>
<glyph unicode="К" horiz-adv-x="800" d="M123 1380h156v-626h28l295 626h170l-338 -647q61 -13 106.5 -45t74.5 -82t46.5 -101t32.5 -122q7 -33 25 -120.5t33 -148t34 -114.5h-159q-15 41 -27.5 93t-30 140.5t-22.5 110.5q-11 55 -22.5 94.5t-30.5 79.5t-43.5 64.5t-62 39.5t-85.5 15h-24v-637h-156v1380z"/>
<glyph unicode="Л" horiz-adv-x="884" d="M166 1380h594v-1380h-158v1243h-291v-471q0 -125 -2.5 -206.5t-12 -176.5t-27 -156.5t-49 -116.5t-77.5 -87q-56 -43 -127 -43l-30 133q45 10 73 35q61 54 84 192t23 404v630z"/>
<glyph unicode="М" horiz-adv-x="1226" d="M987 0l-29 594q-20 373 -14 541h-8q-51 -256 -111 -480l-170 -647h-100l-162 621q-78 306 -112 506h-7q0 -157 -16 -551l-27 -584h-141l82 1380h170l162 -630q78 -303 110 -476h7q32 185 102 476l156 630h176l80 -1380h-148z"/>
<glyph unicode="Н" horiz-adv-x="948" d="M123 1380h158v-592h387v592h157v-1380h-157v645h-387v-645h-158v1380z"/>
<glyph unicode="О" horiz-adv-x="913" d="M471 1397q177 0 277 -184t100 -513q0 -152 -20.5 -273t-56 -203t-86.5 -136.5t-109.5 -79t-126.5 -24.5q-176 0 -279.5 183.5t-103.5 524.5q0 336 110 520.5t295 184.5zM457 1257q-62 0 -108 -48t-71 -131t-37 -179.5t-12 -208.5q0 -113 12 -210t37.5 -179.5t71.5 -130 t109 -47.5q64 0 110 50t70 136t34.5 180.5t10.5 204.5q0 106 -10.5 198.5t-35 178.5t-71 136t-110.5 50z"/>
<glyph unicode="П" horiz-adv-x="937" d="M123 1380h692v-1380h-158v1243h-376v-1243h-158v1380z"/>
<glyph unicode="Р" horiz-adv-x="817" d="M123 0v1360q102 26 229 26q203 0 305 -102q103 -100 103 -285q0 -171 -84 -282q-55 -74 -143 -114t-183 -40q-46 0 -69 2v-565h-158zM281 1247v-549q27 -6 61 -6q120 0 190 77t70 220q0 55 -12.5 101.5t-38.5 85t-72.5 60t-109.5 21.5q-55 0 -88 -10z"/>
<glyph unicode="С" horiz-adv-x="763" d="M700 158l25 -133q-69 -37 -197 -37q-211 0 -336.5 173t-125.5 513q0 157 30 283.5t78.5 206t113.5 132.5t130.5 75t134.5 22q116 0 172 -35l-35 -133q-66 28 -139 28q-46 0 -90 -17.5t-86 -60t-73.5 -105.5t-51 -161.5t-19.5 -220.5q0 -123 18 -220t47.5 -160t72 -104.5 t88.5 -59t98 -17.5q81 0 145 31z"/>
<glyph unicode="Т" d="M285 0v1239h-252v141h661v-141h-252v-1239h-157z"/>
<glyph unicode="У" horiz-adv-x="755" d="M10 1380h170l164 -561q33 -106 64 -239h6q1 5 51 243l123 557h160l-164 -614q-2 -7 -33.5 -122t-47 -165.5t-48.5 -141.5t-66 -155q-47 -91 -115.5 -144.5t-144.5 -53.5q-47 0 -74 8l8 129q20 -4 41 -4q40 0 77 25.5t64 66.5t46 82t31 82q11 35 -3 80z"/>
<glyph unicode="Ф" horiz-adv-x="1038" d="M449 1419h145v-108q81 -8 149 -48t120.5 -112.5t82 -188t29.5 -264.5q0 -135 -22 -241.5t-58 -174t-87.5 -113t-104 -66.5t-113.5 -27v-115h-144v115q-62 8 -114 28.5t-103 65t-85.5 110.5t-56 171.5t-21.5 240.5q0 126 22.5 229.5t59 171.5t87 116.5t103.5 72t111 29.5 v108zM449 193v1001q-46 -6 -84 -36t-70.5 -87.5t-51 -155.5t-18.5 -229q0 -232 62 -352t162 -141zM592 1194v-1001q223 39 223 507q0 127 -20 224.5t-53.5 152.5t-71 83.5t-78.5 33.5z"/>
<glyph unicode="Х" horiz-adv-x="802" d="M774 0h-166l-125 332q-33 87 -84 241h-6q-65 -193 -84 -245l-119 -328h-161l284 705l-274 675h164l123 -319q12 -27 82 -219h4q65 203 73 225l113 313h162l-271 -671z"/>
<glyph unicode="Ц" horiz-adv-x="962" d="M123 1380h158v-1243h376v1243h156v-1245l92 -2l-8 -420h-125l-8 287h-641v1380z"/>
<glyph unicode="Ч" horiz-adv-x="892" d="M111 1380h155v-462q0 -238 187 -238q91 0 159 43v657h156v-1380h-154v596h-8q-104 -49 -205 -49q-138 0 -214 85t-76 255v493z"/>
<glyph unicode="Ш" horiz-adv-x="1294" d="M123 1380h156v-1243h292v1243h154v-1243h293v1243h153v-1380h-1048v1380z"/>
<glyph unicode="Щ" horiz-adv-x="1318" d="M123 1380h156v-1243h292v1243h154v-1243h293v1243h153v-1245l91 -2l-7 -420h-125l-10 287h-997v1380z"/>
<glyph unicode="Ъ" horiz-adv-x="1048" d="M31 1380h444v-549q58 7 105 7q189 0 301 -112t112 -298q0 -188 -100 -297q-118 -139 -369 -139q-130 0 -205 14v1239h-288v135zM477 700v-573q37 -6 80 -6q128 0 200 83.5t72 215.5q0 129 -74.5 208t-199.5 79q-31 0 -78 -7z"/>
<glyph unicode="Ы" horiz-adv-x="1200" d="M123 1380h158v-551q50 9 100 9q185 0 297.5 -111.5t112.5 -296.5q0 -175 -99 -295q-124 -143 -370 -143q-124 0 -199 14v1374zM281 700v-573q27 -6 73 -6q128 0 200.5 83.5t72.5 215.5q0 128 -74.5 207.5t-196.5 79.5q-35 0 -75 -7zM918 1380h157v-1380h-157v1380z"/>
<glyph unicode="Ь" horiz-adv-x="854" d="M123 1380h158v-549q51 7 104 7q189 0 300.5 -110.5t111.5 -299.5q0 -177 -99 -293q-124 -143 -370 -143q-130 0 -205 14v1374zM281 700v-573q27 -6 75 -6q129 0 204 83.5t75 215.5q0 127 -75.5 207t-201.5 80q-37 0 -77 -7z"/>
<glyph unicode="Э" horiz-adv-x="792" d="M150 637v141h417q0 50 -6.5 101t-20 105.5t-38 101.5t-57.5 85t-81 60t-106 22q-80 0 -149 -32l-41 129q96 45 196 45q80 0 147 -23t114 -62t83.5 -94.5t59 -116t36.5 -132t19.5 -136.5t5.5 -135q0 -108 -17.5 -208.5t-55.5 -192.5t-94 -160t-139.5 -108.5t-184.5 -40.5 q-115 0 -203 47l37 129q76 -35 157 -35q75 0 135 34.5t96 87.5t60 123t34 135t11 130h-415z"/>
<glyph unicode="Ю" horiz-adv-x="1236" d="M123 1380h156v-589h151q17 293 120 449.5t263 156.5q168 0 264.5 -184.5t96.5 -512.5q0 -152 -19.5 -273t-54 -203t-83 -136.5t-104.5 -79t-120 -24.5q-160 0 -258.5 169.5t-104.5 495.5h-151v-649h-156v1380zM801 123q59 0 102.5 50t66.5 135.5t33.5 181t10.5 204.5 q0 105 -10.5 198.5t-33.5 178.5t-66.5 135.5t-102.5 50.5t-103 -50t-67.5 -135.5t-34 -179.5t-10.5 -200q0 -108 10.5 -203t34 -180.5t67.5 -135.5t103 -50z"/>
<glyph unicode="Я" horiz-adv-x="831" d="M186 0h-163q27 58 47 143q8 35 26.5 144t42 182t64.5 123q42 51 104 67v5q-106 33 -169.5 117.5t-63.5 217.5q0 100 36 178.5t99 127.5q107 81 274 81q135 0 226 -24v-1362h-158v602h-57q-105 0 -158 -63q-32 -39 -52.5 -109.5t-37 -174t-23.5 -134.5q-14 -71 -37 -121z M551 725v526q-45 9 -82 9q-117 0 -176.5 -73t-59.5 -192q0 -124 73.5 -198t189.5 -74q35 0 55 2z"/>
<glyph unicode="а" horiz-adv-x="745" d="M645 0h-143l-10 104h-7q-68 -120 -196 -120q-101 0 -168.5 78t-67.5 204q0 72 22.5 132t61.5 101.5t93 70.5t115.5 42.5t129.5 14.5v30q0 109 -35 167.5t-123 58.5q-84 0 -163 -52l-35 111q34 26 98 46t133 20q285 0 285 -355v-428q0 -162 10 -225zM479 311v201 q-22 0 -41.5 -1.5t-48 -6.5t-52 -14t-49 -26.5t-42.5 -41t-28 -59.5t-11 -80q0 -89 36.5 -133t84.5 -44q54 0 94 39t53 111q4 18 4 55z"/>
<glyph unicode="б" horiz-adv-x="794" d="M664 1434l-9 -138q-18 -7 -46.5 -14.5t-69 -17t-64.5 -15.5q-79 -18 -126.5 -58t-78.5 -106q-46 -99 -61 -258h4q26 69 88 116.5t137 47.5q130 0 209.5 -119.5t79.5 -367.5q0 -254 -85 -387t-234 -133q-66 0 -119.5 26.5t-88.5 73.5t-60.5 104.5t-38.5 128t-19 135.5 t-6 134q0 383 94 567q88 178 276 227q17 4 103 23t115 31zM569 487q0 63 -7 121.5t-23.5 119t-52 97.5t-85.5 37q-98 0 -139 -110q-33 -83 -33 -209q0 -56 6.5 -117.5t23 -138t54.5 -125.5t93 -49q50 0 84.5 38t50.5 100.5t22 119t6 116.5z"/>
<glyph unicode="в" horiz-adv-x="806" d="M111 -4v991q110 21 223 21q53 0 101.5 -6t98.5 -23.5t86 -44t59 -71t23 -101.5q0 -87 -54.5 -150.5t-141.5 -85.5v-4q109 -19 173 -84t64 -164q0 -82 -39.5 -141.5t-105.5 -90t-136 -43.5t-149 -13q-137 0 -202 10zM264 885v-314h72q78 0 146.5 47.5t68.5 120.5 q0 81 -56.5 117.5t-148.5 36.5q-28 0 -82 -8zM262 459v-355q54 -6 82 -6q103 0 172.5 42t69.5 134q0 63 -39 106.5t-94.5 61t-122.5 17.5h-68z"/>
<glyph unicode="г" horiz-adv-x="598" d="M111 991h460v-135h-305v-856h-155v991z"/>
<glyph unicode="д" horiz-adv-x="854" d="M217 991h504v-868l84 -2l-10 -385h-119l-10 264h-512l-11 -264h-120l-9 385l66 2q62 100 92 211q45 164 45 366v291zM356 864v-145q0 -243 -41 -393q-28 -112 -79 -201h329v739h-209z"/>
<glyph unicode="е" horiz-adv-x="743" d="M682 481h-461q2 -368 236 -368q98 0 164 39l24 -117q-83 -47 -217 -47q-175 0 -267.5 132.5t-92.5 364.5q0 240 91.5 381.5t241.5 141.5q73 0 129 -36.5t89 -99t49 -139t16 -164.5q0 -63 -2 -88zM223 598h309q3 140 -40.5 213.5t-106.5 73.5q-71 0 -114 -87t-48 -200z "/>
<glyph unicode="ж" horiz-adv-x="1097" d="M27 991h172l241 -436h33v436h152v-436h34l240 436h174l-297 -454q167 -33 225 -271q47 -197 80 -266h-153q-32 55 -68 219q-33 125 -86 177.5t-133 52.5h-16v-449h-152v449h-16q-52 0 -86.5 -13t-59.5 -46t-41 -72t-37 -109q-36 -153 -63 -209h-154q9 19 18 42t19 56.5 t15 49.5t16.5 59.5t13.5 50.5q66 247 224 279z"/>
<glyph unicode="з" horiz-adv-x="690" d="M172 457v114h55q78 0 140.5 46.5t62.5 123.5q0 71 -44 109.5t-116 38.5q-88 0 -174 -51l-33 100q103 70 246 70q124 0 201.5 -66.5t77.5 -181.5q0 -87 -56.5 -148.5t-146.5 -85.5v-2q107 -16 173.5 -81.5t66.5 -168.5q0 -72 -31 -129t-83.5 -91t-116.5 -52t-134 -18 q-129 0 -233 55l36 113q94 -50 185 -50q97 0 157 50.5t60 121.5q0 64 -36 107t-86.5 59.5t-111.5 16.5h-59z"/>
<glyph unicode="и" horiz-adv-x="831" d="M111 991h143v-340q0 -288 -12 -475h4q14 41 145 385l166 430h166v-991h-145v326q0 270 14 483h-4q-51 -170 -119 -342q-127 -316 -197 -467h-161v991z"/>
<glyph unicode="й" horiz-adv-x="831" d="M111 991h143v-340q0 -288 -12 -475h4q14 41 145 385l166 430h166v-991h-145v326q0 270 14 483h-4q-51 -170 -119 -342q-127 -316 -197 -467h-161v991zM184 1366h111q12 -137 121 -137q107 0 123 137h110q-25 -227 -235 -227q-208 0 -230 227z"/>
<glyph unicode="к" horiz-adv-x="751" d="M111 991h153v-430h23l260 430h176l-309 -446q171 -29 239 -281q56 -203 82 -264h-160q-26 59 -71 231q-32 109 -81.5 162t-141.5 53h-17v-446h-153v991z"/>
<glyph unicode="л" horiz-adv-x="784" d="M150 991h526v-991h-158v860h-217v-313q0 -237 -33 -362.5t-135 -174.5q-47 -24 -104 -24l-29 125q52 11 84 47q39 39 52.5 131t13.5 248v454z"/>
<glyph unicode="м" horiz-adv-x="1101" d="M78 0l69 991h187l129 -436q59 -193 90 -315h4q45 186 84 315l125 436h190l68 -991h-150l-18 426q-10 210 -14 416h-6q-34 -152 -99 -381l-133 -455h-115l-129 440q-52 173 -102 398h-4q-3 -234 -14 -426l-17 -418h-145z"/>
<glyph unicode="н" horiz-adv-x="829" d="M111 991h157v-420h293v420h158v-991h-158v436h-293v-436h-157v991z"/>
<glyph unicode="о" horiz-adv-x="784" d="M399 1008q140 0 230 -132t90 -380q0 -111 -20 -200t-52.5 -146t-76 -95.5t-88.5 -54.5t-93 -16q-141 0 -231 130t-90 380q0 131 27.5 232.5t74.5 161.5t105 90t124 30zM393 881q-50 0 -85.5 -37.5t-52 -99.5t-23.5 -122t-7 -126q0 -54 4 -103.5t15.5 -103t30 -92 t50 -63.5t72.5 -25q48 0 82 37.5t50 99.5t23 123t7 127t-7 126t-23.5 122t-51.5 99.5t-84 37.5z"/>
<glyph unicode="п" horiz-adv-x="819" d="M111 991h598v-991h-156v858h-285v-858h-157v991z"/>
<glyph unicode="р" horiz-adv-x="817" d="M109 -393v1075q0 68 -1.5 126.5t-4 110.5t-3.5 72h142l8 -127h4q72 144 209 144q131 0 209 -134.5t78 -375.5q0 -133 -26 -234.5t-70 -161t-97.5 -89t-114.5 -29.5q-116 0 -172 114h-4v-491h-157zM266 616v-251q0 -59 6 -82q21 -94 62 -131t84 -37q47 0 81.5 30.5 t54 85.5t28 120t8.5 145q0 107 -17 189t-57 134.5t-100 52.5q-52 0 -95 -55t-51 -125q-4 -25 -4 -76z"/>
<glyph unicode="с" horiz-adv-x="618" d="M573 145l21 -120q-65 -37 -164 -37q-166 0 -264 130t-98 371q0 144 45 260t135.5 186.5t210.5 70.5q83 0 139 -31l-31 -129q-52 26 -112 26q-75 0 -129 -56t-77.5 -140.5t-23.5 -186.5q0 -173 62.5 -271.5t171.5 -98.5q54 0 114 26z"/>
<glyph unicode="т" horiz-adv-x="649" d="M20 991h609v-133h-226v-858h-157v858h-226v133z"/>
<glyph unicode="у" horiz-adv-x="708" d="M27 991h166l131 -569q5 -20 41 -205h4q9 52 43 203l116 571h156l-162 -637q-55 -226 -110.5 -381.5t-135.5 -257.5q-87 -109 -178 -151l-57 135q72 40 139 125q58 72 90 166q11 34 11 49q0 22 -5 37z"/>
<glyph unicode="ф" horiz-adv-x="976" d="M418 1417h141v-411q164 -21 258 -149t94 -363q0 -234 -92.5 -361.5t-259.5 -146.5v-379h-141v379q-165 18 -257.5 145t-92.5 363q0 231 92.5 359.5t257.5 150.5v413zM418 94v803q-57 -14 -98.5 -55t-63.5 -99.5t-31.5 -119t-9.5 -127.5t9.5 -128t31.5 -119.5t63.5 -99.5 t98.5 -55zM559 897v-803q57 14 98.5 54t63.5 98t31.5 119t9.5 131q0 67 -9.5 127t-31 118t-63 99.5t-99.5 56.5z"/>
<glyph unicode="х" horiz-adv-x="696" d="M29 991h170l92 -213q14 -32 35.5 -93t29.5 -81h4q14 37 38 100.5t28 73.5l90 213h162l-236 -489l234 -502h-172l-94 223q-13 29 -66 170h-4q-14 -40 -66 -170l-92 -223h-159l235 498z"/>
<glyph unicode="ц" horiz-adv-x="841" d="M111 991h157v-860h283v860h158v-868l84 -2l-11 -385h-118l-11 264h-542v991z"/>
<glyph unicode="ч" horiz-adv-x="804" d="M96 991h158v-375q0 -84 30 -130t107 -46q76 0 146 45v506h157v-991h-155v371h-7q-74 -52 -188 -52q-117 0 -182.5 69.5t-65.5 203.5v399z"/>
<glyph unicode="ш" horiz-adv-x="1208" d="M111 991h155v-860h260v860h156v-860h262v860h156v-991h-989v991z"/>
<glyph unicode="щ" horiz-adv-x="1232" d="M111 991h155v-860h260v860h156v-860h262v860h156v-868l82 -2l-8 -385h-121l-11 264h-931v991z"/>
<glyph unicode="ъ" horiz-adv-x="950" d="M27 991h395v-350q52 6 96 6q76 0 143 -19t120 -56.5t83.5 -99t30.5 -140.5q0 -158 -109 -246q-119 -96 -317 -96q-102 0 -203 16v854h-239v131zM422 520v-401q37 -6 74 -6q102 0 169.5 53.5t67.5 155.5t-69.5 152t-176.5 50q-25 0 -65 -4z"/>
<glyph unicode="ы" horiz-adv-x="1081" d="M111 991h155v-350q48 6 94 6q98 0 177 -34t129.5 -107t50.5 -174q0 -159 -111 -246q-58 -48 -137 -72t-156 -24q-101 0 -202 16v985zM266 520v-401q38 -6 70 -6q91 0 155 57t64 152q0 97 -64 149.5t-159 52.5q-46 0 -66 -4zM819 991h152v-991h-152v991z"/>
<glyph unicode="ь" horiz-adv-x="794" d="M111 991h155v-350q47 6 94 6q105 0 188.5 -32.5t137 -106.5t53.5 -180q0 -155 -108 -242q-119 -96 -318 -96q-101 0 -202 16v985zM266 520v-403q50 -4 70 -4q105 0 173.5 53.5t68.5 155.5t-69.5 152t-176.5 50q-26 0 -66 -4z"/>
<glyph unicode="э" horiz-adv-x="663" d="M100 449v114h336q-2 60 -15 113.5t-39.5 101t-73 75.5t-107.5 28q-59 0 -133 -27l-25 109q30 19 81.5 32t104.5 13q83 0 153.5 -38t117.5 -104q98 -138 98 -364q0 -100 -25 -191.5t-72.5 -164.5t-125 -116.5t-174.5 -43.5q-109 0 -176 43l28 114q65 -28 142 -28 q103 0 170.5 94t70.5 240h-336z"/>
<glyph unicode="ю" horiz-adv-x="1073" d="M111 991h153v-416h123q18 216 105 324.5t206 108.5q135 0 221.5 -131.5t86.5 -380.5q0 -111 -19.5 -200t-50.5 -146t-72.5 -95.5t-84.5 -54.5t-87 -16q-127 0 -212.5 118.5t-92.5 346.5h-123v-449h-153v991zM694 109q46 0 78.5 37.5t48.5 99.5t22.5 123t6.5 127 q0 65 -6.5 125.5t-22.5 122.5t-49.5 99.5t-79.5 37.5t-78.5 -37.5t-48.5 -99.5t-23 -122.5t-7 -125.5q0 -69 7 -131t23.5 -123t49.5 -97t79 -36z"/>
<glyph unicode="я" horiz-adv-x="776" d="M666 985v-985h-152v424h-47q-99 0 -143 -47q-24 -21 -42 -57.5t-26.5 -68.5t-22 -89t-22.5 -88q-7 -34 -27 -74h-166q32 55 45 102q6 20 19 75.5t22.5 88.5t29.5 75t44 69q50 54 121 65v4q-95 21 -157 82.5t-62 161.5q0 131 102 207q42 35 117 54.5t156 19.5 q124 0 211 -19zM514 530v357q-31 8 -68 8q-90 0 -149 -44t-59 -132q0 -86 65 -137.5t150 -51.5h61z"/>
<glyph unicode="ё" horiz-adv-x="743" d="M682 481h-461q2 -368 236 -368q98 0 164 39l24 -117q-83 -47 -217 -47q-175 0 -267.5 132.5t-92.5 364.5q0 240 91.5 381.5t241.5 141.5q73 0 129 -36.5t89 -99t49 -139t16 -164.5q0 -63 -2 -88zM223 598h309q3 140 -40.5 213.5t-106.5 73.5q-71 0 -114 -87t-48 -200z M246 1159q-38 0 -65 26t-27 64q0 39 26.5 65.5t65.5 26.5q37 0 61.5 -25.5t24.5 -66.5q0 -38 -24.5 -64t-61.5 -26zM563 1159q-38 0 -64 26t-26 64q0 39 26.5 65.5t63.5 26.5t62.5 -25.5t25.5 -66.5q0 -38 -25 -64t-63 -26z"/>
<glyph unicode="ђ" horiz-adv-x="847" d="M25 1257h106v160h158v-160h358v-110h-358v-266h4q33 54 87.5 87t117.5 33q146 0 215 -155q61 -131 61 -393q0 -201 -34.5 -341t-110.5 -235q-39 -49 -96 -85t-103 -42l-39 127q32 7 67.5 30.5t61.5 61.5q96 143 96 473q0 210 -43 320q-42 106 -124 106q-69 0 -113 -69 q-47 -68 -47 -166v-633h-158v1147h-106v110z"/>
<glyph unicode="ѓ" horiz-adv-x="598" d="M111 991h460v-135h-305v-856h-155v991zM410 1397h161l-213 -277h-106z"/>
<glyph unicode="є" horiz-adv-x="677" d="M651 963l-37 -115q-59 35 -131 35q-64 0 -114 -29.5t-79 -77.5t-44 -102t-17 -111h349v-114h-351q5 -151 74 -244.5t182 -93.5q76 0 135 32l31 -114q-78 -43 -188 -43q-98 0 -175.5 43t-123.5 116t-70 162t-24 189q0 79 15 152.5t47.5 139.5t80 114.5t117 77t153.5 28.5 q48 0 95.5 -13t74.5 -32z"/>
<glyph unicode="ѕ" horiz-adv-x="591" d="M45 45l39 119q78 -51 160 -51q67 0 106 38.5t39 104.5q0 59 -27 102t-100 93q-101 66 -150 132.5t-49 149.5q0 119 78.5 197t194.5 78q93 0 178 -52l-43 -118q-64 43 -131 43q-61 0 -95 -37t-34 -88t25 -86t98 -86q97 -62 151 -134t54 -167q0 -143 -84 -219t-213 -76 q-56 0 -110.5 15.5t-86.5 41.5z"/>
<glyph unicode="і" horiz-adv-x="376" d="M268 0h-157v991h157v-991zM186 1350q43 0 69 -28.5t26 -74.5q1 -46 -26 -74t-71 -28q-39 0 -64.5 28.5t-25.5 73.5t26.5 74t65.5 29z"/>
<glyph unicode="ї" horiz-adv-x="376" d="M268 0h-157v991h157v-991zM33 1159q-40 0 -66 26t-26 64q0 39 26.5 65.5t65.5 26.5q37 0 61.5 -25.5t24.5 -66.5q0 -38 -24.5 -64t-61.5 -26zM350 1159q-38 0 -65 26t-27 64q0 39 26.5 65.5t65.5 26.5q37 0 62.5 -25.5t25.5 -66.5q0 -38 -25.5 -64t-62.5 -26z"/>
<glyph unicode="ј" horiz-adv-x="385" d="M-37 -410l-20 125q98 26 133 78q26 40 36.5 108t10.5 208v882h158v-928q0 -153 -23.5 -237t-77.5 -141q-41 -43 -103.5 -68t-113.5 -27zM203 1350q41 0 66.5 -28.5t25.5 -74.5t-26 -74t-70 -28q-39 0 -65 28.5t-25 73.5q-1 45 25.5 74t68.5 29z"/>
<glyph unicode="љ" horiz-adv-x="1208" d="M150 991h530v-350q49 6 92 6q105 0 189 -32.5t138 -106.5t54 -180q0 -152 -109 -240q-118 -98 -323 -98q-99 0 -197 16v854h-223v-311q0 -77 -2.5 -134.5t-8.5 -115.5t-18 -100t-30 -79.5t-45.5 -64t-63.5 -43.5q-50 -24 -104 -24l-29 125q46 7 84 45q40 40 53 129.5 t13 251.5v452zM680 520v-401q38 -6 70 -6q105 0 173 53.5t68 155.5t-69.5 152t-178.5 50q-23 0 -63 -4z"/>
<glyph unicode="њ" horiz-adv-x="1230" d="M111 991h157v-385h279v385h155v-360q52 6 97 6q77 0 144 -19.5t119.5 -57.5t83 -100t30.5 -141q0 -144 -109 -235q-120 -94 -324 -94q-86 0 -196 14v473h-279v-477h-157v991zM702 510v-391q37 -6 78 -6q99 0 166.5 52.5t67.5 151.5t-70.5 148t-177.5 49q-24 0 -64 -4z "/>
<glyph unicode="ћ" horiz-adv-x="849" d="M25 1257h106v160h158v-160h358v-110h-358v-266h4q30 52 82 86q55 34 133 34q101 0 166 -86t65 -260v-655h-157v635q0 233 -133 233q-62 0 -100.5 -44t-53.5 -113q-6 -30 -6 -84v-627h-158v1147h-106v110z"/>
<glyph unicode="ќ" horiz-adv-x="751" d="M111 991h153v-430h23l260 430h176l-309 -446q171 -29 239 -281q56 -203 82 -264h-160q-26 59 -71 231q-32 109 -81.5 162t-141.5 53h-17v-446h-153v991zM453 1397h161l-215 -277h-104z"/>
<glyph unicode="ў" horiz-adv-x="708" d="M123 1366h110q12 -137 121 -137q110 0 123 137h111q-25 -227 -236 -227q-207 0 -229 227zM27 991h166l131 -569q5 -20 41 -205h4q9 52 43 203l116 571h156l-162 -637q-55 -226 -110.5 -381.5t-135.5 -257.5q-87 -109 -178 -151l-57 135q72 40 139 125q58 72 90 166 q11 34 11 49q0 22 -5 37z"/>
<glyph unicode="џ" horiz-adv-x="819" d="M111 991h157v-860h283v860h158v-991h-228l-10 -272h-121l-12 272h-227v991z"/>
<glyph unicode="Ґ" horiz-adv-x="684" d="M123 1380h412l26 230h113l-21 -367h-372v-1243h-158v1380z"/>
<glyph unicode="ґ" horiz-adv-x="591" d="M111 991h331l23 195h115l-15 -328h-299v-858h-155v991z"/>
<glyph unicode="ә" horiz-adv-x="743" d="M123 842l-27 110q98 56 221 56q174 0 266.5 -134t92.5 -366q0 -238 -92 -379t-242 -141q-73 0 -129 36.5t-89.5 98.5t-50 138.5t-16.5 162.5q0 26 6 86h457q0 110 -19 186.5t-54 115t-72.5 54t-85.5 15.5q-90 0 -166 -39zM520 393h-311q-1 -137 42.5 -209.5t106.5 -72.5 q72 0 113.5 84.5t48.5 197.5z"/>
<glyph unicode="Ẁ" horiz-adv-x="1339" d="M455 0h-148l-266 1380h164l117 -665q46 -277 67 -498h8q6 61 16.5 133t17 109.5t25.5 136.5t23 121l127 663h135l127 -649q63 -335 80 -514h6q26 225 74 506l115 657h153l-268 -1380h-154l-133 672q-49 265 -69 452h-4q-33 -257 -76 -458zM387 1675h186l193 -221h-123z "/>
<glyph unicode="ẁ" horiz-adv-x="1159" d="M27 991h163l97 -485q6 -34 18 -100.5t21 -118.5t14 -97h8q18 133 62 312l114 489h121l109 -475q44 -197 63 -326h8q15 126 54 320l94 481h157l-249 -991h-129l-115 481q-28 109 -55 297h-4q-20 -150 -58 -303l-119 -475h-133zM344 1397h162l158 -277h-107z"/>
<glyph unicode="Ẃ" horiz-adv-x="1339" d="M455 0h-148l-266 1380h164l117 -665q46 -277 67 -498h8q6 61 16.5 133t17 109.5t25.5 136.5t23 121l127 663h135l127 -649q63 -335 80 -514h6q26 225 74 506l115 657h153l-268 -1380h-154l-133 672q-49 265 -69 452h-4q-33 -257 -76 -458zM776 1675h187l-256 -221h-123z "/>
<glyph unicode="ẃ" horiz-adv-x="1159" d="M27 991h163l97 -485q6 -34 18 -100.5t21 -118.5t14 -97h8q18 133 62 312l114 489h121l109 -475q44 -197 63 -326h8q15 126 54 320l94 481h157l-249 -991h-129l-115 481q-28 109 -55 297h-4q-20 -150 -58 -303l-119 -475h-133zM672 1397h162l-216 -277h-104z"/>
<glyph unicode="Ẅ" horiz-adv-x="1339" d="M455 0h-148l-266 1380h164l117 -665q46 -277 67 -498h8q6 61 16.5 133t17 109.5t25.5 136.5t23 121l127 663h135l127 -649q63 -335 80 -514h6q26 225 74 506l115 657h153l-268 -1380h-154l-133 672q-49 265 -69 452h-4q-33 -257 -76 -458zM508 1485q-38 0 -63 26t-25 68 q0 41 25.5 68.5t62.5 27.5q39 0 63.5 -27t24.5 -69q0 -43 -24 -68.5t-64 -25.5zM840 1485q-39 0 -63.5 26t-24.5 68q0 41 25.5 68.5t62.5 27.5q39 0 63.5 -27t24.5 -69q0 -43 -24 -68.5t-64 -25.5z"/>
<glyph unicode="ẅ" horiz-adv-x="1159" d="M27 991h163l97 -485q6 -34 18 -100.5t21 -118.5t14 -97h8q18 133 62 312l114 489h121l109 -475q44 -197 63 -326h8q15 126 54 320l94 481h157l-249 -991h-129l-115 481q-28 109 -55 297h-4q-20 -150 -58 -303l-119 -475h-133zM422 1159q-38 0 -65 26t-27 64 q0 39 26.5 65.5t65.5 26.5q37 0 61.5 -25.5t24.5 -66.5q0 -38 -24.5 -64t-61.5 -26zM739 1159q-38 0 -64 26t-26 64q0 39 26.5 65.5t63.5 26.5t62.5 -25.5t25.5 -66.5q0 -38 -25 -64t-63 -26z"/>
<glyph unicode="Ạ" horiz-adv-x="890" d="M594 414h-305l-92 -414h-152l315 1380h175l307 -1380h-156zM311 541h262l-71 350q-28 140 -56 315h-8q-24 -159 -55 -315zM440 -164q37 0 62.5 -26.5t25.5 -65.5q0 -38 -26 -64t-64 -26q-37 0 -63.5 26t-26.5 64q0 39 26.5 65.5t65.5 26.5z"/>
<glyph unicode="ạ" horiz-adv-x="745" d="M645 0h-143l-10 104h-7q-68 -120 -196 -120q-101 0 -168.5 78t-67.5 204q0 72 22.5 132t61.5 101.5t93 70.5t115.5 42.5t129.5 14.5v30q0 109 -35 167.5t-123 58.5q-84 0 -163 -52l-35 111q34 26 98 46t133 20q285 0 285 -355v-428q0 -162 10 -225zM479 311v201 q-22 0 -41.5 -1.5t-48 -6.5t-52 -14t-49 -26.5t-42.5 -41t-28 -59.5t-11 -80q0 -89 36.5 -133t84.5 -44q54 0 94 39t53 111q4 18 4 55zM367 -164q37 0 61.5 -26t24.5 -66q0 -38 -25 -64t-63 -26q-37 0 -64 26t-27 64q0 39 27 65.5t66 26.5z"/>
<glyph unicode="Ả" horiz-adv-x="890" d="M594 414h-305l-92 -414h-152l315 1380h175l307 -1380h-156zM311 541h262l-71 350q-28 140 -56 315h-8q-24 -159 -55 -315zM477 1446l-82 18q11 31 51.5 77.5t40.5 82.5q0 26 -16.5 42.5t-42.5 16.5q-47 0 -86 -65l-57 43q59 119 174 119q61 0 103 -37.5t42 -93.5 q0 -39 -20.5 -70t-55 -67t-51.5 -66z"/>
<glyph unicode="ả" horiz-adv-x="745" d="M645 0h-143l-10 104h-7q-68 -120 -196 -120q-101 0 -168.5 78t-67.5 204q0 72 22.5 132t61.5 101.5t93 70.5t115.5 42.5t129.5 14.5v30q0 109 -35 167.5t-123 58.5q-84 0 -163 -52l-35 111q34 26 98 46t133 20q285 0 285 -355v-428q0 -162 10 -225zM479 311v201 q-22 0 -41.5 -1.5t-48 -6.5t-52 -14t-49 -26.5t-42.5 -41t-28 -59.5t-11 -80q0 -89 36.5 -133t84.5 -44q54 0 94 39t53 111q4 18 4 55zM401 1085l-84 19q9 34 34.5 68t45 63.5t19.5 60.5q0 30 -18 49t-48 19q-48 0 -80 -66l-57 43q23 56 65 89.5t101 33.5q67 0 110 -40.5 t43 -102.5q0 -36 -15 -68t-34 -53.5t-43.5 -53t-38.5 -61.5z"/>
<glyph unicode="Ấ" horiz-adv-x="890" d="M594 414h-305l-92 -414h-152l315 1380h175l307 -1380h-156zM311 541h262l-71 350q-28 140 -56 315h-8q-24 -159 -55 -315zM393 1655h123l158 -201h-127l-90 117h-4l-91 -117h-124zM731 1806h164l-205 -207h-94z"/>
<glyph unicode="ấ" horiz-adv-x="745" d="M645 0h-143l-10 104h-7q-68 -120 -196 -120q-101 0 -168.5 78t-67.5 204q0 72 22.5 132t61.5 101.5t93 70.5t115.5 42.5t129.5 14.5v30q0 109 -35 167.5t-123 58.5q-84 0 -163 -52l-35 111q34 26 98 46t133 20q285 0 285 -355v-428q0 -162 10 -225zM479 311v201 q-22 0 -41.5 -1.5t-48 -6.5t-52 -14t-49 -26.5t-42.5 -41t-28 -59.5t-11 -80q0 -89 36.5 -133t84.5 -44q54 0 94 39t53 111q4 18 4 55zM305 1397h111l129 -277h-115l-65 170h-7l-67 -170h-115zM612 1520h140l-158 -240h-86z"/>
<glyph unicode="Ầ" horiz-adv-x="890" d="M594 414h-305l-92 -414h-152l315 1380h175l307 -1380h-156zM311 541h262l-71 350q-28 140 -56 315h-8q-24 -159 -55 -315zM483 1776h164l135 -205h-94zM385 1655h125l158 -201h-129l-90 117h-5l-88 -117h-125z"/>
<glyph unicode="ầ" horiz-adv-x="745" d="M645 0h-143l-10 104h-7q-68 -120 -196 -120q-101 0 -168.5 78t-67.5 204q0 72 22.5 132t61.5 101.5t93 70.5t115.5 42.5t129.5 14.5v30q0 109 -35 167.5t-123 58.5q-84 0 -163 -52l-35 111q34 26 98 46t133 20q285 0 285 -355v-428q0 -162 10 -225zM479 311v201 q-22 0 -41.5 -1.5t-48 -6.5t-52 -14t-49 -26.5t-42.5 -41t-28 -59.5t-11 -80q0 -89 36.5 -133t84.5 -44q54 0 94 39t53 111q4 18 4 55zM420 1520h139l92 -238h-84zM309 1397h111l129 -277h-115l-65 170h-9l-65 -170h-115z"/>
<glyph unicode="Ẩ" horiz-adv-x="890" d="M594 414h-305l-92 -414h-152l315 1380h175l307 -1380h-156zM311 541h262l-71 350q-28 140 -56 315h-8q-24 -159 -55 -315zM389 1655h123l158 -201h-129l-88 117h-4l-91 -117h-125zM700 1540l-73 19q11 31 51.5 76.5t40.5 78.5q0 26 -16 43t-41 17q-28 0 -47.5 -17 t-41.5 -49l-53 41q57 115 168 115q58 0 97.5 -36t39.5 -89q0 -39 -20 -70t-54 -66t-51 -63z"/>
<glyph unicode="ẩ" horiz-adv-x="745" d="M645 0h-143l-10 104h-7q-68 -120 -196 -120q-101 0 -168.5 78t-67.5 204q0 72 22.5 132t61.5 101.5t93 70.5t115.5 42.5t129.5 14.5v30q0 109 -35 167.5t-123 58.5q-84 0 -163 -52l-35 111q34 26 98 46t133 20q285 0 285 -355v-428q0 -162 10 -225zM479 311v201 q-22 0 -41.5 -1.5t-48 -6.5t-52 -14t-49 -26.5t-42.5 -41t-28 -59.5t-11 -80q0 -89 36.5 -133t84.5 -44q54 0 94 39t53 111q4 18 4 55zM303 1397h111l127 -277h-113l-68 170h-6l-65 -170h-115zM596 1278l-80 16q11 32 51.5 77t40.5 79q0 26 -16.5 42.5t-44.5 16.5 q-43 0 -82 -65l-55 41q56 114 165 114q62 0 103 -37t41 -92q0 -38 -20 -67.5t-53 -62.5t-50 -62z"/>
<glyph unicode="Ẫ" horiz-adv-x="890" d="M594 414h-305l-92 -414h-152l315 1380h175l307 -1380h-156zM311 541h262l-71 350q-28 140 -56 315h-8q-24 -159 -55 -315zM381 1655h135l178 -201h-137l-106 113h-5l-106 -113h-135zM317 1679h-84q-3 71 30.5 121.5t94.5 50.5q7 0 13 -0.5t13 -2t11.5 -2.5t11.5 -4t10 -4 t11 -5.5t9 -5l11 -5.5l9 -5q4 -2 16 -9t17.5 -9.5t15 -7t17.5 -6t16 -1.5q25 0 37.5 16t13.5 55h84q0 -81 -32.5 -127.5t-96.5 -46.5q-37 0 -99 37q-10 5 -26.5 14t-28 14t-22.5 5q-43 0 -52 -72z"/>
<glyph unicode="ẫ" horiz-adv-x="745" d="M645 0h-143l-10 104h-7q-68 -120 -196 -120q-101 0 -168.5 78t-67.5 204q0 72 22.5 132t61.5 101.5t93 70.5t115.5 42.5t129.5 14.5v30q0 109 -35 167.5t-123 58.5q-84 0 -163 -52l-35 111q34 26 98 46t133 20q285 0 285 -355v-428q0 -162 10 -225zM479 311v201 q-22 0 -41.5 -1.5t-48 -6.5t-52 -14t-49 -26.5t-42.5 -41t-28 -59.5t-11 -80q0 -89 36.5 -133t84.5 -44q54 0 94 39t53 111q4 18 4 55zM319 1331h109l156 -211h-123l-84 123h-4l-84 -123h-125zM242 1354h-84q-2 71 32 122.5t93 51.5q10 0 20 -2t16.5 -3.5t17.5 -6.5 t14.5 -6.5t15.5 -8.5t14 -8t13.5 -7.5t15 -8.5t13 -6.5t15 -6t13 -3t14.5 -1.5q23 0 35.5 15.5t13.5 54.5h84q0 -80 -32 -127t-97 -47q-31 0 -98 37q-5 3 -16 9.5t-16.5 9t-14 6.5t-16 5.5t-15.5 1.5q-42 0 -51 -71z"/>
<glyph unicode="Ậ" horiz-adv-x="890" d="M594 414h-305l-92 -414h-152l315 1380h175l307 -1380h-156zM311 541h262l-71 350q-28 140 -56 315h-8q-24 -159 -55 -315zM381 1655h135l178 -201h-137l-106 113h-5l-106 -113h-135zM446 -346q-38 0 -65 26.5t-27 63.5q0 39 26.5 65.5t65.5 26.5q38 0 64.5 -26t26.5 -66 q0 -37 -26.5 -63.5t-64.5 -26.5z"/>
<glyph unicode="ậ" horiz-adv-x="745" d="M645 0h-143l-10 104h-7q-68 -120 -196 -120q-101 0 -168.5 78t-67.5 204q0 72 22.5 132t61.5 101.5t93 70.5t115.5 42.5t129.5 14.5v30q0 109 -35 167.5t-123 58.5q-84 0 -163 -52l-35 111q34 26 98 46t133 20q285 0 285 -355v-428q0 -162 10 -225zM479 311v201 q-22 0 -41.5 -1.5t-48 -6.5t-52 -14t-49 -26.5t-42.5 -41t-28 -59.5t-11 -80q0 -89 36.5 -133t84.5 -44q54 0 94 39t53 111q4 18 4 55zM319 1397h107l162 -277h-119l-94 176h-4l-95 -176h-118zM367 -164q37 0 61.5 -26t24.5 -66q0 -38 -25 -64t-63 -26q-37 0 -64 26t-27 64 q0 39 27 65.5t66 26.5z"/>
<glyph unicode="Ắ" horiz-adv-x="890" d="M594 414h-305l-92 -414h-152l315 1380h175l307 -1380h-156zM311 541h262l-71 350q-28 140 -56 315h-8q-24 -159 -55 -315zM231 1608h82q25 -88 136 -88q115 0 137 88h84q-12 -84 -72.5 -134.5t-148.5 -50.5q-89 0 -147.5 49.5t-70.5 135.5zM524 1794h164l-205 -207h-94z "/>
<glyph unicode="ắ" horiz-adv-x="745" d="M645 0h-143l-10 104h-7q-68 -120 -196 -120q-101 0 -168.5 78t-67.5 204q0 72 22.5 132t61.5 101.5t93 70.5t115.5 42.5t129.5 14.5v30q0 109 -35 167.5t-123 58.5q-84 0 -163 -52l-35 111q34 26 98 46t133 20q285 0 285 -355v-428q0 -162 10 -225zM479 311v201 q-22 0 -41.5 -1.5t-48 -6.5t-52 -14t-49 -26.5t-42.5 -41t-28 -59.5t-11 -80q0 -89 36.5 -133t84.5 -44q54 0 94 39t53 111q4 18 4 55zM438 1509h150l-187 -233h-98zM145 1319h86q5 -56 42.5 -90.5t95.5 -34.5q62 0 99 34.5t40 90.5h86q1 -101 -61.5 -164t-163.5 -63 q-104 0 -165 64t-59 163z"/>
<glyph unicode="Ằ" horiz-adv-x="890" d="M594 414h-305l-92 -414h-152l315 1380h175l307 -1380h-156zM311 541h262l-71 350q-28 140 -56 315h-8q-24 -159 -55 -315zM217 1794h164l135 -207h-94zM225 1608h84q10 -42 45 -65t88 -23q118 0 140 88h82q-12 -84 -73 -134.5t-149 -50.5t-146.5 49.5t-70.5 135.5z"/>
<glyph unicode="ằ" horiz-adv-x="745" d="M645 0h-143l-10 104h-7q-68 -120 -196 -120q-101 0 -168.5 78t-67.5 204q0 72 22.5 132t61.5 101.5t93 70.5t115.5 42.5t129.5 14.5v30q0 109 -35 167.5t-123 58.5q-84 0 -163 -52l-35 111q34 26 98 46t133 20q285 0 285 -355v-428q0 -162 10 -225zM479 311v201 q-22 0 -41.5 -1.5t-48 -6.5t-52 -14t-49 -26.5t-42.5 -41t-28 -59.5t-11 -80q0 -89 36.5 -133t84.5 -44q54 0 94 39t53 111q4 18 4 55zM150 1509h149l133 -233h-96zM147 1319h86q6 -56 43 -90.5t95 -34.5q62 0 99 34.5t40 90.5h86q3 -101 -60 -164t-165 -63q-104 0 -165 64 t-59 163z"/>
<glyph unicode="Ẳ" horiz-adv-x="890" d="M594 414h-305l-92 -414h-152l315 1380h175l307 -1380h-156zM311 541h262l-71 350q-28 140 -56 315h-8q-24 -159 -55 -315zM467 1565l-74 18q11 31 51.5 77t40.5 79q0 26 -16 42.5t-41 16.5q-28 0 -47 -16.5t-41 -48.5l-53 41q56 114 168 114q58 0 97.5 -36t39.5 -89 q0 -39 -20 -69.5t-54 -65.5t-51 -63zM229 1608h82q10 -42 45 -65t88 -23q118 0 140 88h82q-12 -85 -72 -135t-148 -50q-90 0 -148.5 49.5t-68.5 135.5z"/>
<glyph unicode="ẳ" horiz-adv-x="745" d="M645 0h-143l-10 104h-7q-68 -120 -196 -120q-101 0 -168.5 78t-67.5 204q0 72 22.5 132t61.5 101.5t93 70.5t115.5 42.5t129.5 14.5v30q0 109 -35 167.5t-123 58.5q-84 0 -163 -52l-35 111q34 26 98 46t133 20q285 0 285 -355v-428q0 -162 10 -225zM479 311v201 q-22 0 -41.5 -1.5t-48 -6.5t-52 -14t-49 -26.5t-42.5 -41t-28 -59.5t-11 -80q0 -89 36.5 -133t84.5 -44q54 0 94 39t53 111q4 18 4 55zM397 1260l-78 16q11 32 51 77t40 79q0 24 -17.5 40.5t-44.5 16.5q-43 0 -82 -64l-53 41q57 115 164 115q62 0 103.5 -36t41.5 -91 q0 -30 -13.5 -56.5t-31.5 -43.5t-42 -43.5t-38 -50.5zM150 1319h86q5 -56 41.5 -90.5t93.5 -34.5q63 0 100.5 34t40.5 91h86q2 -101 -61 -164t-166 -63q-102 0 -162.5 64t-58.5 163z"/>
<glyph unicode="Ẵ" horiz-adv-x="890" d="M594 414h-305l-92 -414h-152l315 1380h175l307 -1380h-156zM311 541h262l-71 350q-28 140 -56 315h-8q-24 -159 -55 -315zM313 1677h-88q3 62 35.5 107t89.5 45q10 0 20.5 -1.5t17.5 -3.5t17 -6.5t14.5 -7t15.5 -8.5t14 -8q6 -3 21 -11.5t22 -11.5t18.5 -6.5t21.5 -3.5 q24 0 36.5 16t15.5 56h84q0 -81 -32.5 -127.5t-96.5 -46.5q-34 0 -101 37q-5 3 -19.5 11.5t-21 11.5t-17 6.5t-20.5 3.5q-35 0 -47 -52zM223 1608h82q10 -42 45 -65t88 -23q118 0 140 88h81q-12 -84 -72.5 -134.5t-148.5 -50.5t-146.5 49.5t-68.5 135.5z"/>
<glyph unicode="ẵ" horiz-adv-x="745" d="M645 0h-143l-10 104h-7q-68 -120 -196 -120q-101 0 -168.5 78t-67.5 204q0 72 22.5 132t61.5 101.5t93 70.5t115.5 42.5t129.5 14.5v30q0 109 -35 167.5t-123 58.5q-84 0 -163 -52l-35 111q34 26 98 46t133 20q285 0 285 -355v-428q0 -162 10 -225zM479 311v201 q-22 0 -41.5 -1.5t-48 -6.5t-52 -14t-49 -26.5t-42.5 -41t-28 -59.5t-11 -80q0 -89 36.5 -133t84.5 -44q54 0 94 39t53 111q4 18 4 55zM242 1391h-88q3 63 35 108t90 45q10 0 20 -2t16.5 -3.5t17.5 -6.5t14.5 -6.5t15.5 -8.5t14 -8q58 -32 82 -32q25 0 37.5 16t13.5 55h84 q0 -81 -32 -127.5t-97 -46.5q-36 0 -98 37q-7 4 -20 10.5t-20.5 10.5t-18 7t-19.5 3q-36 0 -47 -51zM150 1321h83q5 -58 42.5 -94.5t95.5 -36.5q62 0 99.5 37t39.5 94h86q2 -101 -61 -165t-164 -64q-104 0 -163.5 64t-57.5 165z"/>
<glyph unicode="Ặ" horiz-adv-x="890" d="M594 414h-305l-92 -414h-152l315 1380h175l307 -1380h-156zM311 541h262l-71 350q-28 140 -56 315h-8q-24 -159 -55 -315zM231 1661h93q7 -41 40.5 -64.5t84.5 -23.5t84 22.5t42 65.5h93q0 -88 -59 -142.5t-158 -54.5q-103 0 -161.5 52.5t-58.5 144.5zM446 -346 q-38 0 -66 26.5t-28 63.5q0 39 27.5 65.5t66.5 26.5q37 0 64 -26.5t27 -65.5q0 -37 -27 -63.5t-64 -26.5z"/>
<glyph unicode="ặ" horiz-adv-x="745" d="M645 0h-143l-10 104h-7q-68 -120 -196 -120q-101 0 -168.5 78t-67.5 204q0 72 22.5 132t61.5 101.5t93 70.5t115.5 42.5t129.5 14.5v30q0 109 -35 167.5t-123 58.5q-84 0 -163 -52l-35 111q34 26 98 46t133 20q285 0 285 -355v-428q0 -162 10 -225zM479 311v201 q-22 0 -41.5 -1.5t-48 -6.5t-52 -14t-49 -26.5t-42.5 -41t-28 -59.5t-11 -80q0 -89 36.5 -133t84.5 -44q54 0 94 39t53 111q4 18 4 55zM156 1370h88q5 -57 39 -92t88 -35q59 0 94 35t37 92h88q3 -102 -57.5 -166.5t-161.5 -64.5q-103 0 -160.5 65.5t-54.5 165.5zM367 -164 q37 0 61.5 -26t24.5 -66q0 -38 -25 -64t-63 -26q-37 0 -64 26t-27 64q0 39 27 65.5t66 26.5z"/>
<glyph unicode="Ẹ" d="M627 788v-133h-346v-518h393v-137h-551v1380h526v-137h-368v-455h346zM365 -346q-40 0 -67.5 26.5t-27.5 63.5q0 39 28 65.5t67 26.5q37 0 62.5 -26.5t25.5 -65.5q0 -37 -25.5 -63.5t-62.5 -26.5z"/>
<glyph unicode="ẹ" horiz-adv-x="743" d="M682 481h-461q2 -368 236 -368q98 0 164 39l24 -117q-83 -47 -217 -47q-175 0 -267.5 132.5t-92.5 364.5q0 240 91.5 381.5t241.5 141.5q73 0 129 -36.5t89 -99t49 -139t16 -164.5q0 -63 -2 -88zM223 598h309q3 140 -40.5 213.5t-106.5 73.5q-71 0 -114 -87t-48 -200z M367 -164q37 0 61.5 -26t24.5 -66q0 -38 -25 -64t-63 -26q-37 0 -64 26t-27 64q0 39 27 65.5t66 26.5z"/>
<glyph unicode="Ẻ" d="M627 788v-133h-346v-518h393v-137h-551v1380h526v-137h-368v-455h346zM420 1446l-84 18q12 31 53 77.5t41 82.5q0 26 -16.5 42.5t-42.5 16.5q-47 0 -86 -65l-58 43q59 119 174 119q61 0 102.5 -37.5t41.5 -93.5q0 -39 -20 -70t-54 -67t-51 -66z"/>
<glyph unicode="ẻ" horiz-adv-x="743" d="M682 481h-461q2 -368 236 -368q98 0 164 39l24 -117q-83 -47 -217 -47q-175 0 -267.5 132.5t-92.5 364.5q0 240 91.5 381.5t241.5 141.5q73 0 129 -36.5t89 -99t49 -139t16 -164.5q0 -63 -2 -88zM223 598h309q3 140 -40.5 213.5t-106.5 73.5q-71 0 -114 -87t-48 -200z M399 1085l-84 19q9 34 35 68t46 63.5t20 60.5q0 29 -18.5 48.5t-47.5 19.5q-46 0 -82 -66l-57 43q23 56 66 89.5t102 33.5q66 0 108.5 -40.5t42.5 -102.5q0 -36 -15 -68t-34 -53.5t-43.5 -53t-38.5 -61.5z"/>
<glyph unicode="Ẽ" d="M627 788v-133h-346v-518h393v-137h-551v1380h526v-137h-368v-455h346zM256 1470h-86q0 88 32.5 140.5t90.5 52.5q37 0 96 -35q7 -4 21 -13t21 -13t17.5 -7.5t20.5 -3.5q26 0 38 16.5t17 57.5h82q3 -184 -127 -184q-41 0 -100 35q-51 34 -74 34q-24 0 -35 -19.5t-14 -60.5 z"/>
<glyph unicode="ẽ" horiz-adv-x="743" d="M682 481h-461q2 -368 236 -368q98 0 164 39l24 -117q-83 -47 -217 -47q-175 0 -267.5 132.5t-92.5 364.5q0 240 91.5 381.5t241.5 141.5q73 0 129 -36.5t89 -99t49 -139t16 -164.5q0 -63 -2 -88zM223 598h309q3 140 -40.5 213.5t-106.5 73.5q-71 0 -114 -87t-48 -200z M238 1149h-86q-2 85 30.5 138.5t93.5 53.5q20 0 40.5 -6.5t29 -10.5t31.5 -17q5 -3 17 -10.5t17.5 -10t14.5 -7t17 -6t16 -1.5q24 0 36 15.5t15 58.5h84q0 -87 -32.5 -136t-96.5 -49q-37 0 -100 35q-8 4 -20.5 12t-19.5 12t-17 7.5t-19 3.5q-45 0 -51 -82z"/>
<glyph unicode="Ế" d="M627 788v-133h-346v-518h393v-137h-551v1380h526v-137h-368v-455h346zM332 1655h123l159 -201h-129l-90 117h-4l-90 -117h-125zM672 1806h164l-205 -207h-96z"/>
<glyph unicode="ế" horiz-adv-x="743" d="M682 481h-461q2 -368 236 -368q98 0 164 39l24 -117q-83 -47 -217 -47q-175 0 -267.5 132.5t-92.5 364.5q0 240 91.5 381.5t241.5 141.5q73 0 129 -36.5t89 -99t49 -139t16 -164.5q0 -63 -2 -88zM223 598h309q3 140 -40.5 213.5t-106.5 73.5q-71 0 -114 -87t-48 -200z M346 1397h113l127 -277h-113l-67 170h-7l-67 -170h-113zM653 1520h140l-158 -240h-84z"/>
<glyph unicode="Ề" d="M627 788v-133h-346v-518h393v-137h-551v1380h526v-137h-368v-455h346zM416 1776h164l137 -205h-96zM319 1655h123l158 -201h-127l-90 117h-4l-90 -117h-125z"/>
<glyph unicode="ề" horiz-adv-x="743" d="M682 481h-461q2 -368 236 -368q98 0 164 39l24 -117q-83 -47 -217 -47q-175 0 -267.5 132.5t-92.5 364.5q0 240 91.5 381.5t241.5 141.5q73 0 129 -36.5t89 -99t49 -139t16 -164.5q0 -63 -2 -88zM223 598h309q3 140 -40.5 213.5t-106.5 73.5q-71 0 -114 -87t-48 -200z M457 1520h139l92 -238h-84zM346 1397h111l129 -277h-115l-65 170h-9l-65 -170h-115z"/>
<glyph unicode="Ể" d="M627 788v-133h-346v-518h393v-137h-551v1380h526v-137h-368v-455h346zM328 1655h123l157 -201h-129l-88 117h-4l-90 -117h-125zM639 1540l-74 19q11 31 51.5 76.5t40.5 78.5q0 26 -16 43t-41 17q-19 0 -36.5 -11t-27 -22.5t-24.5 -32.5l-53 41q57 115 168 115 q58 0 97.5 -36t39.5 -89q0 -39 -20 -70t-54 -66t-51 -63z"/>
<glyph unicode="ể" horiz-adv-x="743" d="M682 481h-461q2 -368 236 -368q98 0 164 39l24 -117q-83 -47 -217 -47q-175 0 -267.5 132.5t-92.5 364.5q0 240 91.5 381.5t241.5 141.5q73 0 129 -36.5t89 -99t49 -139t16 -164.5q0 -63 -2 -88zM223 598h309q3 140 -40.5 213.5t-106.5 73.5q-71 0 -114 -87t-48 -200z M332 1397h110l127 -277h-112l-68 170h-6l-66 -170h-114zM625 1278l-80 16q11 32 51.5 77t40.5 79q0 26 -17 42.5t-45 16.5q-17 0 -33.5 -10.5t-25.5 -22t-24 -32.5l-54 41q56 114 166 114q61 0 101 -36.5t40 -92.5q0 -30 -13 -56t-29.5 -42.5t-40 -43t-37.5 -50.5z"/>
<glyph unicode="Ễ" d="M627 788v-133h-346v-518h393v-137h-551v1380h526v-137h-368v-455h346zM326 1655h135l178 -201h-137l-107 113h-4l-106 -113h-135zM262 1679h-84q-3 71 30.5 121.5t94.5 50.5q7 0 15 -1t13.5 -2t13 -3.5t11.5 -4t12.5 -5.5t10.5 -5.5t11 -6.5t11 -6q4 -2 16 -9t17.5 -9.5 t15 -7t17.5 -6t16 -1.5q25 0 38 16t14 55h83q0 -81 -32.5 -127.5t-96.5 -46.5q-36 0 -98 37q-10 5 -27 14.5t-28.5 14t-22.5 4.5q-42 0 -51 -72z"/>
<glyph unicode="ễ" horiz-adv-x="743" d="M682 481h-461q2 -368 236 -368q98 0 164 39l24 -117q-83 -47 -217 -47q-175 0 -267.5 132.5t-92.5 364.5q0 240 91.5 381.5t241.5 141.5q73 0 129 -36.5t89 -99t49 -139t16 -164.5q0 -63 -2 -88zM223 598h309q3 140 -40.5 213.5t-106.5 73.5q-71 0 -114 -87t-48 -200z M344 1331h109l155 -211h-125l-82 123h-4l-84 -123h-125zM266 1354h-84q-2 71 32 122.5t93 51.5q9 0 16.5 -1t16 -3.5t14 -4t14.5 -6t12.5 -6t13.5 -7.5t12 -7q3 -2 16 -9.5t18 -9.5t14.5 -6.5t17 -6t15.5 -1.5q25 0 38 15.5t14 54.5h84q0 -80 -32 -127t-97 -47q-37 0 -99 37 q-5 3 -16 9.5t-16.5 9t-14 6.5t-16 5.5t-15.5 1.5q-42 0 -51 -71z"/>
<glyph unicode="Ệ" d="M627 788v-133h-346v-518h393v-137h-551v1380h526v-137h-368v-455h346zM317 1655h138l178 -201h-139l-105 113h-4l-106 -113h-138zM389 -346q-38 0 -65 26.5t-27 63.5q0 39 26.5 65.5t65.5 26.5q38 0 64 -26t26 -66q0 -37 -26 -63.5t-64 -26.5z"/>
<glyph unicode="ệ" horiz-adv-x="743" d="M682 481h-461q2 -368 236 -368q98 0 164 39l24 -117q-83 -47 -217 -47q-175 0 -267.5 132.5t-92.5 364.5q0 240 91.5 381.5t241.5 141.5q73 0 129 -36.5t89 -99t49 -139t16 -164.5q0 -63 -2 -88zM223 598h309q3 140 -40.5 213.5t-106.5 73.5q-71 0 -114 -87t-48 -200z M317 1397h107l162 -277h-117l-96 176h-4l-95 -176h-118zM367 -164q37 0 61.5 -26t24.5 -66q0 -38 -25 -64t-63 -26q-37 0 -64 26t-27 64q0 39 27 65.5t66 26.5z"/>
<glyph unicode="Ỉ" horiz-adv-x="407" d="M123 1380h158v-1380h-158v1380zM236 1446l-82 18q11 31 51.5 77.5t40.5 82.5q0 26 -17 42.5t-43 16.5q-47 0 -86 -65l-57 43q59 119 174 119q61 0 103 -37.5t42 -93.5q0 -39 -20 -70t-54.5 -67t-51.5 -66z"/>
<glyph unicode="ỉ" horiz-adv-x="376" d="M268 0h-157v991h157v-991zM219 1085l-86 19q11 38 55.5 95.5t44.5 96.5q0 30 -18 49t-47 19q-46 0 -82 -66l-57 43q54 123 168 123q66 0 109.5 -40.5t43.5 -102.5q0 -36 -15 -68t-34 -53.5t-43.5 -53t-38.5 -61.5z"/>
<glyph unicode="Ị" horiz-adv-x="407" d="M123 1380h158v-1380h-158v1380zM205 -346q-38 0 -65 26.5t-27 63.5q0 39 26.5 65.5t65.5 26.5q38 0 64 -26t26 -66q0 -37 -26 -63.5t-64 -26.5z"/>
<glyph unicode="ị" horiz-adv-x="376" d="M268 0h-157v991h157v-991zM186 1350q43 0 69 -28.5t26 -74.5q1 -46 -26 -74t-71 -28q-39 0 -64.5 28.5t-25.5 73.5t26.5 74t65.5 29zM184 -164q37 0 61.5 -26t24.5 -66q0 -38 -25 -64t-63 -26q-37 0 -63.5 26t-26.5 64q0 39 26.5 65.5t65.5 26.5z"/>
<glyph unicode="Ọ" horiz-adv-x="913" d="M471 1397q177 0 277 -184t100 -513q0 -152 -20.5 -273t-56 -203t-86.5 -136.5t-109.5 -79t-126.5 -24.5q-176 0 -279.5 183.5t-103.5 524.5q0 336 110 520.5t295 184.5zM457 1257q-62 0 -108 -48t-71 -131t-37 -179.5t-12 -208.5q0 -113 12 -210t37.5 -179.5t71.5 -130 t109 -47.5q64 0 110 50t70 136t34.5 180.5t10.5 204.5q0 106 -10.5 198.5t-35 178.5t-71 136t-110.5 50zM457 -346q-38 0 -65 26.5t-27 63.5q0 39 26.5 65.5t65.5 26.5q38 0 64 -26t26 -66q0 -37 -26 -63.5t-64 -26.5z"/>
<glyph unicode="ọ" horiz-adv-x="784" d="M399 1008q140 0 230 -132t90 -380q0 -111 -20 -200t-52.5 -146t-76 -95.5t-88.5 -54.5t-93 -16q-141 0 -231 130t-90 380q0 131 27.5 232.5t74.5 161.5t105 90t124 30zM393 881q-50 0 -85.5 -37.5t-52 -99.5t-23.5 -122t-7 -126q0 -54 4 -103.5t15.5 -103t30 -92 t50 -63.5t72.5 -25q48 0 82 37.5t50 99.5t23 123t7 127t-7 126t-23.5 122t-51.5 99.5t-84 37.5zM387 -164q37 0 61.5 -26t24.5 -66q0 -38 -25 -64t-63 -26q-37 0 -63.5 26t-26.5 64q0 39 26.5 65.5t65.5 26.5z"/>
<glyph unicode="Ỏ" horiz-adv-x="913" d="M471 1397q177 0 277 -184t100 -513q0 -152 -20.5 -273t-56 -203t-86.5 -136.5t-109.5 -79t-126.5 -24.5q-176 0 -279.5 183.5t-103.5 524.5q0 336 110 520.5t295 184.5zM457 1257q-62 0 -108 -48t-71 -131t-37 -179.5t-12 -208.5q0 -113 12 -210t37.5 -179.5t71.5 -130 t109 -47.5q64 0 110 50t70 136t34.5 180.5t10.5 204.5q0 106 -10.5 198.5t-35 178.5t-71 136t-110.5 50zM487 1446l-81 18q11 31 51.5 77.5t40.5 82.5q0 26 -17 42.5t-43 16.5q-47 0 -86 -65l-57 43q59 119 174 119q61 0 102 -37.5t41 -93.5q0 -39 -20 -70t-54 -67t-51 -66z "/>
<glyph unicode="ỏ" horiz-adv-x="784" d="M399 1008q140 0 230 -132t90 -380q0 -111 -20 -200t-52.5 -146t-76 -95.5t-88.5 -54.5t-93 -16q-141 0 -231 130t-90 380q0 131 27.5 232.5t74.5 161.5t105 90t124 30zM393 881q-50 0 -85.5 -37.5t-52 -99.5t-23.5 -122t-7 -126q0 -54 4 -103.5t15.5 -103t30 -92 t50 -63.5t72.5 -25q48 0 82 37.5t50 99.5t23 123t7 127t-7 126t-23.5 122t-51.5 99.5t-84 37.5zM422 1085l-86 19q11 38 55.5 95.5t44.5 96.5q0 30 -18 49t-47 19q-46 0 -82 -66l-58 43q54 123 168 123q66 0 110 -41t44 -102q0 -36 -15 -68t-34 -53.5t-43.5 -53t-38.5 -61.5 z"/>
<glyph unicode="Ố" horiz-adv-x="913" d="M471 1397q177 0 277 -184t100 -513q0 -152 -20.5 -273t-56 -203t-86.5 -136.5t-109.5 -79t-126.5 -24.5q-176 0 -279.5 183.5t-103.5 524.5q0 336 110 520.5t295 184.5zM457 1257q-62 0 -108 -48t-71 -131t-37 -179.5t-12 -208.5q0 -113 12 -210t37.5 -179.5t71.5 -130 t109 -47.5q64 0 110 50t70 136t34.5 180.5t10.5 204.5q0 106 -10.5 198.5t-35 178.5t-71 136t-110.5 50zM412 1655h123l157 -201h-129l-90 117h-4l-88 -117h-125zM750 1806h163l-204 -207h-95z"/>
<glyph unicode="ố" horiz-adv-x="784" d="M399 1008q140 0 230 -132t90 -380q0 -111 -20 -200t-52.5 -146t-76 -95.5t-88.5 -54.5t-93 -16q-141 0 -231 130t-90 380q0 131 27.5 232.5t74.5 161.5t105 90t124 30zM393 881q-50 0 -85.5 -37.5t-52 -99.5t-23.5 -122t-7 -126q0 -54 4 -103.5t15.5 -103t30 -92 t50 -63.5t72.5 -25q48 0 82 37.5t50 99.5t23 123t7 127t-7 126t-23.5 122t-51.5 99.5t-84 37.5zM344 1397h111l127 -277h-113l-68 170h-6l-65 -170h-115zM649 1520h139l-157 -240h-84z"/>
<glyph unicode="Ồ" horiz-adv-x="913" d="M471 1397q177 0 277 -184t100 -513q0 -152 -20.5 -273t-56 -203t-86.5 -136.5t-109.5 -79t-126.5 -24.5q-176 0 -279.5 183.5t-103.5 524.5q0 336 110 520.5t295 184.5zM457 1257q-62 0 -108 -48t-71 -131t-37 -179.5t-12 -208.5q0 -113 12 -210t37.5 -179.5t71.5 -130 t109 -47.5q64 0 110 50t70 136t34.5 180.5t10.5 204.5q0 106 -10.5 198.5t-35 178.5t-71 136t-110.5 50zM500 1776h164l135 -205h-94zM403 1655h123l158 -201h-129l-88 117h-4l-90 -117h-125z"/>
<glyph unicode="ồ" horiz-adv-x="784" d="M399 1008q140 0 230 -132t90 -380q0 -111 -20 -200t-52.5 -146t-76 -95.5t-88.5 -54.5t-93 -16q-141 0 -231 130t-90 380q0 131 27.5 232.5t74.5 161.5t105 90t124 30zM393 881q-50 0 -85.5 -37.5t-52 -99.5t-23.5 -122t-7 -126q0 -54 4 -103.5t15.5 -103t30 -92 t50 -63.5t72.5 -25q48 0 82 37.5t50 99.5t23 123t7 127t-7 126t-23.5 122t-51.5 99.5t-84 37.5zM457 1520h137l94 -238h-84zM346 1397h111l127 -277h-113l-68 170h-6l-65 -170h-115z"/>
<glyph unicode="Ổ" horiz-adv-x="913" d="M471 1397q177 0 277 -184t100 -513q0 -152 -20.5 -273t-56 -203t-86.5 -136.5t-109.5 -79t-126.5 -24.5q-176 0 -279.5 183.5t-103.5 524.5q0 336 110 520.5t295 184.5zM457 1257q-62 0 -108 -48t-71 -131t-37 -179.5t-12 -208.5q0 -113 12 -210t37.5 -179.5t71.5 -130 t109 -47.5q64 0 110 50t70 136t34.5 180.5t10.5 204.5q0 106 -10.5 198.5t-35 178.5t-71 136t-110.5 50zM401 1655h123l158 -201h-127l-90 117h-4l-90 -117h-125zM715 1540l-74 19q10 32 50 77t40 78q0 27 -15.5 43.5t-41.5 16.5t-46 -17.5t-42 -48.5l-54 41q60 115 170 115 q58 0 97 -36t39 -89q0 -39 -20 -70t-53.5 -66t-49.5 -63z"/>
<glyph unicode="ổ" horiz-adv-x="784" d="M399 1008q140 0 230 -132t90 -380q0 -111 -20 -200t-52.5 -146t-76 -95.5t-88.5 -54.5t-93 -16q-141 0 -231 130t-90 380q0 131 27.5 232.5t74.5 161.5t105 90t124 30zM393 881q-50 0 -85.5 -37.5t-52 -99.5t-23.5 -122t-7 -126q0 -54 4 -103.5t15.5 -103t30 -92 t50 -63.5t72.5 -25q48 0 82 37.5t50 99.5t23 123t7 127t-7 126t-23.5 122t-51.5 99.5t-84 37.5zM342 1397h111l127 -277h-113l-66 170h-8l-65 -170h-115zM635 1278l-78 16q10 33 50 77.5t40 78.5q0 26 -16.5 42.5t-42.5 16.5q-45 0 -84 -65l-55 41q60 114 165 114 q62 0 103 -37t41 -92q0 -38 -20 -67.5t-53 -62.5t-50 -62z"/>
<glyph unicode="Ỗ" horiz-adv-x="913" d="M471 1397q177 0 277 -184t100 -513q0 -152 -20.5 -273t-56 -203t-86.5 -136.5t-109.5 -79t-126.5 -24.5q-176 0 -279.5 183.5t-103.5 524.5q0 336 110 520.5t295 184.5zM457 1257q-62 0 -108 -48t-71 -131t-37 -179.5t-12 -208.5q0 -113 12 -210t37.5 -179.5t71.5 -130 t109 -47.5q64 0 110 50t70 136t34.5 180.5t10.5 204.5q0 106 -10.5 198.5t-35 178.5t-71 136t-110.5 50zM393 1655h135l179 -201h-138l-106 113h-4l-107 -113h-135zM330 1679h-84q-3 71 30.5 121.5t92.5 50.5q12 0 23 -1.5t23 -6t17 -7t19.5 -10.5t17.5 -9q4 -2 16 -9 t17.5 -9.5t15 -7t17.5 -6t16 -1.5q25 0 37.5 16t13.5 55h84q0 -81 -32.5 -127.5t-96.5 -46.5q-36 0 -98 37q-10 5 -27 14.5t-28.5 14t-22.5 4.5q-42 0 -51 -72z"/>
<glyph unicode="ỗ" horiz-adv-x="784" d="M399 1008q140 0 230 -132t90 -380q0 -111 -20 -200t-52.5 -146t-76 -95.5t-88.5 -54.5t-93 -16q-141 0 -231 130t-90 380q0 131 27.5 232.5t74.5 161.5t105 90t124 30zM393 881q-50 0 -85.5 -37.5t-52 -99.5t-23.5 -122t-7 -126q0 -54 4 -103.5t15.5 -103t30 -92 t50 -63.5t72.5 -25q48 0 82 37.5t50 99.5t23 123t7 127t-7 126t-23.5 122t-51.5 99.5t-84 37.5zM340 1331h109l155 -211h-125l-84 123h-4l-82 -123h-125zM262 1354h-84q-2 71 32 122.5t93 51.5q10 0 20 -2t16.5 -3.5t17.5 -6.5t14.5 -6.5t15.5 -8.5t14 -8q3 -2 14 -8 t14.5 -8t12.5 -6.5t14.5 -6t12.5 -3t14 -1.5q25 0 38 15.5t14 54.5h83q0 -80 -32 -127t-97 -47q-36 0 -98 37q-4 2 -14 7.5t-14 8t-12 6.5t-13.5 5.5t-12 3t-12.5 1.5q-42 0 -51 -71z"/>
<glyph unicode="Ộ" horiz-adv-x="913" d="M471 1397q177 0 277 -184t100 -513q0 -152 -20.5 -273t-56 -203t-86.5 -136.5t-109.5 -79t-126.5 -24.5q-176 0 -279.5 183.5t-103.5 524.5q0 336 110 520.5t295 184.5zM457 1257q-62 0 -108 -48t-71 -131t-37 -179.5t-12 -208.5q0 -113 12 -210t37.5 -179.5t71.5 -130 t109 -47.5q64 0 110 50t70 136t34.5 180.5t10.5 204.5q0 106 -10.5 198.5t-35 178.5t-71 136t-110.5 50zM389 1655h137l179 -201h-140l-106 113h-4l-105 -113h-137zM457 -346q-38 0 -65 26.5t-27 63.5q0 39 26.5 65.5t65.5 26.5q38 0 64 -26t26 -66q0 -37 -26 -63.5 t-64 -26.5z"/>
<glyph unicode="ộ" horiz-adv-x="784" d="M399 1008q140 0 230 -132t90 -380q0 -111 -20 -200t-52.5 -146t-76 -95.5t-88.5 -54.5t-93 -16q-141 0 -231 130t-90 380q0 131 27.5 232.5t74.5 161.5t105 90t124 30zM393 881q-50 0 -85.5 -37.5t-52 -99.5t-23.5 -122t-7 -126q0 -54 4 -103.5t15.5 -103t30 -92 t50 -63.5t72.5 -25q48 0 82 37.5t50 99.5t23 123t7 127t-7 126t-23.5 122t-51.5 99.5t-84 37.5zM340 1397h106l162 -277h-119l-94 176h-4l-94 -176h-121zM387 -164q37 0 61.5 -26t24.5 -66q0 -38 -25 -64t-63 -26q-37 0 -63.5 26t-26.5 64q0 39 26.5 65.5t65.5 26.5z"/>
<glyph unicode="Ớ" horiz-adv-x="913" d="M459 123q64 0 110 50t70 136t34.5 180.5t10.5 204.5q0 106 -10.5 198.5t-35 178.5t-71 136t-110.5 50t-110.5 -50t-71.5 -135t-36 -180t-10 -200q-1 -108 10 -203.5t36 -180.5t72.5 -135t111.5 -50zM739 1489l121 22q33 -64 33 -137q0 -70 -38.5 -116.5t-109.5 -45.5 q103 -181 103 -512q0 -152 -20.5 -273t-56 -203t-86.5 -136.5t-109.5 -79t-126.5 -24.5q-176 0 -279.5 183.5t-103.5 524.5q0 336 110 520.5t295 184.5q76 0 145 -37q13 -8 32.5 -19.5t28 -16.5t19.5 -9t21 -4q29 0 41 16t12 49q0 44 -31 113zM555 1675h186l-254 -221h-125z "/>
<glyph unicode="ớ" horiz-adv-x="784" d="M393 881q-50 0 -85.5 -37.5t-52 -99.5t-23.5 -122t-7 -126q0 -54 4 -103.5t15.5 -103t30 -92t50 -63.5t72.5 -25q48 0 82 37.5t50 99.5t23 123t7 127t-7 126t-23.5 122t-51.5 99.5t-84 37.5zM645 1120l119 21q35 -64 35 -135q0 -72 -41.5 -114.5t-114.5 -43.5 q76 -128 76 -352q0 -111 -20 -200t-52.5 -146t-76 -95.5t-88.5 -54.5t-93 -16q-141 0 -231 130t-90 380q0 131 27.5 232.5t74.5 161.5t105 90t124 30q49 0 113 -27q4 -2 27.5 -13.5t41 -16.5t35.5 -5q26 0 43 17t17 49q0 52 -31 108zM473 1397h162l-215 -277h-105z"/>
<glyph unicode="Ờ" horiz-adv-x="913" d="M459 123q64 0 110 50t70 136t34.5 180.5t10.5 204.5q0 106 -10.5 198.5t-35 178.5t-71 136t-110.5 50t-110.5 -50t-71.5 -135t-36 -180t-10 -200q-1 -108 10 -203.5t36 -180.5t72.5 -135t111.5 -50zM739 1489l121 22q33 -64 33 -137q0 -70 -38.5 -116.5t-109.5 -45.5 q103 -181 103 -512q0 -152 -20.5 -273t-56 -203t-86.5 -136.5t-109.5 -79t-126.5 -24.5q-176 0 -279.5 183.5t-103.5 524.5q0 336 110 520.5t295 184.5q76 0 145 -37q13 -8 32.5 -19.5t28 -16.5t19.5 -9t21 -4q29 0 41 16t12 49q0 44 -31 113zM197 1675h186l192 -221h-122z "/>
<glyph unicode="ờ" horiz-adv-x="784" d="M393 881q-50 0 -85.5 -37.5t-52 -99.5t-23.5 -122t-7 -126q0 -54 4 -103.5t15.5 -103t30 -92t50 -63.5t72.5 -25q48 0 82 37.5t50 99.5t23 123t7 127t-7 126t-23.5 122t-51.5 99.5t-84 37.5zM645 1120l119 21q35 -64 35 -135q0 -72 -41.5 -114.5t-114.5 -43.5 q76 -128 76 -352q0 -111 -20 -200t-52.5 -146t-76 -95.5t-88.5 -54.5t-93 -16q-141 0 -231 130t-90 380q0 131 27.5 232.5t74.5 161.5t105 90t124 30q49 0 113 -27q4 -2 27.5 -13.5t41 -16.5t35.5 -5q26 0 43 17t17 49q0 52 -31 108zM178 1397h162l158 -277h-105z"/>
<glyph unicode="Ở" horiz-adv-x="913" d="M459 123q64 0 110 50t70 136t34.5 180.5t10.5 204.5q0 106 -10.5 198.5t-35 178.5t-71 136t-110.5 50t-110.5 -50t-71.5 -135t-36 -180t-10 -200q-1 -108 10 -203.5t36 -180.5t72.5 -135t111.5 -50zM739 1489l121 22q33 -64 33 -137q0 -70 -38.5 -116.5t-109.5 -45.5 q103 -181 103 -512q0 -152 -20.5 -273t-56 -203t-86.5 -136.5t-109.5 -79t-126.5 -24.5q-176 0 -279.5 183.5t-103.5 524.5q0 336 110 520.5t295 184.5q76 0 145 -37q13 -8 32.5 -19.5t28 -16.5t19.5 -9t21 -4q29 0 41 16t12 49q0 44 -31 113zM487 1446l-81 18 q11 31 51.5 77.5t40.5 82.5q0 26 -17 42.5t-43 16.5q-47 0 -86 -65l-57 43q59 119 174 119q61 0 102 -37.5t41 -93.5q0 -39 -20 -70t-54 -67t-51 -66z"/>
<glyph unicode="ở" horiz-adv-x="784" d="M393 881q-50 0 -85.5 -37.5t-52 -99.5t-23.5 -122t-7 -126q0 -54 4 -103.5t15.5 -103t30 -92t50 -63.5t72.5 -25q48 0 82 37.5t50 99.5t23 123t7 127t-7 126t-23.5 122t-51.5 99.5t-84 37.5zM645 1120l119 21q35 -64 35 -135q0 -72 -41.5 -114.5t-114.5 -43.5 q76 -128 76 -352q0 -111 -20 -200t-52.5 -146t-76 -95.5t-88.5 -54.5t-93 -16q-141 0 -231 130t-90 380q0 131 27.5 232.5t74.5 161.5t105 90t124 30q49 0 113 -27q4 -2 27.5 -13.5t41 -16.5t35.5 -5q26 0 43 17t17 49q0 52 -31 108zM420 1085l-84 19q9 34 35 68t45.5 63.5 t19.5 60.5q0 30 -18 49t-47 19q-46 0 -82 -66l-58 43q23 56 66 89.5t102 33.5q66 0 109 -40.5t43 -102.5q0 -36 -15 -68t-34 -53.5t-43.5 -53t-38.5 -61.5z"/>
<glyph unicode="Ỡ" horiz-adv-x="913" d="M459 123q64 0 110 50t70 136t34.5 180.5t10.5 204.5q0 106 -10.5 198.5t-35 178.5t-71 136t-110.5 50t-110.5 -50t-71.5 -135t-36 -180t-10 -200q-1 -108 10 -203.5t36 -180.5t72.5 -135t111.5 -50zM739 1489l121 22q33 -64 33 -137q0 -70 -38.5 -116.5t-109.5 -45.5 q103 -181 103 -512q0 -152 -20.5 -273t-56 -203t-86.5 -136.5t-109.5 -79t-126.5 -24.5q-176 0 -279.5 183.5t-103.5 524.5q0 336 110 520.5t295 184.5q76 0 145 -37q13 -8 32.5 -19.5t28 -16.5t19.5 -9t21 -4q29 0 41 16t12 49q0 44 -31 113zM324 1470h-84q-2 87 30.5 140 t89.5 53q9 0 16.5 -1t16 -3.5t14 -4t14.5 -6t12.5 -6t13.5 -7.5t12 -7q4 -3 16 -10.5t17.5 -10.5t14.5 -7.5t16.5 -6.5t15.5 -2q25 0 38 16.5t17 57.5h82q3 -184 -127 -184q-41 0 -100 35q-3 2 -11.5 7.5t-12 7.5l-10.5 6t-11 5.5t-10 3.5t-11 3t-10 1q-22 0 -33 -19 t-16 -61z"/>
<glyph unicode="ỡ" horiz-adv-x="784" d="M393 881q-50 0 -85.5 -37.5t-52 -99.5t-23.5 -122t-7 -126q0 -54 4 -103.5t15.5 -103t30 -92t50 -63.5t72.5 -25q48 0 82 37.5t50 99.5t23 123t7 127t-7 126t-23.5 122t-51.5 99.5t-84 37.5zM645 1120l119 21q35 -64 35 -135q0 -72 -41.5 -114.5t-114.5 -43.5 q76 -128 76 -352q0 -111 -20 -200t-52.5 -146t-76 -95.5t-88.5 -54.5t-93 -16q-141 0 -231 130t-90 380q0 131 27.5 232.5t74.5 161.5t105 90t124 30q49 0 113 -27q4 -2 27.5 -13.5t41 -16.5t35.5 -5q26 0 43 17t17 49q0 52 -31 108zM256 1149h-86q-2 84 32 138t95 54 q10 0 20 -1.5t17 -3.5t17.5 -6.5t14.5 -6.5t16 -8.5t15 -7.5q4 -2 14 -8.5t13.5 -9t12 -6.5t13.5 -6t12.5 -3.5t14.5 -1.5q25 0 37.5 16t13.5 58h84q0 -87 -32.5 -136t-96.5 -49q-37 0 -100 35q-8 4 -20.5 12t-19.5 12t-17 7.5t-19 3.5q-45 0 -51 -82z"/>
<glyph unicode="Ợ" horiz-adv-x="913" d="M459 123q64 0 110 50t70 136t34.5 180.5t10.5 204.5q0 106 -10.5 198.5t-35 178.5t-71 136t-110.5 50t-110.5 -50t-71.5 -135t-36 -180t-10 -200q-1 -108 10 -203.5t36 -180.5t72.5 -135t111.5 -50zM739 1489l121 22q33 -64 33 -137q0 -70 -38.5 -116.5t-109.5 -45.5 q103 -181 103 -512q0 -152 -20.5 -273t-56 -203t-86.5 -136.5t-109.5 -79t-126.5 -24.5q-176 0 -279.5 183.5t-103.5 524.5q0 336 110 520.5t295 184.5q76 0 145 -37q13 -8 32.5 -19.5t28 -16.5t19.5 -9t21 -4q29 0 41 16t12 49q0 44 -31 113zM457 -346q-38 0 -65 26.5 t-27 63.5q0 39 26.5 65.5t65.5 26.5q38 0 64 -26t26 -66q0 -37 -26 -63.5t-64 -26.5z"/>
<glyph unicode="ợ" horiz-adv-x="784" d="M393 881q-50 0 -85.5 -37.5t-52 -99.5t-23.5 -122t-7 -126q0 -54 4 -103.5t15.5 -103t30 -92t50 -63.5t72.5 -25q48 0 82 37.5t50 99.5t23 123t7 127t-7 126t-23.5 122t-51.5 99.5t-84 37.5zM645 1120l119 21q35 -64 35 -135q0 -72 -41.5 -114.5t-114.5 -43.5 q76 -128 76 -352q0 -111 -20 -200t-52.5 -146t-76 -95.5t-88.5 -54.5t-93 -16q-141 0 -231 130t-90 380q0 131 27.5 232.5t74.5 161.5t105 90t124 30q49 0 113 -27q4 -2 27.5 -13.5t41 -16.5t35.5 -5q26 0 43 17t17 49q0 52 -31 108zM391 -164q37 0 62.5 -26.5t25.5 -65.5 t-25.5 -64.5t-64.5 -25.5q-37 0 -62.5 26t-25.5 64q0 39 26.5 65.5t63.5 26.5z"/>
<glyph unicode="Ụ" horiz-adv-x="935" d="M121 1380h158v-925q0 -332 188 -332q190 0 190 332v925h158v-901q0 -256 -94.5 -375.5t-257.5 -119.5q-342 0 -342 477v919zM469 -346q-38 0 -65 26.5t-27 63.5q0 39 26.5 65.5t65.5 26.5q38 0 64 -26t26 -66q0 -37 -26 -63.5t-64 -26.5z"/>
<glyph unicode="ụ" horiz-adv-x="815" d="M705 991v-721q0 -66 4 -167t4 -103h-138l-10 104h-4q-29 -46 -85 -83t-128 -37q-127 0 -184.5 95.5t-57.5 285.5v626h158v-604q0 -63 5.5 -109t20 -84t41 -57.5t66.5 -19.5q61 0 97.5 43t44.5 88q8 36 8 90v653h158zM401 -164q37 0 62.5 -26.5t25.5 -65.5q0 -38 -26 -64 t-64 -26q-37 0 -63.5 26t-26.5 64q0 39 26.5 65.5t65.5 26.5z"/>
<glyph unicode="Ủ" horiz-adv-x="935" d="M121 1380h158v-925q0 -332 188 -332q190 0 190 332v925h158v-901q0 -256 -94.5 -375.5t-257.5 -119.5q-342 0 -342 477v919zM500 1446l-82 18q11 31 51.5 77.5t40.5 82.5q0 26 -16.5 42.5t-42.5 16.5q-47 0 -86 -65l-58 43q59 119 174 119q62 0 104 -38t42 -93 q0 -39 -20.5 -70t-55 -67t-51.5 -66z"/>
<glyph unicode="ủ" horiz-adv-x="815" d="M705 991v-721q0 -66 4 -167t4 -103h-138l-10 104h-4q-29 -46 -85 -83t-128 -37q-127 0 -184.5 95.5t-57.5 285.5v626h158v-604q0 -63 5.5 -109t20 -84t41 -57.5t66.5 -19.5q61 0 97.5 43t44.5 88q8 36 8 90v653h158zM436 1085l-86 19q11 38 56 95.5t45 96.5 q0 29 -18.5 48.5t-47.5 19.5q-46 0 -82 -66l-57 43q54 123 168 123q67 0 110 -40.5t43 -102.5q0 -36 -15 -68t-34 -53.5t-43.5 -53t-38.5 -61.5z"/>
<glyph unicode="Ứ" horiz-adv-x="970" d="M831 1550l121 19q31 -64 31 -133q0 -148 -147 -154l-21 -2v-801q0 -256 -94.5 -375.5t-257.5 -119.5q-342 0 -342 477v919h158v-925q0 -332 188 -332q190 0 190 332v925h127q41 0 57.5 13t16.5 47q0 54 -27 110zM569 1675h187l-256 -221h-125z"/>
<glyph unicode="ứ" horiz-adv-x="815" d="M709 1165l120 19q33 -60 33 -131q0 -66 -36 -107.5t-109 -44.5l-12 -2v-629q0 -66 4 -167t4 -103h-138l-10 104h-4q-29 -46 -85 -83t-128 -37q-127 0 -184.5 95.5t-57.5 285.5v626h158v-604q0 -63 5.5 -109t20 -84t41 -57.5t66.5 -19.5q61 0 97.5 43t44.5 88q8 36 8 90 v653h119q40 0 55.5 15.5t15.5 50.5q0 54 -28 108zM506 1397h162l-215 -277h-105z"/>
<glyph unicode="Ừ" horiz-adv-x="970" d="M831 1550l121 19q31 -64 31 -133q0 -148 -147 -154l-21 -2v-801q0 -256 -94.5 -375.5t-257.5 -119.5q-342 0 -342 477v919h158v-925q0 -332 188 -332q190 0 190 332v925h127q41 0 57.5 13t16.5 47q0 54 -27 110zM178 1675h187l192 -221h-123z"/>
<glyph unicode="ừ" horiz-adv-x="815" d="M709 1165l120 19q33 -60 33 -131q0 -66 -36 -107.5t-109 -44.5l-12 -2v-629q0 -66 4 -167t4 -103h-138l-10 104h-4q-29 -46 -85 -83t-128 -37q-127 0 -184.5 95.5t-57.5 285.5v626h158v-604q0 -63 5.5 -109t20 -84t41 -57.5t66.5 -19.5q61 0 97.5 43t44.5 88q8 36 8 90 v653h119q40 0 55.5 15.5t15.5 50.5q0 54 -28 108zM176 1397h162l158 -277h-105z"/>
<glyph unicode="Ử" horiz-adv-x="970" d="M831 1550l121 19q31 -64 31 -133q0 -148 -147 -154l-21 -2v-801q0 -256 -94.5 -375.5t-257.5 -119.5q-342 0 -342 477v919h158v-925q0 -332 188 -332q190 0 190 332v925h127q41 0 57.5 13t16.5 47q0 54 -27 110zM518 1446l-84 18q11 32 52.5 78t41.5 82q0 26 -16.5 42.5 t-44.5 16.5q-45 0 -84 -65l-57 43q25 53 68.5 86t103.5 33q63 0 104 -37.5t41 -93.5q0 -39 -20.5 -70t-54 -67t-50.5 -66z"/>
<glyph unicode="ử" horiz-adv-x="815" d="M709 1165l120 19q33 -60 33 -131q0 -66 -36 -107.5t-109 -44.5l-12 -2v-629q0 -66 4 -167t4 -103h-138l-10 104h-4q-29 -46 -85 -83t-128 -37q-127 0 -184.5 95.5t-57.5 285.5v626h158v-604q0 -63 5.5 -109t20 -84t41 -57.5t66.5 -19.5q61 0 97.5 43t44.5 88q8 36 8 90 v653h119q40 0 55.5 15.5t15.5 50.5q0 54 -28 108zM455 1085l-86 19q11 38 55.5 95.5t44.5 96.5q0 29 -18.5 48.5t-47.5 19.5q-45 0 -81 -66l-58 43q54 123 168 123q66 0 110 -41t44 -102q0 -36 -15 -68t-34 -53.5t-43.5 -53t-38.5 -61.5z"/>
<glyph unicode="Ữ" horiz-adv-x="970" d="M831 1550l121 19q31 -64 31 -133q0 -148 -147 -154l-21 -2v-801q0 -256 -94.5 -375.5t-257.5 -119.5q-342 0 -342 477v919h158v-925q0 -332 188 -332q190 0 190 332v925h127q41 0 57.5 13t16.5 47q0 54 -27 110zM352 1470h-84q-2 87 30.5 140t90.5 53q7 0 13 -0.5 t12.5 -2t11.5 -3t11.5 -4t10 -4t10 -5.5t9 -5t10 -5.5t8.5 -5.5q7 -4 21.5 -13t21 -13t18 -7.5t21.5 -3.5q25 0 38 17t16 57h81q3 -184 -127 -184q-41 0 -100 35q-51 34 -74 34q-22 0 -33 -19t-16 -61z"/>
<glyph unicode="ữ" horiz-adv-x="815" d="M709 1165l120 19q33 -60 33 -131q0 -66 -36 -107.5t-109 -44.5l-12 -2v-629q0 -66 4 -167t4 -103h-138l-10 104h-4q-29 -46 -85 -83t-128 -37q-127 0 -184.5 95.5t-57.5 285.5v626h158v-604q0 -63 5.5 -109t20 -84t41 -57.5t66.5 -19.5q61 0 97.5 43t44.5 88q8 36 8 90 v653h119q40 0 55.5 15.5t15.5 50.5q0 54 -28 108zM276 1149h-86q-2 85 31 138.5t94 53.5q20 0 40.5 -6.5t29 -10.5t31.5 -17q56 -35 82 -35q24 0 36 15.5t15 58.5h84q0 -87 -32.5 -136t-96.5 -49q-38 0 -101 35q-8 4 -20.5 12t-19.5 12t-17.5 7.5t-19.5 3.5q-44 0 -50 -82z "/>
<glyph unicode="Ự" horiz-adv-x="970" d="M831 1550l121 19q31 -64 31 -133q0 -148 -147 -154l-21 -2v-801q0 -256 -94.5 -375.5t-257.5 -119.5q-342 0 -342 477v919h158v-925q0 -332 188 -332q190 0 190 332v925h127q41 0 57.5 13t16.5 47q0 54 -27 110zM481 -164q37 0 61.5 -26t24.5 -66q0 -38 -25 -64t-63 -26 q-37 0 -63.5 26t-26.5 64q0 39 26.5 65.5t65.5 26.5z"/>
<glyph unicode="ự" horiz-adv-x="815" d="M709 1165l120 19q33 -60 33 -131q0 -66 -36 -107.5t-109 -44.5l-12 -2v-629q0 -66 4 -167t4 -103h-138l-10 104h-4q-29 -46 -85 -83t-128 -37q-127 0 -184.5 95.5t-57.5 285.5v626h158v-604q0 -63 5.5 -109t20 -84t41 -57.5t66.5 -19.5q61 0 97.5 43t44.5 88q8 36 8 90 v653h119q40 0 55.5 15.5t15.5 50.5q0 54 -28 108zM397 -164q37 0 61.5 -26t24.5 -66q0 -38 -25 -64t-63 -26q-37 0 -63.5 26t-26.5 64q0 39 26.5 65.5t65.5 26.5z"/>
<glyph unicode="Ỳ" horiz-adv-x="806" d="M481 0h-157v584l-304 796h166l123 -346q61 -167 103 -311h4q39 141 100 317l117 340h166l-318 -790v-590zM127 1661h184l195 -221h-125z"/>
<glyph unicode="ỳ" horiz-adv-x="708" d="M27 991h166l131 -569q5 -20 41 -205h4q9 52 43 203l116 571h156l-162 -637q-55 -226 -110.5 -381.5t-135.5 -257.5q-87 -109 -178 -151l-57 135q72 40 139 125q58 72 90 166q11 34 11 49q0 22 -5 37zM127 1397h162l157 -277h-104z"/>
<glyph unicode="Ỵ" horiz-adv-x="806" d="M481 0h-157v584l-304 796h166l123 -346q61 -167 103 -311h4q39 141 100 317l117 340h166l-318 -790v-590zM406 -346q-40 0 -67.5 26.5t-27.5 63.5q0 39 28 65.5t67 26.5q37 0 63.5 -26.5t26.5 -65.5q0 -37 -26.5 -63.5t-63.5 -26.5z"/>
<glyph unicode="ỵ" horiz-adv-x="708" d="M27 991h166l131 -569q5 -20 41 -205h4q9 52 43 203l116 571h156l-162 -637q-55 -226 -110.5 -381.5t-135.5 -257.5q-87 -109 -178 -151l-57 135q72 40 139 125q58 72 90 166q11 34 11 49q0 22 -5 37zM506 -164q37 0 62.5 -26.5t25.5 -65.5q0 -38 -26 -64t-64 -26 q-37 0 -63.5 26t-26.5 64q0 39 26.5 65.5t65.5 26.5z"/>
<glyph unicode="Ỷ" horiz-adv-x="806" d="M481 0h-157v584l-304 796h166l123 -346q61 -167 103 -311h4q39 141 100 317l117 340h166l-318 -790v-590zM436 1446l-84 18q11 31 51.5 77.5t40.5 82.5q0 27 -16 43t-43 16q-45 0 -84 -65l-59 43q60 119 174 119q61 0 103 -37.5t42 -93.5q0 -39 -20.5 -70t-54 -67 t-50.5 -66z"/>
<glyph unicode="ỷ" horiz-adv-x="708" d="M27 991h166l131 -569q5 -20 41 -205h4q9 52 43 203l116 571h156l-162 -637q-55 -226 -110.5 -381.5t-135.5 -257.5q-87 -109 -178 -151l-57 135q72 40 139 125q58 72 90 166q11 34 11 49q0 22 -5 37zM387 1085l-84 19q9 34 35 68t45.5 63.5t19.5 60.5q0 30 -18.5 49 t-48.5 19q-44 0 -80 -66l-57 43q23 55 66 89t100 34q67 0 110 -40.5t43 -102.5q0 -36 -15 -68t-34 -53.5t-43.5 -53t-38.5 -61.5z"/>
<glyph unicode="Ỹ" horiz-adv-x="806" d="M481 0h-157v584l-304 796h166l123 -346q61 -167 103 -311h4q39 141 100 317l117 340h166l-318 -790v-590zM270 1470h-84q-2 87 30.5 140t90.5 53q7 0 13 -0.5t12.5 -2t11.5 -3t11.5 -4t10 -4t10 -5.5t9 -5t10 -5.5t8.5 -5.5q7 -4 21.5 -13t21 -13t18 -7.5t21.5 -3.5 q25 0 37.5 16.5t16.5 57.5h82q3 -184 -127 -184q-42 0 -101 35q-51 34 -74 34q-43 0 -49 -80z"/>
<glyph unicode="ỹ" horiz-adv-x="708" d="M27 991h166l131 -569q5 -20 41 -205h4q9 52 43 203l116 571h156l-162 -637q-55 -226 -110.5 -381.5t-135.5 -257.5q-87 -109 -178 -151l-57 135q72 40 139 125q58 72 90 166q11 34 11 49q0 22 -5 37zM231 1149h-86q-2 85 31 138.5t94 53.5q20 0 40.5 -6.5t29 -10.5 t31.5 -17q5 -3 17 -10.5t17.5 -10t14.5 -7t17 -6t16 -1.5q24 0 36 15.5t15 58.5h84q0 -87 -32.5 -136t-96.5 -49q-38 0 -101 35q-7 4 -24.5 15t-28.5 15.5t-22 4.5q-46 0 -52 -82z"/>
<glyph unicode=" " horiz-adv-x="957"/>
<glyph unicode=" " horiz-adv-x="1915"/>
<glyph unicode=" " horiz-adv-x="957"/>
<glyph unicode=" " horiz-adv-x="1915"/>
<glyph unicode=" " horiz-adv-x="638"/>
<glyph unicode=" " horiz-adv-x="478"/>
<glyph unicode=" " horiz-adv-x="319"/>
<glyph unicode=" " horiz-adv-x="319"/>
<glyph unicode=" " horiz-adv-x="239"/>
<glyph unicode=" " horiz-adv-x="383"/>
<glyph unicode=" " horiz-adv-x="106"/>
<glyph unicode="‐" horiz-adv-x="571" d="M61 596h449v-123h-449v123z"/>
<glyph unicode="‑" horiz-adv-x="571" d="M61 596h449v-123h-449v123z"/>
<glyph unicode="‒" horiz-adv-x="571" d="M61 596h449v-123h-449v123z"/>
<glyph unicode="–" horiz-adv-x="1024" d="M61 590h902v-115h-902v115z"/>
<glyph unicode="—" horiz-adv-x="2048" d="M61 590h1926v-115h-1926v115z"/>
<glyph unicode="‘" horiz-adv-x="362" d="M205 932l-160 -21q31 119 86.5 259.5t97.5 213.5l95 13q-34 -95 -69.5 -229.5t-49.5 -235.5z"/>
<glyph unicode="’" horiz-adv-x="362" d="M160 1380l159 17q-31 -119 -86.5 -258t-97.5 -213l-94 -15q34 94 69.5 231t49.5 238z"/>
<glyph unicode="‚" horiz-adv-x="362" d="M135 -231l-94 -15q34 95 69.5 229.5t49.5 235.5l159 21q-31 -119 -86.5 -258t-97.5 -213z"/>
<glyph unicode="“" horiz-adv-x="628" d="M201 932l-160 -21q33 122 88.5 262.5t97.5 210.5l92 13q-34 -94 -69 -229t-49 -236zM473 932l-160 -21q33 120 88.5 260.5t96.5 212.5l94 13q-34 -95 -69.5 -229.5t-49.5 -235.5z"/>
<glyph unicode="”" horiz-adv-x="628" d="M156 1380l161 17q-32 -119 -88 -258.5t-98 -212.5l-92 -15q33 97 68 233t49 236zM428 1380l160 17q-31 -118 -86.5 -257.5t-98.5 -213.5l-94 -15q34 94 69.5 231t49.5 238z"/>
<glyph unicode="„" horiz-adv-x="628" d="M131 -231l-92 -15q34 98 68.5 232t48.5 233l161 21q-32 -119 -88 -258.5t-98 -212.5zM403 -231l-94 -15q34 95 69.5 229.5t49.5 235.5l160 21q-31 -118 -86.5 -257.5t-98.5 -213.5z"/>
<glyph unicode="†" horiz-adv-x="778" d="M317 1380h144l-12 -405l268 12v-139l-268 14l12 -964h-144l13 964l-267 -14v139l267 -12z"/>
<glyph unicode="‡" horiz-adv-x="778" d="M317 1380h144l-8 -399l264 12v-137l-264 12v-442l264 14v-139l-264 12l8 -415h-144l11 415l-265 -12v139l265 -14v442l-265 -12v137l265 -12z"/>
<glyph unicode="•" horiz-adv-x="526" d="M262 332q-83 0 -138.5 55.5t-55.5 140.5q-1 86 55.5 142.5t140.5 56.5q83 0 139 -56t56 -143q0 -85 -56 -140.5t-141 -55.5z"/>
<glyph unicode="…" horiz-adv-x="2048" d="M342 -16q-45 0 -74.5 32.5t-29.5 85.5q0 52 29.5 85.5t74.5 33.5q46 0 75 -32.5t29 -86.5t-28.5 -86t-75.5 -32zM1024 -16q-45 0 -74.5 32.5t-29.5 85.5q0 52 30.5 85.5t73.5 33.5q47 0 75.5 -32.5t28.5 -86.5q0 -55 -27.5 -86.5t-76.5 -31.5zM1706 -16q-45 0 -73.5 32.5 t-28.5 85.5q0 52 29.5 85.5t74.5 33.5q46 0 74 -32.5t28 -86.5q0 -55 -27.5 -86.5t-76.5 -31.5z"/>
<glyph unicode=" " horiz-adv-x="383"/>
<glyph unicode="‰" horiz-adv-x="1912" d="M1010 793q114 0 182 -110.5t68 -293.5q0 -197 -73 -300t-177 -103q-112 0 -182 108t-70 293q0 186 71.5 296t180.5 110zM1010 694q-37 0 -64 -28t-41 -75t-20 -96.5t-6 -105.5q0 -57 6 -107.5t20 -97.5t41 -74.5t64 -27.5t63.5 27.5t40 74.5t19.5 96.5t6 106.5 q0 55 -6 105t-19.5 97.5t-40 76t-63.5 28.5zM1602 793q114 0 181.5 -110.5t67.5 -293.5q0 -197 -72.5 -300t-176.5 -103q-111 0 -180.5 108.5t-69.5 292.5q0 186 70.5 296t179.5 110zM1602 694q-36 0 -63 -28t-41.5 -74.5t-21 -97t-6.5 -105.5q0 -57 6.5 -107.5t20.5 -97.5 t41 -74.5t64 -27.5t63.5 27.5t40 74.5t19.5 96.5t6 106.5q0 56 -5.5 105t-19 97t-40 76.5t-64.5 28.5zM313 1348q114 0 182 -110.5t68 -295.5q0 -198 -73 -302.5t-177 -104.5q-111 0 -181.5 110t-70.5 293q0 189 71.5 299.5t180.5 110.5zM313 1249q-48 0 -79 -50.5 t-41.5 -115.5t-10.5 -141q0 -57 6 -107.5t20 -98t41 -75.5t64 -28t63.5 28t40 75t19.5 97t6 107q0 56 -5.5 105.5t-19 98t-40 77t-64.5 28.5zM360 -16h-100l698 1364h101z"/>
<glyph unicode="‹" horiz-adv-x="430" d="M389 872l-213 -356l213 -356h-129l-209 356l211 356h127z"/>
<glyph unicode="›" horiz-adv-x="430" d="M254 516l-213 356h127l213 -356l-209 -356h-131z"/>
<glyph unicode="⁄" horiz-adv-x="223" d="M-186 -16h-101l697 1364h100z"/>
<glyph unicode=" " horiz-adv-x="478"/>
<glyph unicode="₫" horiz-adv-x="788" d="M150 219h505v-113h-505v113zM514 1339h137v-137h84v-92h-84v-616q0 -24 3 -87t3 -83h-118l-9 90h-6q-23 -43 -67 -72t-105 -29q-110 0 -179 96t-69 265q0 175 75.5 269.5t180.5 94.5q100 0 150 -82h4v154h-195v92h195v137zM514 578v178q0 31 -2 45q-6 52 -41.5 90.5 t-81.5 38.5q-71 0 -105 -72.5t-34 -183.5t34 -181.5t99 -70.5q91 0 125 110q6 18 6 46z"/>
<glyph unicode="€" horiz-adv-x="788" d="M733 166l27 -125q-35 -22 -90.5 -39.5t-114.5 -17.5q-174 0 -285 133q-113 132 -135 401h-100v98h94v29q0 63 2 88h-96v96h104q26 244 148 383q113 136 286 136q95 0 175 -50l-35 -129q-23 15 -63.5 28t-78.5 13q-102 0 -165 -77q-87 -94 -109 -304h346v-96h-354 q-2 -23 -2 -78v-39h356v-98h-350q14 -199 84 -295q67 -102 196 -102q41 0 86.5 14t73.5 31z"/>
<glyph unicode="₹" horiz-adv-x="788" d="M729 940h-133q-13 -148 -103.5 -239.5t-211.5 -104.5q78 -110 190 -289t182 -307h-157q-165 283 -375 586v116h61q110 0 181 65.5t79 172.5h-321v96h317q-29 185 -243 185h-74v125h594v-99h-215q82 -78 96 -211h133v-96z"/>
<glyph unicode="™" horiz-adv-x="1042" d="M51 1380h365v-88h-133v-469h-99v469h-133v88zM999 823h-96l-16 328q0 38 -4 156h-4q-18 -100 -35 -166l-74 -310h-100l-74 318q-3 19 -31 158h-4q0 -54 -4 -156l-16 -328h-92l32 557h148l67 -264q25 -118 29 -141h2q6 30 16.5 79.5t12.5 59.5l69 266h142z"/>
<glyph unicode="∂" horiz-adv-x="837" d="M143 1294l-47 107q60 41 120.5 65.5t139.5 24.5q64 0 123 -24.5t113.5 -79.5t94.5 -135t63.5 -198.5t23.5 -262.5q0 -168 -24.5 -306.5t-65.5 -229.5t-95.5 -153.5t-112 -90t-118.5 -27.5q-134 0 -214.5 107.5t-80.5 309.5q0 223 106 365.5t251 142.5q130 0 198 -110h3 v37q0 255 -83 387.5t-202 132.5q-111 0 -193 -62zM371 115q61 0 114.5 71.5t86.5 192t38 262.5q-26 67 -68.5 103t-92.5 36q-93 0 -160.5 -110t-67.5 -269q0 -150 43 -218t107 -68z"/>
<glyph unicode="∆" horiz-adv-x="843" d="M803 0h-764v90l305 1253h162l297 -1251v-92zM647 135l-155 676q-45 201 -68 346h-8q-15 -110 -68 -342l-153 -680h452z"/>
<glyph unicode="∏" horiz-adv-x="919" d="M899 1192h-123v-1376h-145v1376h-348v-1376h-146v1376h-123v139h885v-139z"/>
<glyph unicode="∑" horiz-adv-x="780" d="M774 -184h-754v104l379 651l-358 656v104h688v-135h-498v-8l330 -608l-358 -619v-8h571v-137z"/>
<glyph unicode="√" horiz-adv-x="1085" d="M1061 1690l-406 -1880h-112l-264 872l-146 -51l-33 90l262 98l193 -669q34 -126 37 -168h2q8 64 27 165l321 1543h119z"/>
<glyph unicode="∞" horiz-adv-x="1484" d="M1106 244q-28 0 -57 6.5t-50.5 13.5t-50.5 25.5t-44.5 28t-45.5 36t-39.5 35t-41 39t-36.5 35.5q-95 -95 -136 -127q-117 -92 -240 -92q-127 0 -208 83t-81 212q0 123 87.5 211t217.5 88q28 0 56.5 -6.5t49.5 -13.5t50.5 -26t44 -28t45 -36.5t39 -35.5t41 -40t36.5 -36 q96 98 142 133q115 89 237 89q126 0 207.5 -83.5t81.5 -215.5q0 -121 -87.5 -208t-217.5 -87zM1106 356q80 0 133 54t53 129q0 82 -50.5 134t-129.5 52q-35 0 -71 -13t-62 -28t-61 -46t-50.5 -47t-48.5 -50q14 -13 48 -47t54.5 -52t52.5 -41.5t64.5 -34t67.5 -10.5zM373 356 q35 0 71.5 13t61.5 27.5t61.5 46t50.5 46t50 50.5q-14 13 -48 47.5t-55 52.5t-53 41.5t-65 34t-68 10.5q-79 0 -131.5 -54.5t-52.5 -131.5q0 -79 50 -131t128 -52z"/>
<glyph unicode="∫" horiz-adv-x="636" d="M594 1612l-23 -109q-32 8 -55 8q-51 0 -84 -47q-30 -37 -41.5 -112t-11.5 -211q0 -147 7 -478.5t7 -486.5q0 -283 -78 -391q-63 -90 -178 -90q-56 0 -88 18l25 111q32 -8 55 -8q52 0 80 41q28 39 41.5 110t13.5 207q0 157 -7 493.5t-7 485.5q0 158 21.5 249.5t74.5 149.5 q66 72 168 72q40 0 80 -12z"/>
<glyph unicode="≈" horiz-adv-x="1220" d="M1104 842l59 -86q-53 -58 -135.5 -100t-169.5 -42q-44 0 -87 9t-65 17t-62.5 26l-49.5 22q-8 4 -36.5 17.5t-44.5 19.5t-43.5 15.5t-55.5 13.5t-58 4q-64 0 -131 -34t-114 -79l-60 86q53 57 135.5 98t169.5 41q36 0 67.5 -4t62.5 -14t48 -16t49 -21t40 -18 q12 -5 46.5 -21t56 -24.5t58.5 -16.5t74 -8q64 0 132 34.5t114 80.5zM1114 438l60 -86q-53 -57 -136 -99t-170 -42q-44 0 -86.5 8.5t-66 17.5t-62.5 26t-51 22q-7 3 -36 17t-44.5 20t-43 15t-55.5 13t-58 4q-64 0 -131 -33t-113 -79l-62 86q56 57 138 98t168 41 q36 0 68 -4.5t61.5 -14t48 -16.5t48.5 -21t40 -18t46 -20.5t57 -24.5t59 -16t75 -8q64 0 131.5 34.5t114.5 79.5z"/>
<glyph unicode="≠" horiz-adv-x="1220" d="M1139 293h-633l-162 -254h-121l162 254h-303v113h375l184 290h-559v113h631l161 256h123l-163 -256h305v-113h-377l-184 -290h561v-113z"/>
<glyph unicode="≤" horiz-adv-x="1220" d="M1083 199l-946 399v111l946 399v-125l-794 -328v-4l794 -327v-125zM1083 0h-946v109h946v-109z"/>
<glyph unicode="≥" horiz-adv-x="1220" d="M1083 598l-946 -399v125l795 327v4l-795 328v125l946 -399v-111zM1083 0h-946v109h946v-109z"/>
<glyph unicode="◊" horiz-adv-x="970" d="M866 666l-323 -699h-117l-324 699l324 698h117zM731 662l-227 509q-14 32 -19 58h-4q-11 -38 -20 -58l-223 -501l227 -510q16 -37 20 -58h4q14 40 21 58z"/>
<glyph unicode="" horiz-adv-x="993" d="M0 993h993v-993h-993v993z"/>
<glyph unicode="ﬁ" horiz-adv-x="856" d="M301 0h-158v870h-125v121h125v66q0 71 18.5 134t58.5 119.5t113 90t171 33.5q117 0 194 -48l-34 -122q-85 39 -164 39q-112 0 -155.5 -68.5t-43.5 -194.5v-49h444v-991h-157v870h-287v-870z"/>
<glyph unicode="ﬂ" horiz-adv-x="856" d="M301 0h-158v870h-125v121h125v53q0 86 27.5 167.5t85.5 136.5q92 86 252 86q63 0 129.5 -15t110.5 -37v-1382h-158v1284q-51 21 -109 21q-40 0 -71.5 -13.5t-51.5 -36.5t-33 -55.5t-18.5 -68t-5.5 -76.5v-64h170v-121h-170v-870z"/>
</font>
</defs>
</svg>
